<svg xmlns="http://www.w3.org/2000/svg" viewBox="0 0 30 30"><defs><style>.cls-1{fill:#cca060;}.cls-2{fill:#e1ba77;}.cls-3{fill:#eab54b;}.cls-4{fill:#fcc956;}.cls-5{fill:#94c4ab;}.cls-6{fill:#afdac6;}.cls-7{fill:#5f6a8a;}.cls-8{fill:#54617f;}.cls-9{fill:#ffcd74;}.cls-10{fill:#1d3e51;}.cls-11{fill:#e87788;}.cls-12{fill:#f48a94;}</style></defs><g id="Layer_2" data-name="Layer 2"><rect class="cls-1" x="14.60319" y="7.77997" width="8.75813" height="15.43185"/><rect class="cls-2" x="14.60319" y="7.77997" width="8.06054" height="15.43185"/><path class="cls-3" d="M23.90768,15.53794a.68519.68519,0,0,1-.68082.68923H14.43508a.69241.69241,0,0,1-.68923-.68923.676.676,0,0,1,.55477-.664.65275.65275,0,0,1,.13446-.01677h8.79178A.678.678,0,0,1,23.90768,15.53794Z"/><path class="cls-4" d="M23.46218,15.56313a.67665.67665,0,0,1-.5463.664h-8.4808a.69241.69241,0,0,1-.68923-.68923.676.676,0,0,1,.55477-.664h8.48075A.68516.68516,0,0,1,23.46218,15.56313Z"/><path class="cls-3" d="M24.059,22.531a.678.678,0,0,1-.68081.68082H14.58637a.678.678,0,0,1-.68082-.68082.686.686,0,0,1,.51276-.664.54272.54272,0,0,1,.16806-.02519h8.79178A.68515.68515,0,0,1,24.059,22.531Z"/><path class="cls-4" d="M23.62188,22.54779a.68412.68412,0,0,1-.52111.664h-8.5144a.678.678,0,0,1-.68082-.68082.686.686,0,0,1,.51276-.664h8.5144A.68514.68514,0,0,1,23.62188,22.54779Z"/><path class="cls-5" d="M20.34391,12.739v9.25405A1.24834,1.24834,0,0,1,19.1,23.24543H9.17346a1.25551,1.25551,0,0,1-1.25235-1.25236V12.739l4.75733-3.17716h2.90814Z"/><path class="cls-6" d="M19.23443,12.739v9.25405a1.24831,1.24831,0,0,1-1.24394,1.25236h-8.817a1.25551,1.25551,0,0,1-1.25235-1.25236V12.739l4.75733-3.17716h1.79871Z"/><path class="cls-7" d="M22.27708,14.63017a.51438.51438,0,0,1-.05884.11769.63144.63144,0,0,1-.52112.27733.62257.62257,0,0,1-.353-.10922l-1.00021-.664-5.976-3.984a.43407.43407,0,0,0-.47069,0l-5.97608,3.984-1.00022.664a.63134.63134,0,0,1-.87411-.16811.514.514,0,0,1-.05884-.11769.62456.62456,0,0,1,.22695-.75648L7.92111,12.739l4.75733-3.17716.5127-.34459a1.70377,1.70377,0,0,1,1.88274,0l.5127.34459L20.34391,12.739l1.70622,1.13467A.6245.6245,0,0,1,22.27708,14.63017Z"/><path class="cls-8" d="M22.27708,14.63017a.51438.51438,0,0,1-.05884.11769.63144.63144,0,0,1-.52112.27733.62257.62257,0,0,1-.353-.10922l-1.00021-.664-5.976-3.984a.43407.43407,0,0,0-.47069,0l-5.97608,3.984-1.00022.664a.63134.63134,0,0,1-.87411-.16811.514.514,0,0,1-.05884-.11769.578.578,0,0,1,.22695-.28579L7.92111,13.2097l4.75733-3.17716.5127-.34459a1.70377,1.70377,0,0,1,1.88274,0l.5127.34459,4.75733,3.17716,1.70622,1.13468A.578.578,0,0,1,22.27708,14.63017Z"/><path class="cls-3" d="M17.28443,18.6478a3.14234,3.14234,0,0,1-3.15192,3.15192c-.10086,0-.1933-.00836-.28575-.01678A3.12646,3.12646,0,0,1,11.258,19.94222a3.15274,3.15274,0,0,1,2.55514-4.42952.11663.11663,0,0,1,.07567,0,1.14815,1.14815,0,0,1,.24373-.01683,3.13732,3.13732,0,0,1,3.1351,2.89137A1.31441,1.31441,0,0,1,17.28443,18.6478Z"/><path class="cls-9" d="M16.72972,18.589v.05879a3.13605,3.13605,0,0,1-2.883,3.13514,2.52587,2.52587,0,0,1-.42867-.06725,2.78026,2.78026,0,0,1-.353-.10086l-.07562-.02524a3.36337,3.36337,0,0,1-.353-.16806,2.15807,2.15807,0,0,1-.34464-.21854,2.2658,2.2658,0,0,1-.311-.25214,3.39019,3.39019,0,0,1-.24373-.2522,2.58524,2.58524,0,0,1-.2522-.34459,2.44988,2.44988,0,0,1-.2269-.41184,3.15274,3.15274,0,0,1,2.55514-4.42952.11663.11663,0,0,1,.07567,0,3.12755,3.12755,0,0,1,2.82411,2.87454A.81787.81787,0,0,1,16.72972,18.589Z"/><path class="cls-10" d="M14.98583,13.51684l-.02443-.001.01469-.057a.27409.27409,0,0,0-.02772-.21919.7928.7928,0,0,0-.05353-.07856l0-.00032a1.11214,1.11214,0,0,0-.07533-.57614.47378.47378,0,0,0-.41168.2522l-.0001,0c-.02178-.00613-.04382-.00967-.066-.01361l-.01812-.0038,0,.00006a.75392.75392,0,0,0-.13243-.01211c-.0182-.00087-.03639-.00087-.05544,0-.013-.00087-.02427-.00087-.03726-.00087l-.01733.00087-.01386.00087a.68.68,0,0,0-.11861.01125l-.00006-.00034-.01455.00332c-.0232.00416-.04668.00789-.07038.01436l-.0001,0a.47777.47777,0,0,0-.4115-.25262,1.11114,1.11114,0,0,0-.07506.57633l-.00023.00027a.792.792,0,0,0-.05371.07884.2812.2812,0,0,0-.02772.21919l.01459.05666-.02425.00087a.03544.03544,0,0,0,.00129.07086h.0013l.04273-.00155a.65748.65748,0,0,0,.06917.15473l.0003.00048-.08164.01964a.03546.03546,0,0,0,.00826.06993l.00836-.001.10522-.02531.00021.00033a.86869.86869,0,0,0,.16548.17241.81875.81875,0,0,0,.46.16807.2941.2941,0,0,0,.039.00173l.03033-.00086.03031.00086a.82049.82049,0,0,0,.499-.1698.84433.84433,0,0,0,.16548-.17241l0,0,.10537.02536.00881.001a.03643.03643,0,0,0,.03424-.02739.03516.03516,0,0,0-.02642-.043l-.08118-.01956-.00035-.00009.00022-.00033a.65764.65764,0,0,0,.0693-.15509l0,0,.00027,0,.04206.002h.00195a.03548.03548,0,0,0,.03522-.03423A.03448.03448,0,0,0,14.98583,13.51684Z"/><path class="cls-3" d="M24.059,7.43538a.678.678,0,0,1-.68081.68082H14.58637a.67894.67894,0,0,1-.13446-1.3448.65183.65183,0,0,1,.13446-.01683h8.79178A.678.678,0,0,1,24.059,7.43538Z"/><path class="cls-4" d="M23.62188,7.46057a.66753.66753,0,0,1-.52111.65563h-8.5144a.67894.67894,0,0,1-.13446-1.3448h8.4808A.6923.6923,0,0,1,23.62188,7.46057Z"/><path class="cls-11" d="M17.28443,18.6478a3.14234,3.14234,0,0,1-3.15192,3.15192c-.10086,0-.1933-.00836-.28575-.01678a3.13605,3.13605,0,0,0,2.883-3.13514V18.589a4.141,4.141,0,0,1,.53789-.20177A1.31441,1.31441,0,0,1,17.28443,18.6478Z"/><path class="cls-12" d="M16.72972,18.589v.05879a3.13605,3.13605,0,0,1-2.883,3.13514,2.52587,2.52587,0,0,1-.42867-.06725,2.78026,2.78026,0,0,1-.353-.10086l-.07562-.02524a3.36337,3.36337,0,0,1-.353-.16806,2.15807,2.15807,0,0,1-.34464-.21854,2.2658,2.2658,0,0,1-.311-.25214,3.39019,3.39019,0,0,1-.24373-.2522,2.58524,2.58524,0,0,1-.2522-.34459,2.44988,2.44988,0,0,1-.2269-.41184,1.90622,1.90622,0,0,1,.21854-.13451,2.48634,2.48634,0,0,1,1.52133-.1933,4.5844,4.5844,0,0,0,1.33638.21854,3.17344,3.17344,0,0,0,1.29443-.664A5.50882,5.50882,0,0,1,16.72972,18.589Z"/></g></svg>