<svg xmlns="http://www.w3.org/2000/svg" viewBox="0 0 30 30"><defs><style>.cls-1{fill:#fdc75a;}.cls-2{fill:#e5ad4a;}.cls-3{fill:#535e7a;}.cls-4{fill:#91c9b0;}.cls-5{fill:#5f6a8a;}.cls-6{fill:#acdbc7;}.cls-7{fill:#ffcd74;}.cls-8{fill:#f4e9ae;}.cls-9{fill:#fef7c1;}.cls-10{fill:#355c7d;}</style></defs><g id="Layer_2" data-name="Layer 2"><path class="cls-1" d="M16.65934,10.99513H13.33073a1.12352,1.12352,0,0,1-1.12207-1.12256V8.76125a1.12352,1.12352,0,0,1,1.12207-1.12256h3.32861A1.12363,1.12363,0,0,1,17.7819,8.76125V9.87257A1.12363,1.12363,0,0,1,16.65934,10.99513ZM13.33073,8.63869a.12252.12252,0,0,0-.12207.12256V9.87257a.12252.12252,0,0,0,.12207.12256h3.32861a.123.123,0,0,0,.12256-.12256V8.76125a.123.123,0,0,0-.12256-.12256Z"/><path class="cls-2" d="M17.7819,8.762v1.11a1.11816,1.11816,0,0,1-1.12,1.12h-.48a1.12668,1.12668,0,0,0,1.12995-1.12V8.762a1.12669,1.12669,0,0,0-1.12995-1.12006h.48A1.11817,1.11817,0,0,1,17.7819,8.762Z"/><path class="cls-3" d="M22.68994,16.69133l-.84,4.53a1.50351,1.50351,0,0,1-1.54,1.14H9.68994a1.50351,1.50351,0,0,1-1.54-1.14l-.84-4.53a1.38944,1.38944,0,0,1,1.22-1.55,1.65346,1.65346,0,0,1,.32-.03h12.3A1.43558,1.43558,0,0,1,22.68994,16.69133Z"/><path class="cls-4" d="M20.87,16.54131H9.12a1.36019,1.36019,0,0,1-1.47-1.5l.8-4.29a1.39306,1.39306,0,0,1,1.16-1.05,1.55092,1.55092,0,0,1,.31-.03H20.07a1.43921,1.43921,0,0,1,1.47,1.08l.8,4.29A1.36014,1.36014,0,0,1,20.87,16.54131Z"/><path class="cls-5" d="M21.7,16.7213l-.84,4.53a1.43041,1.43041,0,0,1-1.22,1.11h-9.95a1.50351,1.50351,0,0,1-1.54-1.14l-.84-4.53a1.38944,1.38944,0,0,1,1.22-1.55H20.16A1.43556,1.43556,0,0,1,21.7,16.7213Z"/><path class="cls-6" d="M20.18994,16.54131H9.12a1.36019,1.36019,0,0,1-1.47-1.5l.8-4.29a1.39306,1.39306,0,0,1,1.16-1.05h9.47a1.43921,1.43921,0,0,1,1.47,1.08l.8,4.29A1.3072,1.3072,0,0,1,20.18994,16.54131Z"/><path class="cls-2" d="M24,15.69133a.85789.85789,0,0,1-.86005.85H6.85a.84925.84925,0,0,1-.85-.85.85785.85785,0,0,1,.85-.86005H23.14A.86648.86648,0,0,1,24,15.69133Z"/><path class="cls-1" d="M23.06,15.69133a.8493.8493,0,0,1-.85.85H6.85a.84925.84925,0,0,1-.85-.85.85785.85785,0,0,1,.85-.86005H22.21A.85791.85791,0,0,1,23.06,15.69133Z"/><path class="cls-3" d="M8.4908,14.93976h1.65833a0,0,0,0,1,0,0v2.37393a.82916.82916,0,0,1-.82916.82916h0a.82916.82916,0,0,1-.82916-.82916V14.93976a0,0,0,0,1,0,0Z"/><path class="cls-3" d="M19.58009,14.93976h1.64763a0,0,0,0,1,0,0V17.319a.82381.82381,0,0,1-.82381.82381h0a.82381.82381,0,0,1-.82381-.82381V14.93976a0,0,0,0,1,0,0Z"/><path class="cls-7" d="M10.15,14.70134v2.37a.82794.82794,0,0,1-.83.83.57448.57448,0,0,1-.25995-.05.81028.81028,0,0,1-.57-.78v-2.37Z"/><path class="cls-7" d="M21.23,14.70134v2.37994a.82586.82586,0,0,1-.83.82,1.08669,1.08669,0,0,1-.26-.04.82017.82017,0,0,1-.56-.78V14.70134Z"/><path class="cls-8" d="M12.03,11.08128v2.62006a.29894.29894,0,0,1-.3.29.1077.1077,0,0,1-.08-.02h-.03a.30322.30322,0,0,1-.19-.27V11.08128a.30319.30319,0,0,1,.19-.26995h.03a.1077.1077,0,0,1,.08-.02A.29893.29893,0,0,1,12.03,11.08128Z"/><path class="cls-8" d="M13.66,11.08128v2.62006a.29252.29252,0,0,1-.3.29.1077.1077,0,0,1-.08-.02h-.03a.29361.29361,0,0,1-.18-.27V11.08128a.29359.29359,0,0,1,.18-.26995h.03a.1077.1077,0,0,1,.08-.02A.29251.29251,0,0,1,13.66,11.08128Z"/><path class="cls-8" d="M15.29,11.08128v2.62006a.29021.29021,0,0,1-.29.29.14849.14849,0,0,1-.09-.02h-.03a.29366.29366,0,0,1-.18-.27V11.08128a.29364.29364,0,0,1,.18-.26995h.03a.14849.14849,0,0,1,.09-.02A.2902.2902,0,0,1,15.29,11.08128Z"/><path class="cls-8" d="M16.92,11.08128v2.62006a.29022.29022,0,0,1-.29.29.14838.14838,0,0,1-.09-.02h-.03a.29365.29365,0,0,1-.18-.27V11.08128a.29363.29363,0,0,1,.18-.26995h.03a.14838.14838,0,0,1,.09-.02A.29021.29021,0,0,1,16.92,11.08128Z"/><path class="cls-8" d="M18.56,11.08128v2.62006a.299.299,0,0,1-.3.29.10755.10755,0,0,1-.08-.02h-.03a.30332.30332,0,0,1-.19-.27V11.08128a.30329.30329,0,0,1,.19-.26995h.03a.10755.10755,0,0,1,.08-.02A.29894.29894,0,0,1,18.56,11.08128Z"/><path class="cls-9" d="M11.83,11.08128v2.62006a.29366.29366,0,0,1-.18.27h-.03a.30322.30322,0,0,1-.19-.27V11.08128a.30319.30319,0,0,1,.19-.26995h.03A.29363.29363,0,0,1,11.83,11.08128Z"/><path class="cls-9" d="M13.46,11.08128v2.62006a.29366.29366,0,0,1-.18.27h-.03a.29361.29361,0,0,1-.18-.27V11.08128a.29359.29359,0,0,1,.18-.26995h.03A.29364.29364,0,0,1,13.46,11.08128Z"/><path class="cls-9" d="M15.09,11.08128v2.62006a.29366.29366,0,0,1-.18.27h-.03a.29366.29366,0,0,1-.18-.27V11.08128a.29364.29364,0,0,1,.18-.26995h.03A.29363.29363,0,0,1,15.09,11.08128Z"/><path class="cls-9" d="M16.73,11.08128v2.62006a.30332.30332,0,0,1-.19.27h-.03a.29365.29365,0,0,1-.18-.27V11.08128a.29363.29363,0,0,1,.18-.26995h.03A.30329.30329,0,0,1,16.73,11.08128Z"/><path class="cls-9" d="M18.36,11.08128v2.62006a.29366.29366,0,0,1-.18.27h-.03a.30332.30332,0,0,1-.19-.27V11.08128a.30329.30329,0,0,1,.19-.26995h.03A.29363.29363,0,0,1,18.36,11.08128Z"/><path class="cls-10" d="M16.01131,19.62351l-.02907-.00117.01747-.06783a.32606.32606,0,0,0-.033-.26078.94224.94224,0,0,0-.06368-.09346l0-.00038a1.32308,1.32308,0,0,0-.08962-.68547.5637.5637,0,0,0-.4898.3l-.00011,0c-.02592-.00729-.05214-.0115-.07856-.01619l-.02156-.00452,0,.00007a.89652.89652,0,0,0-.15755-.01441c-.02165-.001-.04329-.001-.066,0-.01546-.001-.02887-.001-.04432-.001l-.02062.001-.01649.001a.80936.80936,0,0,0-.14111.01339l-.00008-.00041-.01731.004c-.0276.005-.05553.0094-.08373.01709l-.00013,0a.56841.56841,0,0,0-.48957-.30054,1.32188,1.32188,0,0,0-.0893.68568l-.00028.00033a.94137.94137,0,0,0-.0639.09379.33457.33457,0,0,0-.033.26078l.01736.06741-.02885.001a.04217.04217,0,0,0,.00153.08431h.00155l.05083-.00184a.78212.78212,0,0,0,.0823.18408l.00036.00057-.09713.02337a.04218.04218,0,0,0,.00982.0832l.01-.00115.12518-.03012.00026.0004a1.0334,1.0334,0,0,0,.19688.20512.97415.97415,0,0,0,.54732.2.34957.34957,0,0,0,.04639.00206c.01339,0,.0237,0,.03607-.001.0134.001.0237.001.03607.001a.97623.97623,0,0,0,.59371-.202,1.00492,1.00492,0,0,0,.19688-.20512l0,0,.12537.03017.01049.00117a.04333.04333,0,0,0,.04072-.03259.04182.04182,0,0,0-.03143-.05121L15.87515,19.89l-.00041-.0001.00025-.0004a.78209.78209,0,0,0,.08246-.18451l0,0,.00031,0,.05.00232h.00232a.04222.04222,0,0,0,.0419-.04073A.041.041,0,0,0,16.01131,19.62351Z"/></g></svg>