<svg xmlns="http://www.w3.org/2000/svg" viewBox="0 0 30 30"><defs><style>.cls-1{fill:#515d7c;}.cls-2{fill:#af5676;}.cls-3{fill:#5f6a8a;}.cls-4{fill:#be6b85;}.cls-5{fill:#fcc956;}</style></defs><g id="Layer_2" data-name="Layer 2"><path class="cls-1" d="M22.11529,22.78173a.154.154,0,0,1-.24058-.00455c-.012-.02179-.03027-.03449-.03586-.06548a3.09088,3.09088,0,0,1,.27805-3.77455c.00635-.00914.0127-.01829.03734-.01474a.13021.13021,0,0,1,.21238.02564A3.1443,3.1443,0,0,1,22.11529,22.78173Z"/><path class="cls-1" d="M22.42325,19.21754a3.11374,3.11374,0,0,1-3.51324,1.569.12248.12248,0,0,1-.07311-.05077.14258.14258,0,0,1-.02154-.164,3.08248,3.08248,0,0,1,3.34721-1.603c.06478.00431.114.01144.1632.01851A.16376.16376,0,0,1,22.42325,19.21754Z"/><path class="cls-2" d="M20.11942,22.26266a.149.149,0,0,1-.189-.1177c-.00915-.00635-.00915-.00635-.01194-.02185a3.10976,3.10976,0,0,1,2.218-3.07758c.02185-.01195.03735-.01474.05919-.02668a.15125.15125,0,0,1,.19464.14869A3.10747,3.10747,0,0,1,20.11942,22.26266Z"/><path class="cls-3" d="M21.867,22.69061a.04091.04091,0,0,1-.02819.02109,3.09088,3.09088,0,0,1,.27805-3.77455c.00635-.00914.0127-.01829.03734-.01474A3.12942,3.12942,0,0,1,21.867,22.69061Z"/><path class="cls-3" d="M22.16591,19.12011a3.09637,3.09637,0,0,1-3.329,1.61568.14258.14258,0,0,1-.02154-.164,3.08248,3.08248,0,0,1,3.34721-1.603A.13.13,0,0,1,22.16591,19.12011Z"/><path class="cls-4" d="M19.93038,22.145c-.00915-.00635-.00915-.00635-.01194-.02185a3.10976,3.10976,0,0,1,2.218-3.07758c.00915.00635.00284.01544.00563.03093A3.08767,3.08767,0,0,1,19.93038,22.145Z"/><path class="cls-5" d="M22.18341,19.30467a.278.278,0,0,1,.00721-.4618,1.50075,1.50075,0,0,0,.09479-2.3059,3.534,3.534,0,0,0-.6769-.36022c-.16317-.07163-.32545-.14265-.48084-.22739A3.76374,3.76374,0,0,1,19.419,13.7269a6.41121,6.41121,0,0,1-.14387-2.75261c.023-.16454.04871-.32918.07562-.49365a6.69322,6.69322,0,0,0,.127-1.39424,1.89571,1.89571,0,0,0-.70168-1.473,1.05056,1.05056,0,0,0-.82746-.12622.71059.71059,0,0,0-.46932.35122.27756.27756,0,0,1-.37369.12206.28334.28334,0,0,1-.12206-.37369,1.25687,1.25687,0,0,1,.82276-.63743,1.60183,1.60183,0,0,1,1.27625.19978l.03288.02217a2.382,2.382,0,0,1,.91849,1.88737,7.22363,7.22363,0,0,1-.13459,1.51c-.02533.16028-.05065.32056-.07326.48074a5.86526,5.86526,0,0,0,.12542,2.51632,3.18561,3.18561,0,0,0,1.44339,1.89609c.14018.07617.28842.14074.43576.20469a3.63744,3.63744,0,0,1,.7946.43069,2.05379,2.05379,0,0,1-.1318,3.2125A.27855.27855,0,0,1,22.18341,19.30467Z"/><path class="cls-1" d="M18.12306,7.56542l-5.32876,7.675a.50345.50345,0,0,1-.71214.12849.47907.47907,0,0,1-.21042-.4576.38993.38993,0,0,1,.08193-.25454l5.32876-7.675a.4766.4766,0,0,1,.63548-.15461.094.094,0,0,1,.07662.02618A.50343.50343,0,0,1,18.12306,7.56542Z"/><path class="cls-2" d="M13.40011,15.67458l-4.447,6.40495a1.2628,1.2628,0,0,1-1.74932.31562,1.26783,1.26783,0,0,1-.31562-1.74931l4.447-6.40495a1.258,1.258,0,0,1,1.75566-.32477,1.98152,1.98152,0,0,1,.19743.16418A1.27732,1.27732,0,0,1,13.40011,15.67458Z"/><path class="cls-3" d="M17.84229,7.07261l-5.32872,7.67494a.50424.50424,0,0,1-.64183.16375.38993.38993,0,0,1,.08193-.25454l5.32876-7.675a.4766.4766,0,0,1,.63548-.15461A.37924.37924,0,0,1,17.84229,7.07261Z"/><path class="cls-4" d="M13.11937,15.18171,8.67876,21.57752a1.26519,1.26519,0,0,1-1.75567.32477,1.82278,1.82278,0,0,1-.19743-.16419,1.23254,1.23254,0,0,1,.16254-1.09226l4.447-6.40495a1.258,1.258,0,0,1,1.75566-.32477,1.98152,1.98152,0,0,1,.19743.16418A1.25412,1.25412,0,0,1,13.11937,15.18171Z"/></g></svg>