<svg xmlns="http://www.w3.org/2000/svg" viewBox="0 0 30 30"><defs><style>.cls-1{fill:#8db5b5;}.cls-2{fill:#fcc956;}.cls-3{fill:#e2ae44;}.cls-4{fill:#efa726;}.cls-5{fill:#f9ba3a;}.cls-6{fill:#80a8a7;}.cls-7{fill:#1d3e51;}.cls-8{fill:#fadac3;}.cls-9{fill:#e53400;}.cls-10{fill:#143342;}</style></defs><g id="Layer_2" data-name="Layer 2"><path class="cls-1" d="M18.757,21.37357a3.55512,3.55512,0,0,1-.2084.54374,2.509,2.509,0,0,1-2.23826,1.68546H12.39567a2.4189,2.4189,0,0,1-2.13854-1.48613,6.25287,6.25287,0,0,1-.34435-.82459,8.67456,8.67456,0,0,1,.11781-5.09266l.93338-2.80916a3.096,3.096,0,0,1,2.60971-2.40131h1.55864a3.09608,3.09608,0,0,1,2.60977,2.40131l.92431,2.80916A8.50356,8.50356,0,0,1,18.757,21.37357Z"/><path class="cls-2" d="M15.44584,16.99093a1.09178,1.09178,0,0,1-.93116,1.081v-.04225a.861.861,0,0,1,.09628-.38028.28479.28479,0,0,0,.0317-.13028.29154.29154,0,0,0-.57185-.07981.29777.29777,0,0,0,.01762.20305.92025.92025,0,0,1,.09981.38732v.04225a1.09362,1.09362,0,1,1,1.2576-1.081Z"/><path class="cls-3" d="M15.44719,16.99105a1.0919,1.0919,0,0,1-.93256,1.08032v-.062a1.09332,1.09332,0,0,0-.27752-2.10722c.03793-.00345.07584-.00518.11549-.00518A1.09369,1.09369,0,0,1,15.44719,16.99105Z"/><path class="cls-4" d="M15.57016,16.69479a.10555.10555,0,0,1-.10515.1051H13.2379a.10556.10556,0,0,1-.10515-.1051.1067.1067,0,0,1,.10515-.10511H15.465A.10669.10669,0,0,1,15.57016,16.69479Z"/><path class="cls-5" d="M15.4426,16.69479a.10445.10445,0,0,1-.10516.1051H13.2379a.10556.10556,0,0,1-.10515-.1051.1067.1067,0,0,1,.10515-.10511h2.09954A.10555.10555,0,0,1,15.4426,16.69479Z"/><path class="cls-2" d="M14.35146,15.86818a.42957.42957,0,1,1,.42976-.42957A.4302.4302,0,0,1,14.35146,15.86818Zm0-.68684a.25727.25727,0,1,0,.25738.25727A.25764.25764,0,0,0,14.35146,15.18134Z"/><path class="cls-3" d="M14.78122,15.43775a.43064.43064,0,0,1-.42922.43075.18659.18659,0,0,1-.031-.00173.42943.42943,0,0,0,0-.85632.18659.18659,0,0,1,.031-.00173A.43028.43028,0,0,1,14.78122,15.43775Z"/><path class="cls-4" d="M14.25838,15.57312h.1879a.03274.03274,0,0,1,.03274.03274v.36353a.03448.03448,0,0,1-.03448.03448h-.1879a.03274.03274,0,0,1-.03274-.03274v-.36353A.03448.03448,0,0,1,14.25838,15.57312Z"/><path class="cls-5" d="M14.25837,15.57312h.11034a.03274.03274,0,0,1,.03274.03274v.36353a.03448.03448,0,0,1-.03448.03448h-.11033a.03274.03274,0,0,1-.03274-.03274v-.36355A.03447.03447,0,0,1,14.25837,15.57312Z"/><path class="cls-6" d="M13.2281,18.2911l-.51652,5.32827A.51129.51129,0,0,1,12.16784,24a.79716.79716,0,0,1-.154-.01814l-.08158-.02721a.41578.41578,0,0,1-.28992-.33528L11.2526,18.2911Z"/><path class="cls-6" d="M17.28772,18.2911l-.51653,5.32827A.51122.51122,0,0,1,16.22751,24a.7976.7976,0,0,1-.15408-.01814.43837.43837,0,0,1-.16311-.06344.37634.37634,0,0,1-.2084-.29905l-.38964-5.32827Z"/><path class="cls-1" d="M12.75687,18.2911l-.52559,5.32827a.4431.4431,0,0,1-.299.33528.41578.41578,0,0,1-.28992-.33528L11.2526,18.2911Z"/><path class="cls-1" d="M16.65339,18.2911l-.5256,5.32827a.38713.38713,0,0,1-.21747.29905.37634.37634,0,0,1-.2084-.29905l-.38964-5.32827Z"/><path class="cls-1" d="M20.17415,21.14792a.83016.83016,0,0,1-.73626-.32964.64351.64351,0,0,1,.06062-.78007.55878.55878,0,0,1,.68493-.13583.4514.4514,0,0,1,.21593.24291.57528.57528,0,0,0,.00929-.14867.96868.96868,0,0,0-.67919-.87254.75978.75978,0,0,0-.87519.44468.4532.4532,0,1,1-.86015-.28583,1.6761,1.6761,0,0,1,1.95569-1.03758A1.87924,1.87924,0,0,1,21.31306,19.944a1.12436,1.12436,0,0,1-.40574,1.00395,1.19013,1.19013,0,0,1-.71282.2Z"/><path class="cls-7" d="M13.07907,8.56528l-.80738.3837-2.738,1.295s-.3877-3.00973.41968-4.24082C9.95341,6.00319,11.88,5.80334,13.07907,8.56528Z"/><path class="cls-8" d="M12.271,8.94939l-2.738,1.295s-.3877-3.00973.41968-4.24081A7.76316,7.76316,0,0,1,12.271,8.94939Z"/><path class="cls-7" d="M19.08423,9.652c-.02479.35906-.05573.5943-.05573.5943l-2.74236-1.3-.6438-.30952-.161-.07429a5.75391,5.75391,0,0,1,.52-.95951A2.99863,2.99863,0,0,1,18.60755,6.0058C19.18946,6.89106,19.15232,8.71106,19.08423,9.652Z"/><path class="cls-8" d="M19.08423,9.652c-.02479.35906-.05573.5943-.05573.5943l-2.74236-1.3a5.28471,5.28471,0,0,1,.55715-1.04615A8.52772,8.52772,0,0,1,18.60755,6.0058C19.18946,6.89106,19.15232,8.71106,19.08423,9.652Z"/><path class="cls-6" d="M19.59827,11.53834l-.0932.36185-.03293.13158a1.5399,1.5399,0,0,1-.09869.307,4.15936,4.15936,0,0,1-.43862.98145c-.08222.14255-.16447.27414-.25767.40572a5.34574,5.34574,0,0,1-1.04724,1.09107,5.19291,5.19291,0,0,1-3.15811,1.07465c-.06579,0-.12061,0-.19189-.00549-.06579.00549-.1206.00549-.19188.00549a1.85532,1.85532,0,0,1-.24673-.011,5.18189,5.18189,0,0,1-2.91138-1.06367A5.49606,5.49606,0,0,1,9.88269,13.726c-.08771-.13158-.17545-.26317-.25767-.40572a4.15936,4.15936,0,0,1-.43862-.98145,1.5399,1.5399,0,0,1-.09869-.307l-.03293-.13158-.0932-.36185A1.77966,1.77966,0,0,1,9.137,10.15117,5.00464,5.00464,0,0,1,9.477,9.65225a5.41712,5.41712,0,0,1,2.24249-1.75451,4.93769,4.93769,0,0,1,.69084-.25222,1.51065,1.51065,0,0,1,.148-.04384c.18094-.04936.36189-.07677.53734-.10966a4.30108,4.30108,0,0,1,.75114-.07128.47092.47092,0,0,1,.08771-.00549.8107.8107,0,0,1,.10967-.00549c.08222,0,.1535,0,.23575.00549.12061-.00549.23576-.00549.35091,0a4.77271,4.77271,0,0,1,.83886.07677c.18094.03289.35639.0603.53185.10966a1.51065,1.51065,0,0,1,.148.04384,5.278,5.278,0,0,1,.69633.25222,5.43654,5.43654,0,0,1,2.237,1.75451,5.00464,5.00464,0,0,1,.33993.49892A1.73441,1.73441,0,0,1,19.59827,11.53834Z"/><path class="cls-1" d="M18.721,11.53834l-.09319.36185-.02741.13158a2.85975,2.85975,0,0,1-.09869.307,4.41247,4.41247,0,0,1-.4441.98145,3.89774,3.89774,0,0,1-.25771.40572,5.34533,5.34533,0,0,1-1.04721,1.09107,5.12747,5.12747,0,0,1-2.91137,1.06367,5.18189,5.18189,0,0,1-2.91138-1.06367A5.49606,5.49606,0,0,1,9.88269,13.726c-.08771-.13158-.17545-.26317-.25767-.40572a4.15936,4.15936,0,0,1-.43862-.98145,1.5399,1.5399,0,0,1-.09869-.307l-.03293-.13158-.0932-.36185A1.77966,1.77966,0,0,1,9.137,10.15117,5.00464,5.00464,0,0,1,9.477,9.65225a5.41712,5.41712,0,0,1,2.24249-1.75451,4.93769,4.93769,0,0,1,.69084-.25222,1.51065,1.51065,0,0,1,.148-.04384c.18094-.04936.36189-.07677.53734-.10966a3.96448,3.96448,0,0,1,1.4968,0,5.36022,5.36022,0,0,1,.53182.10966,1.51038,1.51038,0,0,1,.148.04384,5.28108,5.28108,0,0,1,.69633.25222,5.40145,5.40145,0,0,1,2.237,1.75451c.12613.159.23579.32895.34542.49892A1.75487,1.75487,0,0,1,18.721,11.53834Z"/><path class="cls-9" d="M13.84747,13.84518h.86592a0,0,0,0,1,0,0v.5389a.327.327,0,0,1-.327.327h-.5389a0,0,0,0,1,0,0v-.86592A0,0,0,0,1,13.84747,13.84518Z" transform="translate(14.27881 -5.91582) rotate(45)"/><path class="cls-7" d="M8.90868,12.35089a.22429.22429,0,0,1-.00818-.44844l2.25037-.08151a.22437.22437,0,1,1,.01636.44844l-2.25037.08151Z"/><path class="cls-7" d="M9.16255,13.89018a.22441.22441,0,0,1-.05229-.44259l2.18931-.52673a.22448.22448,0,0,1,.10517.43646l-2.18931.52673A.23516.23516,0,0,1,9.16255,13.89018Z"/><path class="cls-7" d="M19.87659,12.13436a.22461.22461,0,0,1-.22285.21665h-.01239l-.26619-.01236-1.98091-.06809a.22738.22738,0,0,1-.21669-.23524.232.232,0,0,1,.23524-.21668l2.09238.08048.15476.00619A.21822.21822,0,0,1,19.87659,12.13436Z"/><path class="cls-7" d="M19.6166,13.71911a.23054.23054,0,0,1-.21665.17335c-.01859,0-.03714-.0062-.05573-.0062l-.66858-.16095L17.159,13.36005a.226.226,0,1,1,.10523-.4395l1.67143.40236.51378.12382A.22247.22247,0,0,1,19.6166,13.71911Z"/><path class="cls-10" d="M15.08043,12.79389l-.159.20286a.82425.82425,0,0,1-1.283,0l-.159-.20286a.35688.35688,0,0,1,.28512-.57569H14.8008A.35639.35639,0,0,1,15.08043,12.79389Z"/><path class="cls-7" d="M14.81723,12.79389l-.1535.20286a.785.785,0,0,1-.51539.2961.79611.79611,0,0,1-.5099-.2961l-.159-.20286a.35688.35688,0,0,1,.28512-.57569h.77306A.35494.35494,0,0,1,14.81723,12.79389Z"/><path class="cls-7" d="M13.30205,11.44087a.14949.14949,0,0,1-.14957-.14958.524.524,0,0,0-1.04792,0,.14958.14958,0,1,1-.29915,0,.82311.82311,0,0,1,1.64622,0A.14949.14949,0,0,1,13.30205,11.44087Z"/><path class="cls-7" d="M16.60588,11.44087a.14949.14949,0,0,1-.14957-.14958.52411.52411,0,0,0-1.04821,0,.14958.14958,0,1,1-.29915,0,.82326.82326,0,0,1,1.64651,0A.14949.14949,0,0,1,16.60588,11.44087Z"/><path class="cls-7" d="M13.60749,14.34357a.82414.82414,0,0,1-.82326-.82326.14958.14958,0,0,1,.29915,0,.524.524,0,1,0,1.04792,0,.14958.14958,0,0,1,.29915,0A.82407.82407,0,0,1,13.60749,14.34357Z"/><path class="cls-7" d="M14.95368,14.34357a.82414.82414,0,0,1-.82326-.82326.14958.14958,0,0,1,.29915,0,.524.524,0,1,0,1.04792,0,.14958.14958,0,0,1,.29915,0A.82407.82407,0,0,1,14.95368,14.34357Z"/><path class="cls-7" d="M14.28,13.69881a.14949.14949,0,0,1-.14958-.14958v-.29418a.14958.14958,0,1,1,.29915,0v.29418A.14949.14949,0,0,1,14.28,13.69881Z"/><path class="cls-7" d="M14.6333,7.41724l-.35286,2.30283-.34667-2.30283a.70985.70985,0,0,1,.11143-.0062c.08047,0,.15476,0,.23524.0062A3.34937,3.34937,0,0,1,14.6333,7.41724Z"/><path class="cls-7" d="M13.48468,9.72145l-1.071-2.07611a4.49679,4.49679,0,0,1,.682-.15556Z"/><path class="cls-7" d="M16.15,7.64628l-.50762.99046-.55715,1.08333.3838-2.22855a5.07017,5.07017,0,0,1,.53241.11142A1.35506,1.35506,0,0,1,16.15,7.64628Z"/></g></svg>