<svg xmlns="http://www.w3.org/2000/svg" viewBox="0 0 30 30"><defs><style>.cls-1{fill:#eddcca;}.cls-2{fill:#fef4e8;}.cls-3{fill:#355c7d;}.cls-4{fill:#294e68;}</style></defs><g id="Layer_2" data-name="Layer 2"><polygon class="cls-1" points="22.885 7.185 19.89 20.428 10.052 20.428 7.057 7.185 22.885 7.185"/><polygon class="cls-2" points="21.306 7.185 18.311 20.428 10.052 20.428 7.057 7.185 21.306 7.185"/><path class="cls-3" d="M11.91156,6.37815l-.24563.07018-.58493.1638a.485.485,0,0,0-.3393.60828l.22227.78386H6.89289a.81308.81308,0,0,1,0-1.62612Z"/><path class="cls-4" d="M23.91432,7.18535a.81139.81139,0,0,1-.80721.81892H10.964l-.22227-.78386a.485.485,0,0,1,.3393-.60828l.83056-.234H23.10711A.80881.80881,0,0,1,23.91432,7.18535Z"/><path class="cls-3" d="M23.32939,7.18535a.81139.81139,0,0,1-.80721.81892H10.964l-.22227-.78386a.485.485,0,0,1,.3393-.60828l.83056-.234H22.52218A.80881.80881,0,0,1,23.32939,7.18535Z"/><path class="cls-4" d="M19.87829,20.42816v1.825a1.37042,1.37042,0,0,1-1.36871,1.36871H11.42023a1.378,1.378,0,0,1-1.36871-1.36871v-1.825Z"/><path class="cls-3" d="M18.31072,20.42816v1.825a1.37048,1.37048,0,0,1-1.36879,1.36871h-5.5217a1.378,1.378,0,0,1-1.36871-1.36871v-1.825Z"/><path class="cls-3" d="M16.07625,21.18853l-1.29853.36265L10.964,8.00427l-.22227-.78386a.485.485,0,0,1,.3393-.60828l.83056-.234.45626,1.62612Z"/><path class="cls-4" d="M10.7417,7.22041l.22227.78386h-.269l-.22228-.78386a.485.485,0,0,1,.33924-.60828l.83062-.234.02342.07018-.58493.1638A.485.485,0,0,0,10.7417,7.22041Z"/><rect class="cls-1" x="9.39632" y="9.87546" width="1.75818" height="0.89633" rx="0.2887"/><rect class="cls-1" x="9.94032" y="11.92863" width="1.75818" height="0.89633" rx="0.2887"/><rect class="cls-1" x="10.48432" y="13.9818" width="1.75818" height="0.89633" rx="0.2887"/><rect class="cls-1" x="11.02832" y="16.03496" width="1.75818" height="0.89633" rx="0.2887"/><rect class="cls-1" x="11.57233" y="18.08813" width="1.75818" height="0.89633" rx="0.2887"/></g></svg>