<svg xmlns="http://www.w3.org/2000/svg" viewBox="0 0 30 30"><defs><style>.cls-1{fill:#eaeaea;}.cls-2{fill:#025563;}.cls-3{fill:#05717c;}.cls-4{fill:#d6d3d2;}.cls-5{fill:#002a3a;}</style></defs><g id="Layer_2" data-name="Layer 2"><rect class="cls-1" x="11.48469" y="14.83611" width="8.98719" height="1.04018" transform="translate(5.87658 -4.36876) rotate(19.01908)"/><path class="cls-2" d="M12.84675,11.82716l-1.50591,4.38746a.95863.95863,0,0,1-1.46795.452L6.61072,14.22324a2.26481,2.26481,0,0,1-.90329-1.82318,1.653,1.653,0,0,1,.09882-.54347,2.11684,2.11684,0,0,1,2.0921-1.37284l4.08234.08532a.84676.84676,0,0,1,.64305.293A.90427.90427,0,0,1,12.84675,11.82716Z"/><path class="cls-3" d="M12.62374,10.86211l-1.491,4.351a.95216.95216,0,0,1-1.46788.452L6.40266,13.22164a2.59556,2.59556,0,0,1-.69523-.82158,1.653,1.653,0,0,1,.09882-.54347,2.11684,2.11684,0,0,1,2.0921-1.37284l4.08234.08532A.84676.84676,0,0,1,12.62374,10.86211Z"/><path class="cls-4" d="M11.91441,18.21408a.624.624,0,0,1-.51885-.89541l.43157-.88559a19.28977,19.28977,0,0,0,1.52821-4.43343l.20607-.96415a.624.624,0,1,1,1.2206.25984l-.20606.96415A20.57408,20.57408,0,0,1,12.948,16.97926l-.43157.8856A.6228.6228,0,0,1,11.91441,18.21408Z"/><path class="cls-4" d="M13.88884,18.50232a.57088.57088,0,0,1-.47915-.81339l.37426-.79541a19.6437,19.6437,0,0,0,1.36655-3.96931l.1977-.85728a.57923.57923,0,0,1,.68431-.42918.57.57,0,0,1,.42918.6843l-.19649.85736a20.71968,20.71968,0,0,1-1.44673,4.2008l-.37426.79541A.57163.57163,0,0,1,13.88884,18.50232Z"/><path class="cls-4" d="M15.8632,18.79179a.521.521,0,0,1-.43947-.73138l.31574-.70532a20.90183,20.90183,0,0,0,1.20862-3.50617l.18562-.74942a.509.509,0,0,1,.62967-.37912.51978.51978,0,0,1,.37912.62968l-.18561.74943a21.94476,21.94476,0,0,1-1.26911,3.68037l-.31574.70532A.52.52,0,0,1,15.8632,18.79179Z"/><path class="cls-4" d="M17.83892,19.0789a.502.502,0,0,1-.14909-.03438.46922.46922,0,0,1-.25206-.61264l.25592-.61409a24.82491,24.82491,0,0,0,1.05216-3.04658l.17465-.64028a.45792.45792,0,0,1,.57376-.32791.46676.46676,0,0,1,.32791.57376l-.17473.64149A25.7375,25.7375,0,0,1,18.5571,18.1795l-.25463.613A.47014.47014,0,0,1,17.83892,19.0789Z"/><path class="cls-1" d="M11.65853,18.197a.624.624,0,0,1-.51885-.8954l.43157-.88559a19.28994,19.28994,0,0,0,1.52821-4.43343l.20607-.96415a.624.624,0,1,1,1.2206.25983l-.20607.96416a20.57329,20.57329,0,0,1-1.62793,4.71977l-.43156.88559A.62278.62278,0,0,1,11.65853,18.197Z"/><path class="cls-1" d="M13.633,18.48522a.5709.5709,0,0,1-.47915-.81339l.37426-.79542a19.64327,19.64327,0,0,0,1.36655-3.96931l.1977-.85727a.57921.57921,0,0,1,.6843-.42918.57.57,0,0,1,.42919.6843l-.19649.85735a20.71888,20.71888,0,0,1-1.44674,4.2008l-.37425.79542A.57164.57164,0,0,1,13.633,18.48522Z"/><path class="cls-1" d="M15.60731,18.77468a.521.521,0,0,1-.43946-.73138l.31574-.70532a20.90172,20.90172,0,0,0,1.20862-3.50616l.18561-.74942a.509.509,0,0,1,.62968-.37912.51978.51978,0,0,1,.37912.62968l-.18562.74942a21.94383,21.94383,0,0,1-1.2691,3.68037l-.31574.70532A.51993.51993,0,0,1,15.60731,18.77468Z"/><path class="cls-1" d="M17.583,19.0618a.502.502,0,0,1-.14909-.03438.46922.46922,0,0,1-.25206-.61264l.25592-.61409A24.82607,24.82607,0,0,0,18.49,14.75411l.17465-.64028a.45792.45792,0,0,1,.57376-.32791.46675.46675,0,0,1,.32791.57375l-.17473.64149a25.73932,25.73932,0,0,1-1.09034,3.16124l-.25463.61295A.47015.47015,0,0,1,17.583,19.0618Z"/><path class="cls-2" d="M24.1294,14.35656a5.14853,5.14853,0,0,1-2.49729,2.946,5.16142,5.16142,0,0,1,.15451,3.86091.75968.75968,0,0,1-1.175.37151,3.06973,3.06973,0,0,1-.98223-1.5784,8.04784,8.04784,0,0,1-.10555-3.47s1.58536-3.14455,3.92278-3.13833a.5831.5831,0,0,1,.31945.08392A.74322.74322,0,0,1,24.1294,14.35656Z"/><path class="cls-3" d="M23.76609,13.43218a.13565.13565,0,0,1-.01662.06139,5.833,5.833,0,0,1-2.67,3.10274,4.95961,4.95961,0,0,1,.3281,3.69173.76109.76109,0,0,1-1.18743.37067,2.29042,2.29042,0,0,1-.59068-.70211,8.04784,8.04784,0,0,1-.10555-3.47s1.58536-3.14455,3.92278-3.13833A.5831.5831,0,0,1,23.76609,13.43218Z"/><path class="cls-5" d="M9.68043,11.50494a.22965.22965,0,0,1,.14353.1243c.0697.18987.10231.27407.12657.33486l.0029.001c.06314-.03813.16809-.10334.30558-.18678a.231.231,0,0,1,.18873-.00888h0c.153.05273.20329.20061.08749.25708l-.39546.19282.19579.45817c.04847.11344-.08122.19343-.2303.142l-.02394-.00825a.228.228,0,0,1-.14471-.12762c-.05914-.17445-.09672-.29046-.11777-.35555l-.00289-.001c-.05093.035-.1683.11239-.314.20724a.22777.22777,0,0,1-.19208.011l-.00249-.00085c-.15021-.05178-.20236-.19614-.092-.25477l.39519-.21-.18159-.44156c-.04637-.11275.083-.19129.231-.14026Z"/></g></svg>