<svg xmlns="http://www.w3.org/2000/svg" viewBox="0 0 30 30"><defs><style>.cls-1{fill:#be6b85;}.cls-2{fill:#ad5977;}</style></defs><g id="Layer_2" data-name="Layer 2"><path class="cls-1" d="M13.65359,21.05057a2.35945,2.35945,0,0,0-.29609-.95833,2.501,2.501,0,0,1-.30153-.84159,2.469,2.469,0,0,0-4.11492-1.37807,2.45071,2.45071,0,0,1-.74491.4853,2.359,2.359,0,0,0-.81436.58033,2.01114,2.01114,0,0,0-.10484,2.81126,1.73939,1.73939,0,0,0,1.69647.34461,1.38263,1.38263,0,0,1,1.50773.508,1.7358,1.7358,0,0,0,1.54864.74579A2.01115,2.01115,0,0,0,13.65359,21.05057Z"/><path class="cls-2" d="M12.02846,23.35386a1.60219,1.60219,0,0,1-1.05952-.28165,1.2792,1.2792,0,0,0,.218-.00313,2.01342,2.01342,0,0,0,1.62286-2.30134,2.30038,2.30038,0,0,0-.2919-.95629,2.41129,2.41129,0,0,1-.30153-.84127,2.43055,2.43055,0,0,0-1.22665-1.72794,2.18452,2.18452,0,0,1,.42284.10168,2.43123,2.43123,0,0,1,1.64012,1.90926,2.61116,2.61116,0,0,0,.30152.84126,2.31294,2.31294,0,0,1,.29717.95808A2.01344,2.01344,0,0,1,12.02846,23.35386Z"/><path class="cls-2" d="M14.463,17.15291a1.00978,1.00978,0,0,1-.94527.6973l-.00526-.00178a.85545.85545,0,0,1-.29491-.04655.28712.28712,0,0,1-.13832-.07637.92708.92708,0,0,1-.47236-.54426,1.01788,1.01788,0,0,1,.28379-1.09858l.9304-.82654a.17678.17678,0,0,1,.10234-.06.28174.28174,0,0,1,.34472.21126l.01013.05667.22188,1.16321A1.01436,1.01436,0,0,1,14.463,17.15291Z"/><path class="cls-2" d="M15.92983,20.42288a1.00975,1.00975,0,0,1-.94524.69731l-.00526-.00178a.87879.87879,0,0,1-.29495-.04656.287.287,0,0,1-.13828-.07636.92727.92727,0,0,1-.47237-.54425,1.01783,1.01783,0,0,1,.2838-1.09858l.92513-.82833a.1865.1865,0,0,1,.1076-.05819.28174.28174,0,0,1,.34473.21125l.01013.05667.21662,1.16144A.968.968,0,0,1,15.92983,20.42288Z"/><path class="cls-2" d="M10.90982,16.09842a1.02231,1.02231,0,0,1-.947.70263l-.00527-.00178a.98327.98327,0,0,1-.29314-.05188.25842.25842,0,0,1-.133-.07457.92681.92681,0,0,1-.47763-.546A1.02778,1.02778,0,0,1,9.34279,15.03l.9251-.82833a.15341.15341,0,0,1,.10584-.05288.26968.26968,0,0,1,.34126.20417l.01012.05667.22189,1.16321A1.0146,1.0146,0,0,1,10.90982,16.09842Z"/><path class="cls-2" d="M7.85066,17.482a1.02232,1.02232,0,0,1-.94708.70265l-.00523-.00177a1.04122,1.04122,0,0,1-.29314-.05191.28718.28718,0,0,1-.13831-.07636.92724.92724,0,0,1-.47238-.54423,1.01783,1.01783,0,0,1,.28383-1.09857l.9251-.82833a.18693.18693,0,0,1,.10765-.05822.28172.28172,0,0,1,.34468.21128l.01017.05664.21661,1.16147A.96782.96782,0,0,1,7.85066,17.482Z"/><path class="cls-1" d="M14.06756,16.65833a1.00975,1.00975,0,0,1-.94528.69734l-.00527-.00178a.87856.87856,0,0,1-.29491-.04656.28677.28677,0,0,1-.1383-.07639.51491.51491,0,0,1-.077-.04969,1.01788,1.01788,0,0,1,.28379-1.09858l.9304-.82654a.17678.17678,0,0,1,.10234-.06l.17608.93483A.96782.96782,0,0,1,14.06756,16.65833Z"/><path class="cls-1" d="M15.53445,19.92832a1.01724,1.01724,0,0,1-.94527.69733l-.00527-.00178a.88711.88711,0,0,1-.30017-.04836.277.277,0,0,1-.133-.07459.51543.51543,0,0,1-.077-.04968,1.01783,1.01783,0,0,1,.2838-1.09858l.92513-.82833a.1865.1865,0,0,1,.1076-.05819l.17609.93483A.96774.96774,0,0,1,15.53445,19.92832Z"/><path class="cls-1" d="M10.51445,15.60386a1.02237,1.02237,0,0,1-.94708.70265l-.00526-.00178a1.0113,1.0113,0,0,1-.29312-.05187.28684.28684,0,0,1-.1383-.07639.51593.51593,0,0,1-.077-.04969A1.02778,1.02778,0,0,1,9.34279,15.03l.9251-.82833a.15341.15341,0,0,1,.10584-.05288l.17785.92951A1.01431,1.01431,0,0,1,10.51445,15.60386Z"/><path class="cls-1" d="M7.45524,16.98746a1.0223,1.0223,0,0,1-.947.70263l-.00527-.00179a1.03987,1.03987,0,0,1-.29314-.05187.287.287,0,0,1-.13828-.07635.5195.5195,0,0,1-.077-.0497,1.01783,1.01783,0,0,1,.28383-1.09857l.9251-.82833a.18693.18693,0,0,1,.10765-.05822l.176.93485A.96773.96773,0,0,1,7.45524,16.98746Z"/><path class="cls-1" d="M21.68558,13.70637a2.35942,2.35942,0,0,0-.24615-.97236,2.5009,2.5009,0,0,1-.25762-.856A2.469,2.469,0,0,0,17.14362,10.289a2.45087,2.45087,0,0,1-.769.44615,2.359,2.359,0,0,0-.84326.53746,2.01113,2.01113,0,0,0-.25,2.80208,1.73939,1.73939,0,0,0,1.67639.43184,1.38262,1.38262,0,0,1,1.47945.58523,1.73578,1.73578,0,0,0,1.508.82483A2.01113,2.01113,0,0,0,21.68558,13.70637Z"/><path class="cls-2" d="M19.94357,15.92257a1.60223,1.60223,0,0,1-1.04355-.336,1.27924,1.27924,0,0,0,.21782.00814,2.01339,2.01339,0,0,0,1.73965-2.21437,2.30036,2.30036,0,0,0-.24208-.97011,2.41145,2.41145,0,0,1-.25764-.85573,2.43051,2.43051,0,0,0-1.13569-1.789,2.184,2.184,0,0,1,.417.1234,2.4312,2.4312,0,0,1,1.53923,1.99148,2.61132,2.61132,0,0,0,.25764.85573,2.31293,2.31293,0,0,1,.24725.97215A2.01345,2.01345,0,0,1,19.94357,15.92257Z"/><path class="cls-2" d="M22.69534,9.85575a1.00977,1.00977,0,0,1-.98005.64751l-.00516-.002a.85522.85522,0,0,1-.29211-.06174.28709.28709,0,0,1-.13418-.08341.9271.9271,0,0,1-.44361-.56795,1.01789,1.01789,0,0,1,.34021-1.08244l.97187-.77734a.17676.17676,0,0,1,.1053-.05461.28174.28174,0,0,1,.33335.22879l.00718.05712.16147,1.17313A1.01443,1.01443,0,0,1,22.69534,9.85575Z"/><path class="cls-2" d="M23.99122,13.19717a1.00974,1.00974,0,0,1-.98.64752l-.00517-.00205a.8788.8788,0,0,1-.29214-.06174.28705.28705,0,0,1-.13415-.0834.92729.92729,0,0,1-.4436-.56795,1.0178,1.0178,0,0,1,.3402-1.08244l.96671-.7794a.18643.18643,0,0,1,.11047-.05255.28173.28173,0,0,1,.33334.22879l.00719.05711.15629,1.17108A.96785.96785,0,0,1,23.99122,13.19717Z"/><path class="cls-2" d="M19.20146,8.619a1.02234,1.02234,0,0,1-.98209.65274l-.00516-.00205a.98365.98365,0,0,1-.29008-.067.25842.25842,0,0,1-.129-.08135.92684.92684,0,0,1-.44877-.57A1.02779,1.02779,0,0,1,17.69175,7.471l.96668-.77941a.15339.15339,0,0,1,.10843-.04733.26967.26967,0,0,1,.33025.22153l.00718.05711L19.26575,8.096A1.0146,1.0146,0,0,1,19.20146,8.619Z"/><path class="cls-2" d="M16.07487,9.84261a1.02233,1.02233,0,0,1-.98213.65276l-.00513-.002a1.04154,1.04154,0,0,1-.29007-.067.28722.28722,0,0,1-.13418-.08341.92718.92718,0,0,1-.44361-.56792A1.01782,1.01782,0,0,1,14.56,8.69258l.96668-.77941a.187.187,0,0,1,.11051-.05257.28172.28172,0,0,1,.3333.22881l.00723.0571.15629,1.1711A.96791.96791,0,0,1,16.07487,9.84261Z"/><path class="cls-1" d="M22.326,9.3414a1.00975,1.00975,0,0,1-.98006.64754l-.00517-.002a.87863.87863,0,0,1-.29211-.06174.28694.28694,0,0,1-.13417-.08344.51607.51607,0,0,1-.07429-.0536,1.01789,1.01789,0,0,1,.34021-1.08244l.97187-.77734a.17676.17676,0,0,1,.1053-.05461l.12754.94268A.96794.96794,0,0,1,22.326,9.3414Z"/><path class="cls-1" d="M23.62194,12.68283a1.01727,1.01727,0,0,1-.98006.64755l-.00516-.00206a.88712.88712,0,0,1-.29727-.06381.277.277,0,0,1-.129-.08136.515.515,0,0,1-.07429-.0536,1.0178,1.0178,0,0,1,.3402-1.08244l.96671-.7794a.18643.18643,0,0,1,.11047-.05255l.12753.94268A.96779.96779,0,0,1,23.62194,12.68283Z"/><path class="cls-1" d="M18.83218,8.10467a1.02238,1.02238,0,0,1-.98213.65276l-.00517-.002a1.01125,1.01125,0,0,1-.29-.067.28682.28682,0,0,1-.13417-.08344.51607.51607,0,0,1-.07429-.0536A1.02779,1.02779,0,0,1,17.69175,7.471l.96668-.77941a.15339.15339,0,0,1,.10843-.04733l.12957.93746A1.01426,1.01426,0,0,1,18.83218,8.10467Z"/><path class="cls-1" d="M15.70554,9.32829a1.02229,1.02229,0,0,1-.98208.65274L14.71829,9.979a1.04025,1.04025,0,0,1-.29007-.067.28705.28705,0,0,1-.13415-.0834.51962.51962,0,0,1-.07432-.05361A1.01782,1.01782,0,0,1,14.56,8.69258l.96668-.77941a.187.187,0,0,1,.11051-.05257l.12749.9427A.9677.9677,0,0,1,15.70554,9.32829Z"/></g></svg>