<svg xmlns="http://www.w3.org/2000/svg" viewBox="0 0 30 30"><defs><style>.cls-1{fill:#97ccb4;}.cls-2{fill:#acdbc7;}.cls-3{fill:#525d7c;}.cls-4{fill:#5f698c;}.cls-5{fill:#f48a94;}.cls-6{fill:#e07383;}</style></defs><g id="Layer_2" data-name="Layer 2"><path class="cls-1" d="M15.41084,14.03l-.47.09-1.45.27-1.79-5.42a1.47629,1.47629,0,0,1,.35-1.48.0098.0098,0,0,1,.01-.01,1.3917,1.3917,0,0,1,.58-.36.364.364,0,0,1,.14-.02.45355.45355,0,0,1,.44.31Z"/><path class="cls-2" d="M14.94081,14.12l-1.45.27-1.79-5.42a1.47629,1.47629,0,0,1,.35-1.48.0098.0098,0,0,1,.01-.01,1.41614,1.41614,0,0,1,.18-.08.36438.36438,0,0,1,.14-.02.45346.45346,0,0,1,.44.31Z"/><path class="cls-3" d="M20.71083,17.25a2.68985,2.68985,0,0,0-2.71-2.31h-.01a2.79406,2.79406,0,0,1-2.27-1.18l-.01-.02a7.15451,7.15451,0,0,1-.84-1.21l-1.38,1.86c.01.03.01.06.02.08a12.57332,12.57332,0,0,0,1.01,2.89,5.626,5.626,0,0,0,1.75,2.26l.01-.01a2.64622,2.64622,0,0,0,2.13.66,2.679,2.679,0,0,0,1.89-1.21A2.63337,2.63337,0,0,0,20.71083,17.25Zm-2.46,1.82a1.44965,1.44965,0,0,1-.99-.22,1.48181,1.48181,0,0,1-.66-1.04,1.462,1.462,0,0,1,1.25995-1.66,1.26391,1.26391,0,0,1,.51.04,1.42605,1.42605,0,0,1,1.13,1.23A1.46492,1.46492,0,0,1,18.25081,19.07Z"/><path class="cls-4" d="M17.79085,15.32v-.01a2.49726,2.49726,0,0,1-2.01-.9,6.62355,6.62355,0,0,1-1.11-1.5l-1.16,1.56a12.57332,12.57332,0,0,0,1.01,2.89,5.626,5.626,0,0,0,1.75,2.26l.01-.01a2.64622,2.64622,0,0,0,2.13.66,2.679,2.679,0,0,0,1.89-1.21,2.66974,2.66974,0,0,0-2.50995-3.74Zm.46,3.75a1.44965,1.44965,0,0,1-.99-.22,1.48181,1.48181,0,0,1-.66-1.04,1.462,1.462,0,0,1,1.25995-1.66,1.26391,1.26391,0,0,1,.51.04,1.42605,1.42605,0,0,1,1.13,1.23A1.46492,1.46492,0,0,1,18.25081,19.07Z"/><path class="cls-1" d="M17.87081,8.65l-1.97,5.36-.43-.1-1.48-.33,2.42-6.55a.47086.47086,0,0,1,.21-.23.46483.46483,0,0,1,.23-.06.38816.38816,0,0,1,.15.02A1.47454,1.47454,0,0,1,17.87081,8.65Z"/><path class="cls-2" d="M17.40083,8.65l-1.93,5.26-1.48-.33,2.42-6.55a.47086.47086,0,0,1,.21-.23A1.46939,1.46939,0,0,1,17.40083,8.65Z"/><path class="cls-4" d="M15.72084,13.76l-.01-.02-.84-1.21-.29-.43s-1.45,2.57-3.2,2.3h-.01a2.67573,2.67573,0,0,0-.59,5.31,2.64227,2.64227,0,0,0,2.15-.58h.01a5.04539,5.04539,0,0,0,1.58-1.77,11.79412,11.79412,0,0,0,1.26-2.95c.05-.13.08-.26.12-.4Zm-3.04,3.55a1.459,1.459,0,0,1-.69995,1.02,1.42352,1.42352,0,0,1-1,.19,1.465,1.465,0,0,1-1.19-1.7,1.44556,1.44556,0,0,1,1.17-1.19,1.25138,1.25138,0,0,1,.51-.01A1.4744,1.4744,0,0,1,12.6808,17.31Z"/><path class="cls-1" d="M15.0508,14.28a.47621.47621,0,0,1-.41.54.36692.36692,0,0,1-.18-.01.48241.48241,0,0,1-.36-.4.47445.47445,0,0,1,.36-.52c.02-.01.03-.02.05-.02A.47785.47785,0,0,1,15.0508,14.28Z"/><path class="cls-2" d="M14.85085,14.28a.478.478,0,0,1-.39.53.48241.48241,0,0,1-.36-.4.47445.47445,0,0,1,.36-.52A.46673.46673,0,0,1,14.85085,14.28Z"/><path class="cls-5" d="M19.79451,15.59364l-.45325,5.285h-.11212L19.124,15.853c0-.24322-.147-.42968-.32-.42968s-.32867.18646-.34594.42968l-.33875,5.02558h-.23181L17.74025,15.853c-.0086-.24322-.1557-.42968-.32-.42968-.18158,0-.32861.18646-.34594.42968l-.30194,5.02558h-.23182L16.35646,15.853c-.00866-.24322-.15564-.42968-.32867-.42968-.173,0-.32.18646-.33728.42968l-.26514,5.02558H15.201L14.97273,15.853c-.00866-.24322-.16436-.42968-.32867-.42968a.40438.40438,0,0,0-.33734.42968l-.22827,5.02558h-.22437l-.2652-5.02558c-.0086-.24322-.1643-.42968-.32861-.42968-.18164,0-.32861.18646-.33728.42968l-.18414,5.02558H12.5071L12.20516,15.853a.40438.40438,0,0,0-.33735-.42968c-.173,0-.32.18646-.32861.42968l-.14734,5.02558H11.1675L10.82137,15.853c-.01734-.25134-.173-.42968-.33728-.42968a.38648.38648,0,0,0-.32868.42968l-.05188,2.51313-.05395,2.51245h-.109l-.20978-2.51245-.23462-2.77253a.4914.4914,0,0,0-.74017-.34051,1.34241,1.34241,0,0,0-.64978,1.13495v5.23706a1.47965,1.47965,0,0,0,1.55237,1.39435H19.623A1.486,1.486,0,0,0,21.17543,21.617V16.38808a1.34246,1.34246,0,0,0-.64984-1.13495A.48364.48364,0,0,0,19.79451,15.59364Z"/><path class="cls-6" d="M21.17015,20.38005v1.48a1.48035,1.48035,0,0,1-1.55,1.4h-9.96a1.47252,1.47252,0,0,1-1.55-1.39v-1.49a1.48033,1.48033,0,0,0,1.55,1.4h9.96A1.48033,1.48033,0,0,0,21.17015,20.38005Z"/></g></svg>