<svg xmlns="http://www.w3.org/2000/svg" viewBox="0 0 30 30"><defs><style>.cls-1{fill:#7c7c7c;}.cls-2{fill:#6dbacc;}.cls-3{fill:#7ec6dc;}.cls-4{fill:#4e5975;}.cls-5{fill:#5f6a8a;}.cls-6{fill:#fff;}.cls-7{fill:#e5b045;}.cls-8{fill:#fcc956;}.cls-9{fill:#1d3e51;}</style></defs><g id="Layer_2" data-name="Layer 2"><rect class="cls-1" x="18.12701" y="8.68602" width="2.20249" height="5.05054" rx="1.10124"/><path class="cls-2" d="M20.32659,9.78454v2.85323a1.105,1.105,0,0,1-1.10238,1.10238.45072.45072,0,0,1-.11116-.00927,1.10339,1.10339,0,0,1-.982-1.09311V9.78454a1.09529,1.09529,0,0,1,.81521-1.06535.95726.95726,0,0,1,.2779-.037A1.105,1.105,0,0,1,20.32659,9.78454Z"/><path class="cls-3" d="M19.956,9.8123v2.844a1.09627,1.09627,0,0,1-.843,1.07462,1.10339,1.10339,0,0,1-.982-1.09311V9.78454a1.09529,1.09529,0,0,1,.81521-1.06535A1.0865,1.0865,0,0,1,19.956,9.8123Z"/><path class="cls-3" d="M20.74721,16.79043H17.70929a.5894.5894,0,0,1-.51827-.7096l.29929-3.02014a.53829.53829,0,0,1,.52-.48537h2.4358a.53829.53829,0,0,1,.52.48537l.29929,3.02014A.5894.5894,0,0,1,20.74721,16.79043Z"/><path class="cls-4" d="M20.96579,16.18572a.50089.50089,0,0,1-.44464.60217H17.92727a.50055.50055,0,0,1-.43536-.60217l.25013-2.57527a.46651.46651,0,0,1,.44464-.41688H20.271a.4665.4665,0,0,1,.44464.41688Z"/><path class="cls-5" d="M20.66935,16.18572a.5063.5063,0,0,1-.44464.60217H17.92727a.50055.50055,0,0,1-.43536-.60217l.25013-2.57527a.46651.46651,0,0,1,.44464-.41688H19.9653a.45943.45943,0,0,1,.44469.41688Z"/><circle class="cls-6" cx="19.22825" cy="9.70922" r="0.47994"/><path class="cls-7" d="M22.8278,17.69571a4.95938,4.95938,0,0,1-1.00977.2779,16.18711,16.18711,0,0,1-4.48359-.07407c-.94491-.07413-1.88056-.12043-2.82541-.16674a4.70513,4.70513,0,0,0-1.25064.05558c-.4076.09261-.78739.29639-1.20426.4076a5.78448,5.78448,0,0,1-1.20427.13893c-.54659.01854-1.09311.03709-1.63969.03709a1.27328,1.27328,0,0,1-.528-.05564,1.06087,1.06087,0,0,1-.62065-1.07456.99678.99678,0,0,1,.11116-.22232A3.21359,3.21359,0,0,1,9.238,16.195c.90783-.51877,1.862-.97268,2.80687-1.42659.04631-.01855.09262-.04631.139-.06485a4.6787,4.6787,0,0,1,.77812-.30572,3.55008,3.55008,0,0,1,1.03753-.13892,3.927,3.927,0,0,1,1.30621.2408c.843.33354,1.6026,1.04681,2.50121.92637,0,0,3.10331.41688,3.99265,1.35252A3.72007,3.72007,0,0,0,22.8278,17.69571Z"/><path class="cls-8" d="M21.818,17.97361a16.18711,16.18711,0,0,1-4.48359-.07407c-.94491-.07413-1.88056-.12043-2.82541-.16674a4.70513,4.70513,0,0,0-1.25064.05558c-.4076.09261-.78739.29639-1.20426.4076a5.78448,5.78448,0,0,1-1.20427.13893c-.54659.01854-1.09311.03709-1.63969.03709a1.27328,1.27328,0,0,1-.528-.05564,1.06087,1.06087,0,0,1-.62065-1.07456.99678.99678,0,0,1,.11116-.22232A3.21359,3.21359,0,0,1,9.238,16.195c.90783-.51877,1.862-.97268,2.80687-1.42659.04631-.01855.09262-.04631.139-.06485a3.663,3.663,0,0,1,.89855-.10189,3.9269,3.9269,0,0,1,1.30621.24081c.843.33353,1.6026,1.0468,2.50115.92637,0,0,3.10337.41687,3.99265,1.35251A3.70375,3.70375,0,0,0,21.818,17.97361Z"/><path class="cls-2" d="M22.80926,18.6962l-.5095,1.35252c-.26862.72254-.81521,1.26912-1.24136,1.26912H8.94154a.44128.44128,0,0,1-.18529-.03709,2.02569,2.02569,0,0,1-1.05607-1.232L7.19069,18.6962c-.33348-.88933-.20383-1.66745.3242-1.66745H22.48505C23.01309,17.02875,23.14274,17.80687,22.80926,18.6962Z"/><path class="cls-3" d="M21.80876,18.66839l-.50949,1.35251c-.2779.71333-.82448,1.25985-1.25058,1.25985H8.75625a2.02569,2.02569,0,0,1-1.05607-1.232L7.19069,18.6962c-.33348-.88933-.20383-1.66745.3242-1.66745h14.1364C22.03114,17.17694,22.10521,17.881,21.80876,18.66839Z"/><path class="cls-4" d="M24.05989,17.20476a.7433.7433,0,0,1-.74114.74109H6.6812a.40762.40762,0,0,1-.14825-.01855.17284.17284,0,0,1-.06486-.01849.72812.72812,0,0,1-.528-.704.74141.74141,0,0,1,.74109-.73186H23.31875A.74146.74146,0,0,1,24.05989,17.20476Z"/><path class="cls-5" d="M23.09643,17.13991a.76763.76763,0,0,1-.75036.78739H6.53295a.17284.17284,0,0,1-.06486-.01849.72812.72812,0,0,1-.528-.704.74141.74141,0,0,1,.74109-.73186H22.75368A.79846.79846,0,0,1,23.09643,17.13991Z"/><path class="cls-9" d="M15.85616,19.72046l-.02621-.001.01576-.06116a.294.294,0,0,0-.02974-.23515.8494.8494,0,0,0-.05743-.08428l0-.00034a1.193,1.193,0,0,0-.08081-.6181.5083.5083,0,0,0-.44166.27057l-.0001,0c-.02337-.00657-.047-.01036-.07084-.0146l-.01944-.00407,0,.00007a.80834.80834,0,0,0-.14206-.013c-.01953-.00093-.039-.00093-.05949,0-.01394-.00093-.026-.00093-.04-.00093l-.0186.00093-.01487.00093a.72989.72989,0,0,0-.12724.01207l-.00007-.00036-.0156.00356c-.0249.00447-.05008.00847-.07551.0154l-.00011,0a.51257.51257,0,0,0-.44146-.271,1.192,1.192,0,0,0-.08052.61829l-.00025.0003a.8495.8495,0,0,0-.05763.08457.30173.30173,0,0,0-.02974.23515l.01566.06078-.026.00094a.038.038,0,0,0,.00139.076H14.035l.04584-.00166a.70544.70544,0,0,0,.07421.166l.00032.00052-.08758.02107a.038.038,0,0,0,.00886.075l.009-.001.11288-.02715.00022.00036a.93192.93192,0,0,0,.17754.185.87832.87832,0,0,0,.49353.18032.31639.31639,0,0,0,.04182.00185l.03253-.00092.03253.00092a.88025.88025,0,0,0,.53535-.18217.90645.90645,0,0,0,.17754-.185l0,0,.113.02721.00945.001a.03908.03908,0,0,0,.03673-.02939.03771.03771,0,0,0-.02834-.04617l-.08709-.021-.00037-.00009.00022-.00036a.705.705,0,0,0,.07436-.16637l0,0,.00028,0,.04512.00209h.0021a.03807.03807,0,0,0,.03778-.03672A.037.037,0,0,0,15.85616,19.72046Z"/></g></svg>