<svg xmlns="http://www.w3.org/2000/svg" viewBox="0 0 30 30"><defs><style>.cls-1{fill:#dd6f7f;}.cls-2{fill:#f48a94;}.cls-3{fill:#eab549;}.cls-4{fill:#fcc956;}.cls-5{fill:#5eb2bf;}.cls-6{fill:#6dbacc;}.cls-7{fill:#505b77;}.cls-8{fill:#5f6a8a;}</style></defs><g id="Layer_2" data-name="Layer 2"><rect class="cls-1" x="17.09497" y="21.03162" width="4.7789" height="0.80127"/><rect class="cls-2" x="17.09497" y="21.03162" width="4.7789" height="0.3958"/><rect class="cls-1" x="17.09497" y="18.80148" width="4.7789" height="0.80127"/><rect class="cls-2" x="17.09497" y="18.80148" width="4.7789" height="0.3958"/><rect class="cls-1" x="17.09497" y="16.56167" width="4.7789" height="0.80132"/><rect class="cls-2" x="17.09497" y="16.56167" width="4.7789" height="0.40546"/><rect class="cls-1" x="17.09497" y="14.33153" width="4.7789" height="0.80132"/><rect class="cls-2" x="17.09497" y="14.33153" width="4.7789" height="0.40546"/><rect class="cls-3" x="9.42944" y="12.10139" width="12.44442" height="0.80127"/><rect class="cls-4" x="8.71617" y="10.52529" width="1.43052" height="6.26063"/><path class="cls-5" d="M12.83744,16.48442V22.7018a.52742.52742,0,0,1-.531.52131H6.56214a.52134.52134,0,0,1-.531-.52131V16.48442a.54611.54611,0,0,1,.4248-.531.36108.36108,0,0,1,.10618-.00967h5.74433A.54413.54413,0,0,1,12.83744,16.48442Z"/><path class="cls-6" d="M12.123,16.49409v6.21738a.53846.53846,0,0,1-.39586.51164h-5.165a.52134.52134,0,0,1-.531-.52131V16.48442a.54611.54611,0,0,1,.4248-.531h5.136A.54414.54414,0,0,1,12.123,16.49409Z"/><path class="cls-7" d="M11.341,22.1515a1.8742,1.8742,0,0,1-.32828,1.07161H7.86545a1.82172,1.82172,0,0,1-.34754-1.07161,1.91091,1.91091,0,0,1,1.313-1.82468,1.80949,1.80949,0,0,1,.59856-.09652,1.9119,1.9119,0,0,1,1.9116,1.9212Z"/><path class="cls-8" d="M10.8004,22.24808a1.874,1.874,0,0,1-.27035.975H7.86545a1.82172,1.82172,0,0,1-.34754-1.07161,1.91091,1.91091,0,0,1,1.313-1.82468H8.8888a1.91955,1.91955,0,0,1,1.35163.56A1.95327,1.95327,0,0,1,10.8004,22.24808Z"/><path class="cls-7" d="M12.53816,10.52773a.62226.62226,0,0,1-.61789.61789h-4.972a.6243.6243,0,0,1-.6275-.61789.47535.47535,0,0,1,.0386-.20276.61456.61456,0,0,1,.5889-.4248h4.972a.6025.6025,0,0,1,.57924.4248A.47447.47447,0,0,1,12.53816,10.52773Z"/><rect class="cls-4" x="21.21975" y="7.40859" width="0.87734" height="15.81923"/><rect class="cls-4" x="16.87419" y="10.52529" width="0.87734" height="12.70252"/><path class="cls-7" d="M23.96884,7.226a.45746.45746,0,0,1-.46339.46339H19.80783a.4575.4575,0,0,1-.46339-.46339.46817.46817,0,0,1,.46339-.45378h3.69762a.46817.46817,0,0,1,.46339.45378Z"/><path class="cls-1" d="M19.62439,10.52773a.46346.46346,0,0,1-.46338.46339H15.46339A.4635.4635,0,0,1,15,10.52773a.46757.46757,0,0,1,.46339-.46339H19.161a.46757.46757,0,0,1,.46338.46339Z"/><rect class="cls-4" x="9.42944" y="12.10139" width="12.44442" height="0.3958"/><path class="cls-8" d="M12.49951,10.325a.6025.6025,0,0,1-.57924.42479h-4.972a.61457.61457,0,0,1-.5889-.42479.61456.61456,0,0,1,.5889-.4248h4.972A.6025.6025,0,0,1,12.49951,10.325Z"/><path class="cls-8" d="M23.92058,7.03287a.46276.46276,0,0,1-.41513.26063H19.80783a.46273.46273,0,0,1-.41513-.26063.442.442,0,0,1,.41513-.26068h3.69762A.442.442,0,0,1,23.92058,7.03287Z"/><path class="cls-2" d="M19.57613,10.325a.45205.45205,0,0,1-.41512.26068H15.46339a.45206.45206,0,0,1-.41513-.26068.45211.45211,0,0,1,.41513-.26063H19.161A.45209.45209,0,0,1,19.57613,10.325Z"/></g></svg>