<svg xmlns="http://www.w3.org/2000/svg" viewBox="0 0 30 30"><defs><style>.cls-1{fill:#d6a967;}.cls-2{fill:#e1ba77;}.cls-3{fill:#bf8e4f;}.cls-4{fill:#cea15f;}</style></defs><g id="Layer_2" data-name="Layer 2"><path class="cls-1" d="M18.88945,11.77079A2.09539,2.09539,0,0,1,16.94113,14.06H12.83076c-1.06841,0-2.426-.16852-2.43856-1.34821-.02516-2.52806,3.331-3.25832,4.87712-3.48308a4.12175,4.12175,0,0,0,1.70948-.82857,2.18705,2.18705,0,0,0,.38967-.37923.11049.11049,0,0,1,.20116.04218c.21367.71619.89241,2.233,1.00557,2.64036,0,.014,0,.014-.02516,0A2.33959,2.33959,0,0,1,18.88945,11.77079Z"/><path class="cls-2" d="M18.1903,11.77079A2.07961,2.07961,0,0,1,16.242,14.06H12.83552c-1.06841,0-2.426-.16852-2.43856-1.34821-.02516-2.52806,3.331-3.25832,4.87712-3.48308a4.12175,4.12175,0,0,0,1.70948-.82857c.27658.77243.79191,1.9522.89249,2.30331v.014A2.262,2.262,0,0,1,18.1903,11.77079Z"/><path class="cls-3" d="M22.1325,15.40834a3.54317,3.54317,0,0,1-.86732,2.35946,2.80734,2.80734,0,0,1-2.09923.96907H10.1157a3.16506,3.16506,0,0,1-2.96655-3.32853,3.54314,3.54314,0,0,1,.86732-2.35945,2.80734,2.80734,0,0,1,2.09923-.96907H19.166A3.16505,3.16505,0,0,1,22.1325,15.40834Z"/><path class="cls-4" d="M21.4411,15.40834a3.60749,3.60749,0,0,1-.86733,2.35946,2.81343,2.81343,0,0,1-2.11173.96907H10.1157a3.16506,3.16506,0,0,1-2.96655-3.32853,3.54314,3.54314,0,0,1,.86732-2.35945,2.80734,2.80734,0,0,1,2.09923-.96907H18.462A3.1665,3.1665,0,0,1,21.4411,15.40834Z"/><path class="cls-1" d="M23.64083,18.4419a3.3921,3.3921,0,0,1-.84217,2.26122,2.67906,2.67906,0,0,1-2.01115.9269H8.49414A3.03212,3.03212,0,0,1,5.64083,18.4419,3.35484,3.35484,0,0,1,6.483,16.19483a2.67906,2.67906,0,0,1,2.01115-.9269H20.78751A3.02788,3.02788,0,0,1,23.64083,18.4419Z"/><path class="cls-2" d="M22.93692,18.4419a3.38334,3.38334,0,0,1-.82958,2.26122,2.69939,2.69939,0,0,1-2.01115.9269H8.49414A3.03212,3.03212,0,0,1,5.64083,18.4419,3.35484,3.35484,0,0,1,6.483,16.19483a2.67906,2.67906,0,0,1,2.01115-.9269H20.09619A3.01805,3.01805,0,0,1,22.93692,18.4419Z"/><ellipse class="cls-3" cx="10.21625" cy="13.48428" rx="0.31132" ry="0.34784"/><ellipse class="cls-4" cx="12.25724" cy="10.80688" rx="0.3788" ry="0.42324"/><ellipse class="cls-4" cx="11.44169" cy="11.45498" rx="0.1894" ry="0.21162"/><ellipse class="cls-3" cx="9.19678" cy="13.13199" rx="0.56956" ry="0.63637"/></g></svg>