<?xml version="1.0" encoding="iso-8859-1"?>
<!-- Generator: Adobe Illustrator 19.0.1, SVG Export Plug-In . SVG Version: 6.00 Build 0)  -->
<svg version="1.1" xmlns="http://www.w3.org/2000/svg" xmlns:xlink="http://www.w3.org/1999/xlink" x="0px" y="0px"
	 viewBox="0 0 128 128" style="enable-background:new 0 0 128 128;" xml:space="preserve">
<g id="_x31_">
	<path id="icon_2_" style="fill:#231F20;" d="M111.217,77.284v3.437H89.389v-3.437H40.537v3.437H18.709v-3.437H0.596l16.797,32.568
		h93.214l16.797-32.568H111.217z M22.049,67.416v9.757h15.148v-9.757H22.049z M92.729,67.416v9.757h15.148v-9.757H92.729z
		 M89.389,69.661v4.158H40.537v-4.158H89.389z M111.217,73.819H128l-15.453-40.191H88.308v-4.393c0-6.112-4.324-11.087-9.632-11.087
		H49.323c-5.308,0-9.632,4.975-9.632,11.087v4.393H15.453L0,73.819h18.709v-4.158H6.042l12.265-31.875h91.385l12.265,31.875h-10.741
		V73.819z M82.765,33.628h-37.53v-4.393c0-2.993,1.871-5.544,4.088-5.544h29.353c2.217,0,4.088,2.55,4.088,5.544V33.628z
		 M100.726,62.788h-5.544V44.187h5.544V62.788z M86.867,62.788h-5.544V44.187h5.544V62.788z M73.008,62.788h-5.544V44.187h5.544
		V62.788z M59.149,62.788h-5.544V44.187h5.544V62.788z M45.291,62.788h-5.544V44.187h5.544V62.788z M31.432,62.788h-5.544V44.187
		h5.544V62.788z"/>
</g>
<g id="Layer_1">
</g>
</svg>
