<?xml version="1.0" encoding="iso-8859-1"?>
<!-- Generator: Adobe Illustrator 19.0.1, SVG Export Plug-In . SVG Version: 6.00 Build 0)  -->
<svg version="1.1" xmlns="http://www.w3.org/2000/svg" xmlns:xlink="http://www.w3.org/1999/xlink" x="0px" y="0px"
	 viewBox="0 0 128 128" style="enable-background:new 0 0 128 128;" xml:space="preserve">
<g id="_x31_0">
	<path id="icon_20_" style="fill:#231F20;" d="M25.584,128c-0.606,0-1.186-0.244-1.61-0.677L2.222,105.57
		c-0.022-0.021-0.043-0.043-0.065-0.065c-0.861-0.897-0.832-2.323,0.065-3.184c0.897-0.861,2.323-0.832,3.184,0.065l5.524,5.515
		l15.964-15.965c1.61,1.533,3.197,3.088,4.662,4.75c2.006,1.989,3.976,4.031,5.964,6.052l-15.885,15.885l5.523,5.515
		c0.433,0.423,0.677,1.003,0.677,1.608C27.835,126.991,26.827,127.999,25.584,128L25.584,128z M124.504,8.202l-22.743,22.743
		l0.225,0.225c0.865,0.882,0.865,2.318,0,3.182L88.565,47.774l4.756,4.756c0.865,0.882,0.865,2.3,0,3.182l-45.417,45.417
		l4.237,4.237c0.017,0,0.017,0.017,0.035,0.017c0.865,0.899,0.865,2.317-0.035,3.2c-0.882,0.865-2.3,0.847-3.182-0.035
		L20.993,80.582c-0.017-0.017-0.035-0.035-0.052-0.052c-0.865-0.899-0.847-2.318,0.052-3.182c0.899-0.865,2.318-0.847,3.182,0.052
		l4.237,4.237L73.83,36.22c0.882-0.882,2.3-0.882,3.182,0l4.756,4.756l13.421-13.421c0.865-0.882,2.3-0.882,3.182,0l0.208,0.208
		l27.638-27.638c0,0,0.052-0.035,0.069-0.069C127.185-0.791,124.504,8.202,124.504,8.202z M88.53,54.121l-13.11-13.127l-3.718,3.718
		l4.946,4.946c0.017,0.017,0.035,0.017,0.035,0.035c0.917,0.847,0.986,2.266,0.138,3.182c-0.847,0.917-2.266,0.969-3.182,0.138
		c-0.069-0.052-0.121-0.104-0.173-0.173l-4.946-4.946l-4.497,4.497l4.998,4.998c0,0.017,0.017,0.017,0.017,0.035
		c0.882,0.882,0.865,2.318-0.017,3.182c-0.882,0.882-2.317,0.865-3.182-0.017l-4.998-5.016l-4.151,4.168l5.016,5.016
		c0.882,0.899,0.865,2.317-0.017,3.182c-0.899,0.882-2.318,0.865-3.182-0.017l-5.016-4.998l-4.151,4.151l4.998,4.998
		c0.017,0.017,0.017,0.017,0.035,0.035c0.865,0.882,0.865,2.3-0.035,3.182c-0.882,0.865-2.3,0.847-3.182-0.035l-4.998-4.998
		l-4.497,4.514l4.998,4.981c0.017,0.017,0.035,0.035,0.035,0.052c0.882,0.899,0.847,2.318-0.035,3.182
		c-0.899,0.865-2.318,0.847-3.2-0.052l-4.981-4.981l-6.884,6.866l13.127,13.127L88.53,54.121z"/>
</g>
<g id="Layer_1">
</g>
</svg>
