<?xml version="1.0" encoding="iso-8859-1"?>
<!-- Generator: Adobe Illustrator 19.0.1, SVG Export Plug-In . SVG Version: 6.00 Build 0)  -->
<svg version="1.1" xmlns="http://www.w3.org/2000/svg" xmlns:xlink="http://www.w3.org/1999/xlink" x="0px" y="0px"
	 viewBox="0 0 128 128" style="enable-background:new 0 0 128 128;" xml:space="preserve">
<g id="_x31_2">
	<path id="icon_22_" style="fill:#231F20;" d="M65.534,52.128l-1.04,0.185c0.413,0,0.812,0.029,1.211,0.057
		C65.634,52.299,65.591,52.213,65.534,52.128z M96.811,74.118l-15.282,3.29c-0.741,0.157-1.567-0.057-2.051-0.527L65.791,62.525
		v44.807c0,0.484,0.285,0.94,0.755,1.225c0.47,0.299,1.097,0.399,1.681,0.285l37.087-7.691c0.826-0.157,1.467-0.812,1.467-1.495
		V71.968L96.811,74.118z M49.127,76.895c-0.484,0.456-1.31,0.669-2.037,0.513l-15.724-3.333L21.24,71.925v27.73
		c0,0.684,0.641,1.339,1.467,1.495l37.087,7.691c0.584,0.114,1.211,0.014,1.681-0.285c0.47-0.285,0.755-0.741,0.755-1.225V62.525
		L49.127,76.895z M127.589,61.841l-17.091-17.162l15.681-12.135c0.499-0.37,0.698-0.954,0.541-1.481
		c-0.157-0.513-0.669-0.94-1.31-1.111L82.226,19.185c-0.669-0.157-1.439-0.029-1.937,0.356l-15.88,12.291L48.315,19.541
		c-0.37-0.285-0.897-0.442-1.41-0.427c-0.171,0-0.342,0.029-0.498,0.071L2.639,29.952C1.984,30.109,1.457,30.55,1.3,31.077
		c-0.157,0.513,0.071,1.111,0.555,1.481l15.895,12.12L0.417,61.827C0.033,62.226-0.11,62.795,0.09,63.28
		c0.199,0.484,0.726,0.869,1.353,1.011l18.23,3.874L29.8,70.315l15.724,3.347c0.712,0.157,1.552-0.057,2.022-0.527l11.679-11.579
		l5.028-4.971l0.157-0.157L64.58,56.6l5.213,5.241l11.266,11.28c0.47,0.484,1.31,0.698,2.037,0.541l15.297-3.29l9.97-2.151
		l18.202-3.931c0.627-0.142,1.154-0.527,1.353-1.011C128.102,62.81,127.973,62.24,127.589,61.841z M70.662,48.04l0.413,0.855
		c0.313,0.655,0.541,1.353,0.641,2.079l-2.378,0.442c0.014-0.029,0.014-0.043,0.014-0.071c0-0.997-0.897-1.795-2.008-1.795
		c-1.111,0-2.008,0.798-2.008,1.795c0,0.285,0.071,0.541,0.199,0.783c0.057,0.085,0.1,0.171,0.171,0.242
		c-0.399-0.028-0.798-0.057-1.211-0.057l-0.057,0.014l-0.071-0.014h-0.043L62.116,51.9c0.085-0.171,0.114-0.356,0.114-0.555
		c0-0.997-0.897-1.795-2.008-1.795c-1.054,0-1.908,0.712-1.994,1.638l-1.951-0.356c0.114-0.627,0.299-1.225,0.555-1.809l0.384-0.84
		l-2.35-5.797l4.857,3.162l1.054-0.47c1.994-0.883,4.33-0.897,6.338-0.028l1.054,0.456l4.785-3.119L70.662,48.04z M75.917,50.191
		c-0.114-0.769-0.328-1.524-0.598-2.25l6.708-16.593l-14.328,9.357c-2.421-0.783-5.113-0.769-7.534,0.029l-14.385-9.4l6.808,16.806
		c-0.228,0.627-0.399,1.268-0.527,1.923l-30.493-5.597l22.932-4.892l-2.764-13.858l16.854,10.168l5.849-0.562l5.894,0.227
		l15.954-11.341l-3.682,15.04l24.177,5.218L75.917,50.191z"/>
</g>
<g id="Layer_1">
</g>
</svg>
