<?xml version="1.0" encoding="iso-8859-1"?>
<!-- Generator: Adobe Illustrator 19.0.1, SVG Export Plug-In . SVG Version: 6.00 Build 0)  -->
<svg version="1.1" xmlns="http://www.w3.org/2000/svg" xmlns:xlink="http://www.w3.org/1999/xlink" x="0px" y="0px"
	 viewBox="0 0 128 128" style="enable-background:new 0 0 128 128;" xml:space="preserve">
<g id="_x31_3">
	<path id="icon_10_" style="fill:#231F20;" d="M63.999,127.969c-16.388,0-32.777-6.238-45.254-18.715l0,0
		C6.657,97.165,0,81.094,0,63.999s6.657-33.166,18.745-45.253c24.952-24.953,65.556-24.953,90.509,0
		C121.343,30.833,128,46.904,128,63.999s-6.657,33.166-18.746,45.255C96.777,121.731,80.388,127.969,63.999,127.969z
		 M22.958,105.041c10.991,10.991,25.329,16.643,39.762,16.958L5.973,65.252C6.289,80.285,12.292,94.374,22.958,105.041
		L22.958,105.041z M6.351,57.202l64.418,64.418c5.327-0.621,10.581-1.975,15.602-4.064l-75.952-75.95
		C8.35,46.555,6.977,51.794,6.351,57.202z M13.168,35.929l78.888,78.887c4.048-2.233,7.883-4.983,11.408-8.256L21.438,24.536
		C18.196,28.028,15.428,31.851,13.168,35.929z M96.863,91.532l10.758,10.758c8.799-9.996,13.831-22.54,14.372-35.886L96.863,91.532z
		 M82.817,77.486l9.833,9.833l29.108-29.108c-0.539-5.476-1.841-10.789-3.852-15.813L82.817,77.486z M68.771,63.44l9.833,9.833
		l36.621-36.621c-2.207-4.124-4.929-7.994-8.132-11.534L68.771,63.44z M54.725,49.394l9.833,9.833l38.322-38.322
		c-3.575-3.228-7.458-5.934-11.549-8.114L54.725,49.394z M40.681,35.35l9.831,9.831L85.575,10.12
		C80.479,8.087,75.149,6.805,69.76,6.271L40.681,35.35z M25.71,20.379l10.758,10.758L61.567,6.037
		C48.7,6.572,35.979,11.352,25.71,20.379z"/>
</g>
<g id="Layer_1">
</g>
</svg>
