<?xml version="1.0" encoding="iso-8859-1"?>
<!-- Generator: Adobe Illustrator 19.0.1, SVG Export Plug-In . SVG Version: 6.00 Build 0)  -->
<svg version="1.1" xmlns="http://www.w3.org/2000/svg" xmlns:xlink="http://www.w3.org/1999/xlink" x="0px" y="0px"
	 viewBox="0 0 128 128" style="enable-background:new 0 0 128 128;" xml:space="preserve">
<g id="_x31_4">
	<path id="icon_24_" style="fill:#231F20;" d="M93.384,10.329h-0.134V3.337C93.251,1.494,91.757,0,89.914,0H38.887
		c-1.843,0-3.337,1.494-3.337,3.337v6.992l0,0L17.379,40.464V128h93.243V40.497L93.384,10.329z M56.057,122.994H22.385V41.849
		l15.418-25.713l18.255,25.814V122.994z M43.376,15.335h47.105l13.182,23.077H59.678L43.376,15.335z M105.615,97.03H61.063V68.714
		h44.552V97.03z M71.412,80.179c0-2.933-0.339-4.232-1.92-4.232c-1.889,0-2.058,1.806-2.058,7.082c0,5.98,0.197,7.532,2.172,7.532
		c1.748,0,1.946-2.003,1.975-5.133h4.569v0.704c0,4.344-1.212,7.589-7.08,7.589c-6.065,0-6.546-4.541-6.546-10.607
		c0-5.162,0.282-10.325,6.997-10.325c4.175,0,6.459,1.806,6.459,6.544v0.846H71.412z M81.846,73.183h5.923l5.022,20.142h-4.91
		l-0.733-3.838h-4.823l-0.706,3.838h-4.908L81.846,73.183z M84.722,76.85h-0.055l-1.665,8.972h3.442L84.722,76.85z M95.692,77.019
		H91.46v-3.836h13.202v3.836h-4.232v16.307h-4.739V77.019z"/>
</g>
<g id="Layer_1">
</g>
</svg>
