<?xml version="1.0" encoding="iso-8859-1"?>
<!-- Generator: Adobe Illustrator 19.0.1, SVG Export Plug-In . SVG Version: 6.00 Build 0)  -->
<svg version="1.1" xmlns="http://www.w3.org/2000/svg" xmlns:xlink="http://www.w3.org/1999/xlink" x="0px" y="0px"
	 viewBox="0 0 128 128" style="enable-background:new 0 0 128 128;" xml:space="preserve">
<g id="_x31_5">
	<path id="icon_12_" style="fill:#231F20;" d="M64,0c-1.885,0-3.771,0.586-5.37,1.756l-4.514,3.304
		c-1.567,1.146-3.456,1.762-5.397,1.755l-5.593-0.023c-3.962-0.013-7.478,2.541-8.69,6.313l-1.712,5.326
		c-0.594,1.848-1.762,3.46-3.336,4.596l-4.535,3.271c-3.213,2.318-4.552,6.446-3.315,10.211l1.745,5.316
		c0.606,1.844,0.606,3.831,0,5.675l-1.745,5.316c-1.237,3.763,0.102,7.893,3.315,10.211l4.535,3.271
		c1.574,1.136,2.743,2.748,3.336,4.596l1.712,5.326c1.211,3.772,4.728,6.326,8.69,6.313l5.593-0.023
		c1.941-0.007,3.83,0.609,5.397,1.755l4.514,3.304c3.197,2.339,7.542,2.339,10.74,0l4.514-3.304
		c1.566-1.146,3.456-1.762,5.397-1.755l5.593,0.023c3.962,0.013,7.479-2.541,8.69-6.313l1.706-5.326
		c0.593-1.848,1.767-3.46,3.342-4.596l4.535-3.271c3.213-2.318,4.552-6.447,3.315-10.211l-1.745-5.316
		c-0.606-1.844-0.606-3.831,0-5.675l1.745-5.316c1.237-3.764-0.102-7.893-3.315-10.211l-4.535-3.271
		c-1.575-1.136-2.748-2.748-3.342-4.596l-1.706-5.326c-1.212-3.772-4.728-6.326-8.69-6.313l-5.593,0.023
		c-1.941,0.007-3.83-0.609-5.397-1.755L69.37,1.756C67.771,0.586,65.885,0,64,0L64,0z M64,10.682
		c18.73,0,33.978,15.248,33.978,33.977S82.73,78.643,64,78.643c-18.73,0-33.977-15.253-33.977-33.984
		C30.022,25.93,45.27,10.682,64,10.682z M36.371,84.214l-18.145,42.839l22.074-5.901L54.241,128l4.134-36.496
		c-1.28-0.623-2.484-1.404-3.566-2.264c-0.124-0.125-0.25-0.251-0.379-0.371c-0.013-0.013-0.026-0.027-0.04-0.039
		c-1.929-1.772-4.459-2.911-7.116-2.84C43.619,86.452,39.544,86.116,36.371,84.214L36.371,84.214z M91.629,84.221
		c-3.856,2.694-8.81,1.498-13.183,1.996c-3.357,0.88-5.786,3.71-8.82,5.333L73.759,128l14.11-7.743l21.905,6.796L91.629,84.221z
		 M77.11,55.037c0,4.377-3.579,7.929-7.992,7.929c-1.943,0-3.729-0.69-5.113-1.832c-1.377,1.142-3.162,1.832-5.113,1.832
		c-4.421,0-8-3.552-8-7.929c0-3.544,2.352-6.557,5.601-7.564c0.59-3.798,3.902-6.708,7.906-6.708c4.098,0,7.481,3.069,7.937,7.017
		C75.143,49.003,77.11,51.794,77.11,55.037z M44.19,38.537c-1.364,1.188-0.524,4.028,1.876,6.343s5.453,3.229,6.817,2.041
		c1.364-1.188,0.524-4.028-1.876-6.343C48.606,38.263,45.554,37.349,44.19,38.537z M60.102,31.524
		c2.149,3.398,2.196,7.053,0.106,8.162c-2.09,1.11-5.526-0.746-7.675-4.144c-2.149-3.398-2.196-7.053-0.106-8.162
		C54.517,26.27,57.953,28.126,60.102,31.524z M76.993,39.821c-2.401,2.315-3.241,5.155-1.876,6.343
		c1.364,1.188,4.417,0.274,6.817-2.041c2.401-2.315,3.241-5.155,1.876-6.343C82.446,36.592,79.394,37.506,76.993,39.821z
		 M75.573,26.623c2.09,1.11,2.042,4.764-0.106,8.162c-2.149,3.398-5.585,5.254-7.675,4.144c-2.09-1.11-2.042-4.764,0.106-8.162
		S73.483,25.513,75.573,26.623z M64,75.591c-17.054,0-30.929-13.875-30.929-30.929S46.946,13.734,64,13.734
		s30.929,13.875,30.929,30.929S81.054,75.591,64,75.591z M64,19.227c-14.025,0-25.436,11.411-25.436,25.436S49.975,70.098,64,70.098
		s25.436-11.411,25.436-25.436S78.025,19.227,64,19.227z"/>
</g>
<g id="Layer_1">
</g>
</svg>
