<?xml version="1.0" encoding="iso-8859-1"?>
<!-- Generator: Adobe Illustrator 19.0.1, SVG Export Plug-In . SVG Version: 6.00 Build 0)  -->
<svg version="1.1" xmlns="http://www.w3.org/2000/svg" xmlns:xlink="http://www.w3.org/1999/xlink" x="0px" y="0px"
	 viewBox="0 0 128 128" style="enable-background:new 0 0 128 128;" xml:space="preserve">
<g id="_x32_">
	<path id="icon_13_" style="fill:#231F20;" d="M104.999,96.536c0,13.688-11.194,24.798-24.996,24.798
		c-6.077,0-11.661-2.157-15.991-5.728c-4.305,3.571-9.89,5.728-15.991,5.728c-13.826,0-25.02-11.109-25.02-24.798
		c0-11.085,7.356-20.508,17.517-23.657c1.845-11.878,12.203-20.979,24.725-20.979c12.818,0,23.396,9.597,24.823,21.946
		C98.849,77.665,104.999,86.394,104.999,96.536z M2.045,44.932c-4.267,3.715-1.64,12.597,5.868,19.838s17.054,10.099,21.321,6.384
		s1.64-12.597-5.868-19.838S6.312,41.217,2.045,44.932z M51.809,23.001c6.72,10.628,6.869,22.057,0.333,25.526
		c-6.536,3.47-17.282-2.333-24.002-12.961S21.271,13.51,27.807,10.04S45.09,12.373,51.809,23.001z M104.634,48.948
		c-7.508,7.241-10.135,16.123-5.868,19.838c4.267,3.715,13.813,0.857,21.321-6.384s10.135-16.123,5.868-19.838
		C121.688,38.849,112.142,41.707,104.634,48.948z M100.193,7.671c6.536,3.47,6.387,14.898-0.333,25.526
		c-6.72,10.628-17.466,16.431-24.002,12.961c-6.536-3.47-6.387-14.898,0.333-25.526C82.91,10.004,93.657,4.201,100.193,7.671z"/>
</g>
<g id="Layer_1">
</g>
</svg>
