<?xml version="1.0" encoding="iso-8859-1"?>
<!-- Generator: Adobe Illustrator 19.0.1, SVG Export Plug-In . SVG Version: 6.00 Build 0)  -->
<svg version="1.1" xmlns="http://www.w3.org/2000/svg" xmlns:xlink="http://www.w3.org/1999/xlink" x="0px" y="0px"
	 viewBox="0 0 128 128" style="enable-background:new 0 0 128 128;" xml:space="preserve">
<g id="_x34_">
	<path id="icon_16_" style="fill:#231F20;" d="M111.242,37.666c-2.139-10.167-25.44-15.625-47.433-15.625
		c-22.759,0-46.939,5.857-47.593,16.71L0,85.275v0.399c0,13.183,32.974,20.285,64,20.285s64-7.102,64-20.285v-0.415L111.242,37.666z
		 M106.23,40.602c-0.096,0.207-0.239,0.415-0.399,0.638c-0.144,0.192-0.287,0.383-0.479,0.591c-0.144,0.176-0.319,0.335-0.511,0.511
		c-0.16,0.16-0.335,0.319-0.527,0.463c-2.394,2.027-6.655,3.958-12.353,5.458c-0.016,0.016-0.016,0.016-0.032,0.016
		c-0.878,0.239-1.788,0.463-2.745,0.67c-0.543,0.128-1.101,0.255-1.676,0.367c-0.654,0.144-1.325,0.271-2.011,0.399
		c-0.782,0.16-1.58,0.287-2.41,0.415c-0.463,0.08-0.926,0.144-1.404,0.207c-2.362,0.351-4.836,0.622-7.453,0.814
		c-0.654,0.064-1.325,0.112-1.995,0.144c-0.67,0.048-1.357,0.08-2.043,0.112c-2.059,0.096-4.198,0.144-6.384,0.144
		c-4.501,0-8.762-0.207-12.72-0.591c-0.575-0.048-1.149-0.112-1.708-0.192c-0.638-0.064-1.277-0.128-1.883-0.223
		c-2.49-0.303-4.804-0.686-6.975-1.149c-3.591-0.718-6.767-1.596-9.464-2.57c-0.415-0.144-0.814-0.287-1.197-0.447
		c-0.016-0.016-0.032-0.016-0.048-0.016c-0.399-0.16-0.798-0.319-1.165-0.495c-0.383-0.144-0.766-0.319-1.117-0.495
		c-0.351-0.16-0.702-0.319-1.021-0.511c-0.335-0.16-0.638-0.335-0.942-0.511c-0.67-0.383-1.277-0.782-1.803-1.181
		c-0.176-0.128-0.351-0.255-0.511-0.399h-0.016c-0.207-0.176-0.415-0.351-0.575-0.527c-0.239-0.223-0.447-0.447-0.638-0.67
		c-0.239-0.287-0.447-0.575-0.591-0.862c-0.096-0.176-0.176-0.335-0.239-0.511c-0.016-0.016-0.016-0.048-0.032-0.064
		c-0.112-0.319-0.176-0.638-0.176-0.942c0-5.171,16.295-12.369,42.821-12.369s42.805,7.198,42.805,12.369
		C106.614,39.645,106.486,40.124,106.23,40.602z"/>
</g>
<g id="Layer_1">
</g>
</svg>
