<?xml version="1.0" encoding="iso-8859-1"?>
<!-- Generator: Adobe Illustrator 19.0.1, SVG Export Plug-In . SVG Version: 6.00 Build 0)  -->
<svg version="1.1" xmlns="http://www.w3.org/2000/svg" xmlns:xlink="http://www.w3.org/1999/xlink" x="0px" y="0px"
	 viewBox="0 0 128 128" style="enable-background:new 0 0 128 128;" xml:space="preserve">
<g id="_x35_">
	<path id="icon" style="fill:#231F20;" d="M127.959,84.018l-4.843-19.712c-0.052-0.208-0.052-0.417,0-0.625l4.817-19.569
		c0.378-1.562-1.966-2.448-3.008-1.133l-15.077,19.074h-5.833V51.872h-3.906v10.182h-6.588V48.526h-3.906v13.528h-6.601V46.052
		h-3.906v16.001h-6.601V44.008h-3.906v18.046h-6.588V42.315h-3.906v19.738h-6.601V39.842h-3.906v22.212h-8.919V39.842
		C21.965,39.842,0,57.705,0,64.007c0,6.302,21.965,24.152,38.682,24.152V65.959h8.919v22.199h3.906V65.959h6.601v19.282h3.906
		V65.959h6.588v17.993h3.906V65.959h6.601v15.793h3.906V65.959h6.601v13.384h3.906V65.959h6.588v10.012h3.906V65.959h5.703
		l15.233,19.191C125.993,86.466,128.337,85.58,127.959,84.018z M26.704,57.575c-2.317,0-4.205-1.888-4.205-4.205
		c0-2.318,1.888-4.192,4.205-4.192c2.318,0,4.205,1.875,4.205,4.192C30.909,55.687,29.021,57.575,26.704,57.575z"/>
</g>
<g id="Layer_1">
</g>
</svg>
