<?xml version="1.0" encoding="iso-8859-1"?>
<!-- Generator: Adobe Illustrator 19.0.1, SVG Export Plug-In . SVG Version: 6.00 Build 0)  -->
<svg version="1.1" xmlns="http://www.w3.org/2000/svg" xmlns:xlink="http://www.w3.org/1999/xlink" x="0px" y="0px"
	 viewBox="0 0 128 128" style="enable-background:new 0 0 128 128;" xml:space="preserve">
<g id="_x36_">
	<path id="icon_18_" style="fill:#231F20;" d="M55.956,76.232c-2.008,0-3.635,2.531-3.635,2.531s1.627,2.551,3.635,2.551
		c2.029,0,3.655-2.551,3.655-2.551S57.985,76.232,55.956,76.232z M63.99,85.712c-2.089,0-3.776,1.707-3.776,3.816
		c0,2.069,1.687-0.321,3.776-0.321c2.109,0,3.796,2.39,3.796,0.321C67.786,87.419,66.099,85.712,63.99,85.712z M72.024,76.232
		c-2.008,0-3.635,2.531-3.635,2.531s1.627,2.551,3.635,2.551c2.029,0,3.655-2.551,3.655-2.551S74.052,76.232,72.024,76.232z
		 M92.137,30.539c-2.79,0-5.043,1.02-5.043,2.284c0,1.239,2.253,2.26,5.043,2.26c2.764,0,5.017-1.02,5.017-2.26
		C97.154,31.56,94.902,30.539,92.137,30.539z M72.024,76.232c-2.008,0-3.635,2.531-3.635,2.531s1.627,2.551,3.635,2.551
		c2.029,0,3.655-2.551,3.655-2.551S74.052,76.232,72.024,76.232z M63.99,85.712c-2.089,0-3.776,1.707-3.776,3.816
		c0,2.069,1.687-0.321,3.776-0.321c2.109,0,3.796,2.39,3.796,0.321C67.786,87.419,66.099,85.712,63.99,85.712z M55.956,76.232
		c-2.008,0-3.635,2.531-3.635,2.531s1.627,2.551,3.635,2.551c2.029,0,3.655-2.551,3.655-2.551S57.985,76.232,55.956,76.232z
		 M55.956,76.232c-2.008,0-3.635,2.531-3.635,2.531s1.627,2.551,3.635,2.551c2.029,0,3.655-2.551,3.655-2.551
		S57.985,76.232,55.956,76.232z M63.99,85.712c-2.089,0-3.776,1.707-3.776,3.816c0,2.069,1.687-0.321,3.776-0.321
		c2.109,0,3.796,2.39,3.796,0.321C67.786,87.419,66.099,85.712,63.99,85.712z M72.024,76.232c-2.008,0-3.635,2.531-3.635,2.531
		s1.627,2.551,3.635,2.551c2.029,0,3.655-2.551,3.655-2.551S74.052,76.232,72.024,76.232z M63.99,20.617
		c-27.777,0-50.312,5.483-50.312,12.252c0,6.769,22.535,12.252,50.312,12.252c27.797,0,50.332-5.483,50.332-12.252
		C114.322,26.1,91.787,20.617,63.99,20.617z M92.137,37.562c-4.019,0-7.5-0.996-9.292-2.478h-7.357c-1.253,0-2.27-1.016-2.27-2.27
		v-0.005c0-1.253,1.016-2.27,2.27-2.27h7.357c1.792-1.482,5.273-2.478,9.292-2.478c5.836,0,10.546,2.114,10.546,4.763
		C102.683,35.448,97.973,37.562,92.137,37.562z M72.024,76.232c-2.008,0-3.635,2.531-3.635,2.531s1.627,2.551,3.635,2.551
		c2.029,0,3.655-2.551,3.655-2.551S74.052,76.232,72.024,76.232z M63.99,85.712c-2.089,0-3.776,1.707-3.776,3.816
		c0,2.069,1.687-0.321,3.776-0.321c2.109,0,3.796,2.39,3.796,0.321C67.786,87.419,66.099,85.712,63.99,85.712z M55.956,76.232
		c-2.008,0-3.635,2.531-3.635,2.531s1.627,2.551,3.635,2.551c2.029,0,3.655-2.551,3.655-2.551S57.985,76.232,55.956,76.232z
		 M127.98,33.572v-1.386c-0.04-0.482-0.1-0.944-0.201-1.366c-2.932-13.457-34.244-20.727-63.769-20.727
		c-29.464,0-60.676,7.21-63.749,20.587C0.08,31.402,0,32.125,0,32.869v62.263c0,14.782,32.979,22.776,63.99,22.776
		c31.031,0,64.01-7.994,64.01-22.776V37.89L127.98,33.572z M63.99,99.329c-10.946,0-19.824-7.753-19.824-17.313
		c0-2.912,0.824-5.644,2.27-8.054c-2.049-3.334-2.008-10.384-2.008-10.384s6.708-1.506,11.509,2.611
		c2.471-0.984,5.182-1.506,8.054-1.506s5.604,0.522,8.074,1.506c4.8-4.117,11.509-2.611,11.509-2.611s0.04,7.05-2.008,10.384
		c1.446,2.41,2.27,5.142,2.27,8.054C83.834,91.576,74.956,99.329,63.99,99.329z M76.804,49.178c-0.944,0.08-1.928,0.14-2.912,0.201
		h-0.161c-1.828,0.1-3.696,0.141-5.644,0.181h-0.141c-0.623,0.04-1.245,0.04-1.888,0.04c-0.683,0.02-1.366,0.02-2.069,0.02
		c-0.703,0-1.386,0-2.069-0.02c-0.623,0-1.225,0-1.828-0.04h-0.201c-1.928-0.04-3.816-0.08-5.624-0.181h-0.181
		C24.061,47.772,6.025,39.215,6.025,32.869c0-6.969,22.053-16.751,57.985-16.751c35.912,0,57.965,9.781,57.965,16.751
		C121.975,38.995,105.083,47.229,76.804,49.178z M72.024,76.232c-2.008,0-3.635,2.531-3.635,2.531s1.627,2.551,3.635,2.551
		c2.029,0,3.655-2.551,3.655-2.551S74.052,76.232,72.024,76.232z M63.99,85.712c-2.089,0-3.776,1.707-3.776,3.816
		c0,2.069,1.687-0.321,3.776-0.321c2.109,0,3.796,2.39,3.796,0.321C67.786,87.419,66.099,85.712,63.99,85.712z M55.956,76.232
		c-2.008,0-3.635,2.531-3.635,2.531s1.627,2.551,3.635,2.551c2.029,0,3.655-2.551,3.655-2.551S57.985,76.232,55.956,76.232z
		 M55.956,76.232c-2.008,0-3.635,2.531-3.635,2.531s1.627,2.551,3.635,2.551c2.029,0,3.655-2.551,3.655-2.551
		S57.985,76.232,55.956,76.232z M63.99,85.712c-2.089,0-3.776,1.707-3.776,3.816c0,2.069,1.687-0.321,3.776-0.321
		c2.109,0,3.796,2.39,3.796,0.321C67.786,87.419,66.099,85.712,63.99,85.712z M72.024,76.232c-2.008,0-3.635,2.531-3.635,2.531
		s1.627,2.551,3.635,2.551c2.029,0,3.655-2.551,3.655-2.551S74.052,76.232,72.024,76.232z M72.024,76.232
		c-2.008,0-3.635,2.531-3.635,2.531s1.627,2.551,3.635,2.551c2.029,0,3.655-2.551,3.655-2.551S74.052,76.232,72.024,76.232z
		 M63.99,85.712c-2.089,0-3.776,1.707-3.776,3.816c0,2.069,1.687-0.321,3.776-0.321c2.109,0,3.796,2.39,3.796,0.321
		C67.786,87.419,66.099,85.712,63.99,85.712z M55.956,76.232c-2.008,0-3.635,2.531-3.635,2.531s1.627,2.551,3.635,2.551
		c2.029,0,3.655-2.551,3.655-2.551S57.985,76.232,55.956,76.232z M55.956,76.232c-2.008,0-3.635,2.531-3.635,2.531
		s1.627,2.551,3.635,2.551c2.029,0,3.655-2.551,3.655-2.551S57.985,76.232,55.956,76.232z M63.99,85.712
		c-2.089,0-3.776,1.707-3.776,3.816c0,2.069,1.687-0.321,3.776-0.321c2.109,0,3.796,2.39,3.796,0.321
		C67.786,87.419,66.099,85.712,63.99,85.712z M72.024,76.232c-2.008,0-3.635,2.531-3.635,2.531s1.627,2.551,3.635,2.551
		c2.029,0,3.655-2.551,3.655-2.551S74.052,76.232,72.024,76.232z M55.956,76.232c-2.008,0-3.635,2.531-3.635,2.531
		s1.627,2.551,3.635,2.551c2.029,0,3.655-2.551,3.655-2.551S57.985,76.232,55.956,76.232z M63.99,85.712
		c-2.089,0-3.776,1.707-3.776,3.816c0,2.069,1.687-0.321,3.776-0.321c2.109,0,3.796,2.39,3.796,0.321
		C67.786,87.419,66.099,85.712,63.99,85.712z M72.024,76.232c-2.008,0-3.635,2.531-3.635,2.531s1.627,2.551,3.635,2.551
		c2.029,0,3.655-2.551,3.655-2.551S74.052,76.232,72.024,76.232z"/>
</g>
<g id="Layer_1">
</g>
</svg>
