<?xml version="1.0" encoding="iso-8859-1"?>
<!-- Generator: Adobe Illustrator 19.0.1, SVG Export Plug-In . SVG Version: 6.00 Build 0)  -->
<svg version="1.1" xmlns="http://www.w3.org/2000/svg" xmlns:xlink="http://www.w3.org/1999/xlink" x="0px" y="0px"
	 viewBox="0 0 128 128" style="enable-background:new 0 0 128 128;" xml:space="preserve">
<g id="_x37_">
	<path style="fill:#231F20;" d="M117.278,111.925c0,4.428-1.8,8.433-4.722,11.354c-2.921,2.921-6.926,4.722-11.354,4.722l-73.833,0
		c-8.963,0-16.766-7.332-16.646-16.294c0.058-4.341,1.847-8.262,4.72-11.135c2.811-2.811,6.614-4.575,10.821-4.703
		c-2.535-2.609-4.115-6.173-4.115-10.086c0-3.987,1.635-7.606,4.262-10.233c2.627-2.627,6.246-4.262,10.233-4.262h11.684
		c4.63-7.757,8.96-16.486,10.138-23.544c0.473-2.836,3.694-4.321,6.021-2.634c10.679,7.741,15.59,17.595,17.755,26.177h8.626
		c7.108,0,13.516,4.912,14.753,11.911c0.868,4.909-0.803,9.497-3.887,12.67C110.334,96.143,117.278,103.272,117.278,111.925z
		 M40.798,50.309c1.098-1.201,1.635-2.67,1.553-4.248c-0.199-3.807-3.889-7.085-8.163-10.88c-2.619-2.325-5.327-4.73-6.475-6.697
		c-0.745-1.276-0.953-2.27-0.615-2.954c0.918-1.87,5.263-3.246,7.91-3.588l-0.418-3.296l0.412,3.296l-0.824-6.592
		c-1.032,0.129-10.165,1.427-13.034,7.233c-0.956,1.933-1.586,5.109,0.833,9.251c1.683,2.882,4.792,5.643,7.801,8.314
		c1.964,1.744,5.147,4.572,5.828,5.982c-2.642,2.63-5.848,2.486-5.949,2.489l-0.526,6.622c0.043,0.004,0.239,0.017,0.558,0.017
		C31.396,55.258,36.638,54.859,40.798,50.309z M70.037,34.959c1.096-1.201,1.634-2.67,1.552-4.248
		c-0.199-3.807-3.891-7.086-8.164-10.881c-2.619-2.325-5.327-4.729-6.475-6.696c-0.745-1.275-0.952-2.27-0.615-2.954
		c0.919-1.87,5.264-3.246,7.911-3.588L63.415,0C62.383,0.129,53.248,1.427,50.38,7.233c-0.955,1.933-1.586,5.108,0.833,9.252
		c1.684,2.881,4.793,5.642,7.801,8.313c1.964,1.743,5.148,4.571,5.829,5.982c-2.642,2.631-5.846,2.492-5.95,2.489l-0.526,6.622
		c0.043,0.004,0.239,0.017,0.558,0.017C60.633,39.908,65.876,39.509,70.037,34.959z M101.222,49.03
		c1.098-1.201,1.635-2.67,1.553-4.248c-0.199-3.807-3.889-7.085-8.163-10.88c-2.619-2.325-5.327-4.73-6.475-6.697
		c-0.745-1.276-0.953-2.27-0.615-2.954c0.919-1.87,5.264-3.246,7.911-3.588l-0.83-6.592c-1.032,0.129-10.167,1.427-13.035,7.233
		c-0.956,1.934-1.586,5.109,0.833,9.251c1.683,2.882,4.792,5.643,7.801,8.314c1.964,1.744,5.147,4.572,5.828,5.982
		c-2.643,2.631-5.849,2.494-5.949,2.489l-0.526,6.622c0.043,0.004,0.239,0.017,0.558,0.017C91.82,53.979,97.062,53.58,101.222,49.03
		z"/>
</g>
<g id="Layer_1">
</g>
</svg>
