<?xml version="1.0" encoding="iso-8859-1"?>
<!-- Generator: Adobe Illustrator 19.0.1, SVG Export Plug-In . SVG Version: 6.00 Build 0)  -->
<svg version="1.1" xmlns="http://www.w3.org/2000/svg" xmlns:xlink="http://www.w3.org/1999/xlink" x="0px" y="0px"
	 viewBox="0 0 128 128" style="enable-background:new 0 0 128 128;" xml:space="preserve">
<g id="_x38_">
	<g>
		<path style="fill:#231F20;" d="M50.441,31.516c-3.439-3.345-8.137-5.412-13.324-5.412c-10.543,0-19.113,8.551-19.113,19.113
			c0,0.827,0.056,1.635,0.15,2.424c-3.571-3.477-5.788-8.325-5.788-13.7c0-10.562,8.57-19.113,19.113-19.113
			C41.213,14.828,49.257,22.101,50.441,31.516z"/>
	</g>
	<g>
		<path style="fill:#231F20;" d="M78.142,31.516c3.439-3.345,8.137-5.412,13.324-5.412c10.543,0,19.113,8.551,19.113,19.113
			c0,0.827-0.056,1.635-0.15,2.424c3.571-3.477,5.788-8.325,5.788-13.7c0-10.562-8.57-19.113-19.113-19.113
			C87.369,14.828,79.326,22.101,78.142,31.516z"/>
	</g>
	<g>
		<path style="fill:#231F20;" d="M89.906,108.154c-7.292,10.9-16.745,17.402-25.69,17.402c-8.833,0-18.154-6.352-25.427-17.008
			h6.784c3.026,3.947,6.39,7.029,9.96,8.983c-0.263-0.639-0.395-1.316-0.395-2.03c0-3.984,4.398-7.216,9.81-7.216
			c5.394,0,9.791,3.232,9.791,7.216c0,0.338-0.038,0.658-0.094,0.977c3.044-2.03,5.92-4.849,8.532-8.325H89.906z"/>
	</g>
	<g>
		<circle style="fill:#231F20;" cx="46.786" cy="75.503" r="7.167"/>
	</g>
	<g>
		<circle style="fill:#231F20;" cx="84.051" cy="75.503" r="7.167"/>
	</g>
	<g>
		<rect x="72.654" y="101.295" style="fill:#231F20;" width="32.963" height="3.759"/>
		<rect x="72.654" y="92.706" style="fill:#231F20;" width="32.963" height="3.759"/>
		<rect x="22.834" y="101.295" style="fill:#231F20;" width="32.963" height="3.759"/>
		<rect x="22.834" y="92.706" style="fill:#231F20;" width="32.963" height="3.759"/>
	</g>
	<g>
		<path style="fill:#231F20;" d="M128,33.94c0,15.26-10.9,28.002-25.333,30.877c-0.62,9.039-2.5,17.421-5.281,24.788h-6.108
			c2.932-7.329,4.924-15.636,5.657-24.206c0.15-1.861,0.263-3.759,0.282-5.638c1.936-0.038,3.834-0.301,5.638-0.771
			c11.201-2.838,19.507-12.986,19.507-25.051c0-14.264-11.595-25.859-25.841-25.859c-11.915,0-21.988,8.119-24.957,19.131
			c-0.47,1.785-0.771,3.665-0.846,5.582c-1.785-0.432-3.702-0.639-5.619-0.658c-0.733-0.019-1.447,0-2.18,0.056
			c-1.936,0.113-3.853,0.432-5.6,0.958c-0.056-1.936-0.319-3.834-0.789-5.638C53.654,16.35,43.525,8.081,31.478,8.081
			c-14.245,0-25.841,11.595-25.841,25.859c0,12.216,8.532,22.495,19.958,25.164c1.804,0.432,3.702,0.658,5.638,0.677
			c0.019,1.673,0.113,3.364,0.244,5.018c0.677,8.795,2.687,17.309,5.676,24.807h-6.089c-2.763-7.348-4.642-15.711-5.262-24.713
			C11.144,62.224,0,49.369,0,33.94C0,16.576,14.114,2.443,31.478,2.443c14.828,0,27.306,10.317,30.614,24.149
			c1.278-0.113,2.556-0.132,3.853-0.075C69.271,12.723,81.713,2.443,96.521,2.443C113.886,2.443,128,16.576,128,33.94z"/>
	</g>
</g>
<g id="Layer_1">
</g>
</svg>
