<?xml version="1.0" encoding="iso-8859-1"?>
<!-- Generator: Adobe Illustrator 19.0.1, SVG Export Plug-In . SVG Version: 6.00 Build 0)  -->
<svg version="1.1" xmlns="http://www.w3.org/2000/svg" xmlns:xlink="http://www.w3.org/1999/xlink" x="0px" y="0px"
	 viewBox="0 0 128 128" style="enable-background:new 0 0 128 128;" xml:space="preserve">
<g id="_x39_">
	<path id="icon_3_" style="fill-rule:evenodd;clip-rule:evenodd;fill:#231F20;" d="M29.311,0.536
		c-3.534-0.1,4.548,78.948,4.548,78.948s-8.283,13.53-13.736,12.919c-0.908-0.091-1.921-0.297-2.822-0.403
		C8.21,91.604,0.439,98.361,0.037,107.454c-0.608,9.072,6.26,16.757,15.246,17.257c9.084,0.608,16.852-6.358,17.357-15.343
		c0.106-1.923,0.831-24.314,8.355-24.205c7.524,0.108,4.868,23.096,4.87,24.911c-0.604,9.091,6.267,16.757,15.343,17.365
		c8.985,0.502,16.759-6.462,17.264-15.447c0.505-8.985-6.36-16.861-15.443-17.264c-0.909-0.098-1.921-0.1-2.826,0.002
		C54.648,94.636,47.99,80.293,47.99,80.293S65.547,2.656,62.121,2.455L42.274,63.799L29.311,0.536L29.311,0.536z M41.526,70.6
		c2.525,0.102,4.641,2.423,4.44,5.054c-0.199,2.621-2.423,4.641-5.04,4.435c-2.627-0.204-4.649-2.415-4.446-5.041
		C36.686,72.419,38.897,70.405,41.526,70.6L41.526,70.6z M16.995,97.349c6.057,0.401,10.7,5.654,10.295,11.714
		c-0.299,5.955-5.451,10.698-11.607,10.403c-6.055-0.411-10.702-5.659-10.503-11.711C5.589,101.698,10.834,97.052,16.995,97.349
		L16.995,97.349z M62.823,99.984c6.055,0.403,10.706,5.648,10.297,11.705c-0.295,6.155-5.55,10.797-11.607,10.395
		c-6.059-0.399-10.802-5.552-10.496-11.703C51.419,104.316,56.666,99.675,62.823,99.984z M113.682,8.1v3.263h12.653
		c0.919,0,1.665,0.745,1.665,1.665v0c0,0.92-0.745,1.665-1.665,1.665h-12.653v3.929h12.653c0.919,0,1.665,0.745,1.665,1.665v0
		c0,0.92-0.745,1.665-1.665,1.665h-12.653v3.913h12.653c0.919,0,1.665,0.745,1.665,1.665v0c0,0.92-0.745,1.665-1.665,1.665h-12.653
		v3.912h12.653c0.919,0,1.665,0.745,1.665,1.665v0c0,0.92-0.745,1.665-1.665,1.665h-12.653v3.929h12.653
		c0.919,0,1.665,0.745,1.665,1.665v0c0,0.92-0.745,1.665-1.665,1.665h-12.653v3.913h12.653c0.919,0,1.665,0.745,1.665,1.665v0
		c0,0.919-0.745,1.665-1.665,1.665h-12.653v3.912h12.653c0.919,0,1.665,0.745,1.665,1.665v0c0,0.92-0.745,1.665-1.665,1.665h-12.653
		v3.929h12.653c0.919,0,1.665,0.745,1.665,1.665l0,0c0,0.92-0.745,1.665-1.665,1.665h-12.653v3.913h12.653
		c0.919,0,1.665,0.745,1.665,1.665l0,0c0,0.92-0.745,1.665-1.665,1.665h-12.653v3.912h12.653c0.919,0,1.665,0.745,1.665,1.665v0
		c0,0.92-0.745,1.665-1.665,1.665h-12.653v3.913h12.653c0.919,0,1.665,0.745,1.665,1.665l0,0c0,0.92-0.745,1.665-1.665,1.665
		h-12.653v3.929h12.653c0.919,0,1.665,0.745,1.665,1.665l0,0c0,0.92-0.745,1.665-1.665,1.665h-12.653v3.912h12.653
		c0.919,0,1.665,0.745,1.665,1.665l0,0c0,0.92-0.745,1.665-1.665,1.665h-12.653v3.913h12.653c0.919,0,1.665,0.745,1.665,1.665v0
		c0,0.92-0.745,1.665-1.665,1.665h-12.653v3.929h12.653c0.919,0,1.665,0.745,1.665,1.665v0c0,0.92-0.745,1.665-1.665,1.665h-12.653
		v2.897h11.821c1.379,0,2.497,1.118,2.497,2.497v0c0,1.379-1.118,2.497-2.497,2.497h-18.414c-6.976,0-12.653-5.677-12.653-12.637
		V15.758c0-6.988,5.665-12.653,12.653-12.653h18.414c1.379,0,2.497,1.118,2.497,2.497v0c0,1.379-1.118,2.497-2.497,2.497H113.682z"
		/>
</g>
<g id="Layer_1">
</g>
</svg>
