<?xml version="1.0" encoding="iso-8859-1"?>
<!-- Generator: Adobe Illustrator 19.0.1, SVG Export Plug-In . SVG Version: 6.00 Build 0)  -->
<svg version="1.1" xmlns="http://www.w3.org/2000/svg" xmlns:xlink="http://www.w3.org/1999/xlink" x="0px" y="0px"
	 viewBox="0 0 128 128" style="enable-background:new 0 0 128 128;" xml:space="preserve">
<g id="_x33_">
	<path id="icon_6_" style="fill:#231F20;" d="M64.388,115.072c-11.195,0-21.996-10.316-30.415-17.644l3.094-3.552
		c7.56,6.582,17.262,16.487,27.321,16.487c9.955,0,19.583-9.842,27.114-16.31l3.069,3.572
		C86.186,104.825,75.468,115.072,64.388,115.072z M110.124,59.477c0.235,1.35,0.392,2.716,0.502,4.113l-4.694,0.361
		c-0.126-1.727-0.361-3.422-0.706-5.087c-0.016-0.11-0.047-0.204-0.063-0.298c-3.29-15.632-15.404-28.006-30.677-31.859
		c-3.241-0.818-6.743,19.069-10.214,19.069c-3.077,0-5.962-19.986-8.86-19.35c-2.722,0.597-5.348,1.461-7.849,2.564
		c-2.848,1.256-5.532,2.822-8.008,4.657c-7.997,5.929-13.82,14.675-15.951,24.888c-0.016,0.11-0.047,0.22-0.063,0.345
		c-0.236,1.13-0.408,2.292-0.549,3.454c-0.063,0.612-0.126,1.256-0.173,1.915l-4.694-0.345c0.047-0.706,0.11-1.397,0.188-2.088
		c0.094-0.785,0.204-1.57,0.33-2.339C14.31,52.443,0.73,29.35,1.892,18.862c0.204-1.853,1.177-3.36,2.826-4.38
		c1.539-0.942,6.217-3.831,27.977,1.978c8.65,2.324,16.657,5.118,19.138,6.013c4.003-1.13,8.211-1.727,12.56-1.727
		c4.317,0,8.509,0.596,12.481,1.743c2.418-0.863,10.472-3.689,19.201-6.029c21.759-5.809,26.454-2.92,27.992-1.978
		c1.648,1.021,2.622,2.528,2.826,4.38C128.053,29.35,114.457,52.443,110.124,59.477z M31.972,33.95
		c-4.113-4.616-8.933-9.938-25.417-14.224c-0.502,7.159,7.818,23.188,13.659,33.204C22.553,45.614,26.634,39.13,31.972,33.95z
		 M108.539,52.977c5.84-10.016,14.177-26.077,13.69-33.252c-16.579,4.302-21.351,9.655-25.48,14.287
		C102.102,39.209,106.215,45.708,108.539,52.977z M59.493,66.055l-0.769,0.816c-2.057,2.198-5.322,3.36-9.011,3.36
		c-1.821,0-3.752-0.283-5.699-0.879c-6.437-1.962-10.99-6.657-11.885-12.246l-0.204-1.225l1.146-0.487
		c0.173-0.063,17.379-6.971,25.904,9.687L59.493,66.055z M41.832,65.05c-0.471-0.863-0.738-1.884-0.738-2.983
		c0-2.151,1.021-4.019,2.528-4.945c-3.422-0.408-6.468,0.267-8.101,0.754C36.494,61.172,39.053,63.559,41.832,65.05z M55.616,65.443
		c-1.696-2.936-3.721-4.898-5.825-6.186c0.408,0.816,0.644,1.79,0.644,2.81c0,2.119-1.005,3.988-2.496,4.914
		C50.969,67.342,53.763,66.793,55.616,65.443z M96.654,55.882l-0.204,1.225c-0.895,5.589-5.448,10.283-11.885,12.246
		c-1.947,0.597-3.878,0.879-5.699,0.879c-3.689,0-6.955-1.162-9.011-3.36l-0.754-0.816l0.502-0.973
		c8.525-16.657,25.731-9.749,25.904-9.687L96.654,55.882z M80.813,66.966c-1.476-0.942-2.465-2.779-2.465-4.898
		c0-1.083,0.267-2.104,0.722-2.967c-2.214,1.272-4.317,3.281-6.091,6.343C74.848,66.824,77.705,67.358,80.813,66.966z
		 M93.059,57.876c-1.601-0.487-4.584-1.146-7.928-0.769c1.523,0.926,2.559,2.794,2.559,4.961c0,1.036-0.251,2.01-0.659,2.842
		C89.699,63.402,92.117,61.063,93.059,57.876z M84.283,80.263c-0.016,0.047-1.554,4.6-5.558,6.971
		c-2.182,1.287-4.71,1.68-6.908,1.068c-1.727-0.471-3.297-1.523-4.631-3.14c3.344-0.738,5.762-2.999,5.762-5.667
		c0-3.266-3.658-5.934-8.164-5.934c-4.521,0-8.164,2.669-8.164,5.934c0,2.496,2.119,4.631,5.118,5.511
		c-1.382,1.711-2.983,2.81-4.773,3.297c-2.214,0.612-4.725,0.22-6.923-1.068c-3.972-2.355-5.526-6.924-5.542-6.971l-2.983,0.989
		c0.078,0.235,1.915,5.715,6.939,8.682c2.904,1.727,6.311,2.229,9.341,1.397c2.528-0.691,4.741-2.229,6.594-4.6
		c1.853,2.371,4.066,3.909,6.594,4.6c0.942,0.267,1.931,0.392,2.936,0.392c2.182,0,4.412-0.612,6.405-1.79
		c5.008-2.967,6.861-8.446,6.939-8.682L84.283,80.263z M114.994,100.29c-0.452-0.438-11.194-10.738-21.406-13.494l-0.819,3.031
		c9.426,2.544,19.937,12.619,20.041,12.721L114.994,100.29z M35.23,89.827l-0.819-3.031c-10.213,2.756-20.954,13.056-21.405,13.494
		l2.182,2.258C15.293,102.445,25.804,92.37,35.23,89.827z M120.06,83.725c-0.704-0.225-17.331-5.471-27.279-2.862l0.797,3.037
		c9.072-2.378,25.363,2.764,25.525,2.816L120.06,83.725z M34.422,83.901l0.797-3.037c-9.957-2.611-26.578,2.637-27.28,2.862
		l0.957,2.991C9.06,86.664,25.349,81.524,34.422,83.901z M127.887,73.704L128,70.566c-3.02-0.108-29.691-0.905-35.877,4.728
		l2.113,2.321C98.677,73.57,120.034,73.418,127.887,73.704z M35.877,75.294C29.693,69.659,3.021,70.457,0,70.566l0.113,3.138
		c7.853-0.286,29.206-0.136,33.651,3.911L35.877,75.294z"/>
</g>
<g id="Layer_1">
</g>
</svg>
