<?xml version="1.0" encoding="iso-8859-1"?>
<!-- Generator: Adobe Illustrator 19.0.1, SVG Export Plug-In . SVG Version: 6.00 Build 0)  -->
<svg version="1.1" xmlns="http://www.w3.org/2000/svg" xmlns:xlink="http://www.w3.org/1999/xlink" x="0px" y="0px"
	 viewBox="0 0 128 128" style="enable-background:new 0 0 128 128;" xml:space="preserve">
<g id="_x31_1">
	<path id="icon_7_" style="fill:#231F20;" d="M120.101,16.718c-5.842-3.082-9.382-5.087-11.238-6.188
		c-1.844-1.114-10.322,0.52-10.322,0.52s-4.245-22.377-8.565-3.441c-6.3-4.183-9.679-6.485-10.446,3.676
		c-0.755,10.174,7.241,18.999-1.968,26.92c-1.671,1.436-18.516,11.523-39.977,32.465c-13.639,13.318-10.867,39.173-7.896,50.894
		c-9.741-0.879-16.016-4.419-18.64-10.545c-3.985-9.295,1.176-23.863,8.255-32.031c6.473-7.476,8.837-14.32,7.042-20.323
		c-2.599-8.738-13.045-11.783-13.491-11.919c-1.634-0.458-3.342,0.495-3.812,2.129c-0.47,1.634,0.483,3.354,2.116,3.824
		c0.074,0.025,7.649,2.29,9.27,7.76c1.411,4.79-2.376,10.508-5.805,14.469c-8.367,9.666-14.456,26.449-9.258,38.529
		c2.636,6.164,9.357,13.664,26.363,14.444c0.049,0.012,35.2,0.458,57.503-0.631c6.349-0.309-4.282-8.144-9.221-10.298
		c-0.792-0.347-1.431-0.492-1.79-0.687c-1.293-0.703,1.208-6.33,1.208-6.343c1.609-3.75,3.07-8.775,1.869-12.872
		c-1.819-6.226-4.963-10.335-9.307-12.216c-7.81-3.354-17.13,1.337-17.216,1.386c-0.916,0.458-2.03,0.099-2.5-0.817
		c-0.47-0.903-0.111-2.03,0.804-2.488c0.446-0.235,10.991-5.532,20.372-1.498c5.421,2.339,9.258,7.253,11.411,14.592
		c0.99,3.404,0.44,10.187-0.463,13.578c1.225,1.98,3.898,5.308,5.575,7.178c9.364,10.442,4.792,9.989,22.872,10.335
		c11.063,0.212-6.077-6.424-9.864-7.154c-2.683-0.528-3.979-13.76-1.054-24.712c1.252-4.687,21.67-20.948,2.291-49.485
		c-2.004-2.951,2.307-6.251,3.294-6.748c2.649-1.337,16.758-6.275,16.82-12.426C124.371,23.018,125.956,19.787,120.101,16.718z
		 M89.827,22.027c-1.324,0.545-3.416-0.099-5.334-4.79c-1.906-4.691-1.646-9.84-0.322-10.384c1.324-0.545,4.604,2.067,6.51,6.745
		C92.6,18.29,91.164,21.495,89.827,22.027z M95.508,10.727c-1.485,0.408-3.862-6.003-1.56-7.872
		c0.384-0.309,1.077,1.188,1.658,3.094C96.177,7.868,95.979,10.604,95.508,10.727z M104.222,18.983c0,0,0.421-9.01,9.345-0.594
		L104.222,18.983z"/>
</g>
<g id="Layer_1">
</g>
</svg>
