<svg xmlns="http://www.w3.org/2000/svg" viewBox="0 0 30 30"><defs><style>.cls-1{fill:#93c9b1;}.cls-2{fill:#acdbc7;}.cls-3{fill:#2b516b;}.cls-4{fill:#355c7d;}.cls-5{fill:#e5b24c;}.cls-6{fill:#fcc956;}.cls-7{fill:#e57686;}.cls-8{fill:#f48a94;}.cls-9{fill:#fad27a;}.cls-10{fill:#fff8d4;}.cls-11{fill:#eaeaea;}.cls-12{fill:#d6d3d2;}.cls-13{fill:#002a3a;}.cls-14{fill:#1d3e51;}</style></defs><g id="Layer_2" data-name="Layer 2"><rect class="cls-1" x="15.36328" y="11.18612" width="7.50674" height="7.50674"/><rect class="cls-2" x="15.36328" y="11.18733" width="6.96091" height="7.50674"/><path class="cls-3" d="M23.38892,11.411a.38.38,0,0,1-.38473.37577H15.30065a.38027.38027,0,0,1,0-.76049h7.70354A.38188.38188,0,0,1,23.38892,11.411Z"/><rect class="cls-3" x="15.0142" y="18.21761" width="8.46122" height="0.75611" rx="0.37805"/><path class="cls-4" d="M23.15634,11.411a.378.378,0,0,1-.37583.37577H15.30065a.38027.38027,0,0,1,0-.76049h7.47986A.38.38,0,0,1,23.15634,11.411Z"/><rect class="cls-4" x="14.78654" y="18.21761" width="8.46122" height="0.75611" rx="0.37805"/><path class="cls-5" d="M8.57658,15.40048a1.37386,1.37386,0,0,0,.57455,1.2148,3.00326,3.00326,0,0,0,1.29138.51437,8.132,8.132,0,0,0,1.25859.14225,7.97549,7.97549,0,0,0,2.58824-.32831,1.94359,1.94359,0,0,0,1.13818-1.81671c-.01095-1.067-1.16006-.81532-1.77839-1.18193-.30643-.18059-.45967-.58-.79345-.695a.634.634,0,0,0-.45966.02188c-.36114.1368-.7004.49249-1.0944.57459a1.69018,1.69018,0,0,1-.52529.00544h-.00548a2.35085,2.35085,0,0,0-.33926-.0164,1.26542,1.26542,0,0,0-.14228.0164h-.011a2.26112,2.26112,0,0,0-.88646.42683A1.76534,1.76534,0,0,0,8.57658,15.40048Z"/><path class="cls-6" d="M8.57658,15.40048a1.37386,1.37386,0,0,0,.57455,1.2148,3.00326,3.00326,0,0,0,1.29138.51437,8.132,8.132,0,0,0,1.25859.14225,7.89565,7.89565,0,0,0,2.08483-.32831,1.94359,1.94359,0,0,0,1.13815-1.81671.77519.77519,0,0,0-.26813-.65116,1.01451,1.01451,0,0,0-.37209-.197,7.89139,7.89139,0,0,1-1.07252-.301l-.06566-.03283a2.25909,2.25909,0,0,1-.45963-.45419.94412.94412,0,0,0-.29-.21889c-.36114.1368-.7004.49249-1.0944.57459a1.69018,1.69018,0,0,1-.52529.00544h-.00548a1.772,1.772,0,0,1-.48154,0h-.011a2.26112,2.26112,0,0,0-.88646.42683A1.76534,1.76534,0,0,0,8.57658,15.40048Z"/><path class="cls-7" d="M6.52458,18.49218v.48153H18.28937v-.48153a.42624.42624,0,0,0-.42683-.42136H17.786l-.15323-.33378-1.19289-2.55545a.65288.65288,0,0,0-.58551-.3447H8.95962a.64674.64674,0,0,0-.58551.3447L7.18122,17.737l-.15871.33378h-.0711A.42623.42623,0,0,0,6.52458,18.49218Z"/><path class="cls-8" d="M6.52458,18.49218v.48153H17.72574v-.48153a.42623.42623,0,0,0-.4268-.42136h-.07662l-.1532-.33378-1.19289-2.55545a.65293.65293,0,0,0-.58551-.3447H8.95962a.64674.64674,0,0,0-.58551.3447L7.18122,17.737l-.15871.33378h-.0711A.42623.42623,0,0,0,6.52458,18.49218Z"/><path class="cls-9" d="M12.883,13.49624a.39076.39076,0,0,0-.197-.00548,2.25909,2.25909,0,0,0,.45963.45419l.06566.03283v-.02191"/><path class="cls-10" d="M12.41245,13.65492a.15175.15175,0,0,0,0,.09849.4601.4601,0,0,0,.25717.31191.66035.66035,0,0,0,.4104.04378.12234.12234,0,0,0,.13132-.13132l-.06566-.03283a2.25909,2.25909,0,0,1-.45963-.45419A.31414.31414,0,0,0,12.41245,13.65492Z"/><path class="cls-9" d="M14.28386,14.27873a1.01451,1.01451,0,0,1,.37209.197.02.02,0,0,1,.00548-.0164C14.69974,14.29513,14.39331,14.27873,14.28386,14.27873Z"/><path class="cls-10" d="M13.78045,14.39366a.05579.05579,0,0,0,.02735.04375.474.474,0,0,0,.33379.10944c.104.00548.20246.00548.30643.00548a.2678.2678,0,0,0,.20246-.06566.01914.01914,0,0,0,.00547-.01095,1.01451,1.01451,0,0,0-.37209-.197h-.03831a.98124.98124,0,0,0-.37756.02736C13.82423,14.317,13.775,14.34439,13.78045,14.39366Z"/><path class="cls-10" d="M13.40772,14.18707a.16737.16737,0,0,1,.13268.13256.15964.15964,0,0,1-.05589.1293.36991.36991,0,0,1-.12736.06958,1.06247,1.06247,0,0,1-.36094.064.24.24,0,0,1-.2153-.08747.17039.17039,0,0,1,.03295-.19533.33154.33154,0,0,1,.18872-.08891A1.132,1.132,0,0,1,13.40772,14.18707Z"/><path class="cls-10" d="M12.03475,13.69119a.13692.13692,0,0,1,.06191.01653.11818.11818,0,0,1,.03111.15132.3012.3012,0,0,1-.12288.11383.83845.83845,0,0,1-.291.11683.15457.15457,0,0,1-.15245-.03882.11929.11929,0,0,1,.0118-.13863.34933.34933,0,0,1,.11985-.087A.69906.69906,0,0,1,12.03475,13.69119Z"/><path class="cls-9" d="M15.01744,14.473a.27011.27011,0,0,1,.0769.09384.11267.11267,0,0,1-.0112.11567.12325.12325,0,0,1-.106.03449.23992.23992,0,0,1-.14847-.07508.32124.32124,0,0,1-.07749-.149.12422.12422,0,0,1-.00224-.06065C14.78233,14.31024,14.96832,14.43063,15.01744,14.473Z"/><path class="cls-10" d="M12.63688,14.24938a.06027.06027,0,0,1,.00492.06527.06229.06229,0,0,1-.02986.01747,2.303,2.303,0,0,0-.24924.07164.50141.50141,0,0,1-.197.08332.14983.14983,0,0,1-.14453-.12851.08176.08176,0,0,1,.005-.04253.10478.10478,0,0,1,.027-.03277C12.20621,14.14449,12.50285,14.01107,12.63688,14.24938Z"/><polygon class="cls-7" points="7.023 18.071 17.786 18.071 17.633 17.737 7.181 17.737 7.023 18.071"/><rect class="cls-11" x="11.71115" y="16.50159" width="1.30387" height="0.15091" transform="translate(-0.41914 0.321) rotate(-1.46279)"/><path class="cls-5" d="M11.75832,16.25639l.01807.67275a.13908.13908,0,0,1-.17657.13594l-.56739-.16646a.32861.32861,0,0,1-.21533-.20194.23993.23993,0,0,1-.01415-.07888.30709.30709,0,0,1,.21464-.29278l.55916-.19565a.12286.12286,0,0,1,.10227.00718A.13121.13121,0,0,1,11.75832,16.25639Z"/><path class="cls-6" d="M11.679,16.13655l.01824.667a.13815.13815,0,0,1-.17656.136l-.5674-.16648a.37662.37662,0,0,1-.1362-.07637.23993.23993,0,0,1-.01415-.07888.30709.30709,0,0,1,.21464-.29278l.55916-.19565A.12286.12286,0,0,1,11.679,16.13655Z"/><path class="cls-12" d="M11.95584,17.17176a.08934.08934,0,0,1-.0346.00335.09032.09032,0,0,1-.08137-.0987l.0137-.14227a2.79834,2.79834,0,0,0-.01737-.68013l-.02094-.14149a.09053.09053,0,0,1,.17909-.02666l.02094.1415a2.98567,2.98567,0,0,1,.01835.72411l-.0137.14227A.09033.09033,0,0,1,11.95584,17.17176Z"/><path class="cls-12" d="M12.23882,17.11071a.08283.08283,0,0,1-.10641-.08623l.01048-.1271a2.84983,2.84983,0,0,0-.01577-.60884l-.01665-.12655a.084.084,0,0,1,.07121-.09307.0827.0827,0,0,1,.09307.07122l.01682.12649a3.00542,3.00542,0,0,1,.01663.64438l-.01048.1271A.083.083,0,0,1,12.23882,17.11071Z"/><path class="cls-12" d="M12.52185,17.04982a.07561.07561,0,0,1-.09686-.07709l.00711-.11189a3.03243,3.03243,0,0,0-.01373-.53788l-.01282-.11128a.07384.07384,0,0,1,.06634-.08349.07542.07542,0,0,1,.08349.06634l.01282.11127a3.1841,3.1841,0,0,1,.01435.56463l-.00711.11188A.07544.07544,0,0,1,12.52185,17.04982Z"/><path class="cls-12" d="M12.805,16.98854a.07291.07291,0,0,1-.022.0029.06808.06808,0,0,1-.06536-.07047l.00361-.09645a3.60168,3.60168,0,0,0-.01167-.46748l-.00876-.09588a.06644.06644,0,0,1,.06133-.0737.06772.06772,0,0,1,.07369.06134l.00882.09605a3.73558,3.73558,0,0,1,.0123.485l-.00349.09623A.06821.06821,0,0,1,12.805,16.98854Z"/><path class="cls-11" d="M11.9202,17.18243a.09054.09054,0,0,1-.116-.09536l.01369-.14226a2.79884,2.79884,0,0,0-.01736-.68013l-.02094-.1415a.09053.09053,0,1,1,.17908-.02665l.02094.1415a2.98456,2.98456,0,0,1,.01835.7241l-.0137.14227A.09035.09035,0,0,1,11.9202,17.18243Z"/><path class="cls-11" d="M12.20318,17.12137a.08282.08282,0,0,1-.10642-.08622l.01049-.12711a2.84984,2.84984,0,0,0-.01578-.60884l-.01665-.12655a.084.084,0,0,1,.07122-.09306.0827.0827,0,0,1,.09307.07121l.01682.1265a3.00662,3.00662,0,0,1,.01663.64437l-.01049.12711A.08292.08292,0,0,1,12.20318,17.12137Z"/><path class="cls-11" d="M12.48621,17.06048a.07559.07559,0,0,1-.09686-.07709l.00711-.11189a3.03327,3.03327,0,0,0-.01373-.53787l-.01282-.11128a.07384.07384,0,0,1,.06633-.08349.0754.0754,0,0,1,.08349.06633l.01282.11128a3.183,3.183,0,0,1,.01435.56462l-.0071.11189A.07544.07544,0,0,1,12.48621,17.06048Z"/><path class="cls-11" d="M12.7693,16.99921a.07287.07287,0,0,1-.022.00289.06808.06808,0,0,1-.06536-.07047l.00361-.09645a3.60151,3.60151,0,0,0-.01166-.46747l-.00877-.09589a.06644.06644,0,0,1,.06133-.07369.06772.06772,0,0,1,.0737.06133l.00882.09606a3.73537,3.73537,0,0,1,.01229.485l-.00349.09623A.06823.06823,0,0,1,12.7693,16.99921Z"/><path class="cls-5" d="M13.42015,16.02739a.747.747,0,0,1-.18985.52717.74884.74884,0,0,1,.217.51689.11021.11021,0,0,1-.14083.11014.44532.44532,0,0,1-.21362-.16466,1.16746,1.16746,0,0,1-.1905-.46625s.05583-.50785.37382-.62567a.08467.08467,0,0,1,.04768-.00481A.10782.10782,0,0,1,13.42015,16.02739Z"/><path class="cls-6" d="M13.32385,15.9202a.01977.01977,0,0,1,.00085.00919.84626.84626,0,0,1-.20537.55724.71955.71955,0,0,1,.232.48508.11042.11042,0,0,1-.14257.11066.33219.33219,0,0,1-.11592-.06544,1.16746,1.16746,0,0,1-.1905-.46625s.05583-.50785.37382-.62567A.08467.08467,0,0,1,13.32385,15.9202Z"/><path class="cls-13" d="M11.31163,16.37334a.03333.03333,0,0,1,.02582.0096l.0342.03909.00045,0,.032-.0409a.03351.03351,0,0,1,.0252-.01079h0c.02346-.0006.03781.017.02494.0305l-.044.04628.04987.05233c.01235.013-.00122.03041-.02409.031l-.00367.00009a.03306.03306,0,0,1-.02615-.01l-.03405-.04234-.00045,0-.03216.04411a.033.033,0,0,1-.02554.01124l-.00038,0c-.023.00059-.03746-.01638-.02545-.03l.04305-.04861-.04709-.05079c-.012-.013.00156-.03021.02428-.03079Z"/><path class="cls-14" d="M20.22921,15.20333l-.02829-.00114.017-.066a.31741.31741,0,0,0-.0321-.25385.918.918,0,0,0-.062-.091l0-.00037a1.2879,1.2879,0,0,0-.08723-.66722.54867.54867,0,0,0-.47677.29206l-.00011,0c-.02522-.0071-.05075-.01119-.07647-.01576l-.021-.0044,0,.00007a.873.873,0,0,0-.15336-.014c-.02107-.001-.04214-.001-.06421,0-.01506-.001-.0281-.001-.04314-.001l-.02008.001-.016.001a.788.788,0,0,0-.13736.013l-.00007-.0004-.01684.00385c-.02688.00482-.05406.00914-.08151.01663l-.00012,0a.55328.55328,0,0,0-.47655-.29254,1.28678,1.28678,0,0,0-.08692.66743l-.00027.00032a.91757.91757,0,0,0-.06221.09129.32568.32568,0,0,0-.0321.25385l.0169.06561-.02808.001a.041.041,0,0,0,.00149.08206h.00151l.04948-.0018a.76161.76161,0,0,0,.0801.17919l.00035.00055-.09454.02275a.04106.04106,0,0,0,.00956.081l.00968-.00112.12185-.02932.00025.00039a1.00625,1.00625,0,0,0,.19164.19966.9482.9482,0,0,0,.53276.19464.33952.33952,0,0,0,.04516.002c.013,0,.02307,0,.03511-.001.013.001.02307.001.03511.001a.95024.95024,0,0,0,.57791-.19665.9783.9783,0,0,0,.19164-.19966l0,0,.122.02937.01021.00113a.04218.04218,0,0,0,.03964-.03172.04071.04071,0,0,0-.03059-.04984l-.094-.02266-.00041-.0001.00025-.00038a.76122.76122,0,0,0,.08026-.1796l0,0,.0003,0,.04871.00226h.00226a.04109.04109,0,0,0,.04078-.03965A.03992.03992,0,0,0,20.22921,15.20333Z"/></g></svg>