<svg xmlns="http://www.w3.org/2000/svg" viewBox="0 0 30 30"><defs><style>.cls-1{fill:#f48a94;}.cls-2{fill:#fcc956;}.cls-3{fill:#e2ae44;}.cls-4{fill:#efa726;}.cls-5{fill:#f9ba3a;}</style></defs><g id="Layer_2" data-name="Layer 2"><path class="cls-1" d="M23.2113,11.19167c-.74945,1.83779-3.21831,2.769-5.62544,3.14877a2.40458,2.40458,0,0,1-.291.049c-.20278.03679-.42322.06124-.64365.08577s-.45853.04906-.70544.06125a6.06052,6.06052,0,0,1-.6789.03679c-.22044.01226-.44087.01226-.64371.01226-.20278,0-.41439,0-.64365-.01226-.18518,0-.36149-.01227-.529-.02453-.13228-.01226-.27334-.02445-.41445-.03672a6.09039,6.09039,0,0,1-.68773-.07351h-.07055c-2.56589-.33082-5.39624-1.23746-6.22508-3.21a3.18388,3.18388,0,0,0-.22926,1.21293c0,3.62655,5.54612,4.5945,8.8174,4.5945s8.81739-.96795,8.81739-4.5945A3.21193,3.21193,0,0,0,23.2113,11.19167Z"/><path class="cls-2" d="M23.2113,11.19167c-.74945,1.83779-3.21831,2.769-5.62544,3.14877,2.54818-.45332,3.9061-1.409,4.1-1.899a3.38675,3.38675,0,0,0-1.72817-1.23746,13.92854,13.92854,0,0,0-5.31691-.9189,13.72509,13.72509,0,0,0-5.33452.93116c-1.06692.45332-1.64.95562-1.7194,1.26192.13228.44105,1.6841,1.54376,4.69086,1.96036-2.56589-.33082-5.39624-1.23746-6.22508-3.21C6.80215,9.40285,9.24459,8.484,11.62529,8.092a3.14151,3.14151,0,0,1,.48495-.07359,12.35055,12.35055,0,0,1,1.24323-.13475c.22043-.01226.44087-.02445.6437-.03672s.41439-.01226.626-.01226c.22926,0,.4497,0,.66131.01226.22043.01227.44087.02446.679.03672.14988.01226.29982.02453.45853.03679.16753.02446.32623.03672.48494.06125.22926.02453.4497.06124.66131.098C19.96651,8.45949,22.4442,9.36613,23.2113,11.19167Z"/><path class="cls-2" d="M16.972,19.45513a2.33444,2.33444,0,0,1-1.991,2.31133v-.09034a1.841,1.841,0,0,1,.20588-.81311.60891.60891,0,0,0,.06778-.27856.62336.62336,0,0,0-1.22272-.17065.63666.63666,0,0,0,.03767.43415,1.96782,1.96782,0,0,1,.21341.82817v.09034a2.33836,2.33836,0,1,1,2.689-2.31133Z"/><path class="cls-3" d="M16.97489,19.45538a2.33472,2.33472,0,0,1-1.994,2.30993v-.13265a2.33773,2.33773,0,0,0-.5934-4.50563c.0811-.00738.16217-.01106.24694-.01106A2.33853,2.33853,0,0,1,16.97489,19.45538Z"/><path class="cls-4" d="M17.23781,18.82191a.22568.22568,0,0,1-.22482.22473H12.251a.22568.22568,0,0,1-.22482-.22473.22812.22812,0,0,1,.22482-.22474h4.762A.22812.22812,0,0,1,17.23781,18.82191Z"/><path class="cls-5" d="M16.96507,18.82191a.22334.22334,0,0,1-.22484.22473H12.251a.22568.22568,0,0,1-.22482-.22473.22812.22812,0,0,1,.22482-.22474h4.48922A.22568.22568,0,0,1,16.96507,18.82191Z"/><path class="cls-2" d="M14.632,17.05448a.91851.91851,0,1,1,.91891-.91851A.91986.91986,0,0,1,14.632,17.05448Zm0-1.4686a.5501.5501,0,1,0,.55034.55009A.55088.55088,0,0,0,14.632,15.58588Z"/><path class="cls-3" d="M15.55091,16.13413a.92078.92078,0,0,1-.91774.921.4001.4001,0,0,1-.06634-.00369.9182.9182,0,0,0,0-1.831.4001.4001,0,0,1,.06634-.00369A.92.92,0,0,1,15.55091,16.13413Z"/><path class="cls-4" d="M14.433,16.42357h.40176a.07.07,0,0,1,.07.07v.7773a.07372.07372,0,0,1-.07372.07372h-.40176a.07.07,0,0,1-.07-.07v-.7773A.07372.07372,0,0,1,14.433,16.42357Z"/><path class="cls-5" d="M14.433,16.42357h.23592a.07.07,0,0,1,.07.07v.781a.07.07,0,0,1-.07.07h-.23962a.07.07,0,0,1-.07-.07v-.77733A.0737.0737,0,0,1,14.433,16.42357Z"/></g></svg>