<?xml version="1.0" encoding="utf-8"?>
<!-- Generator: Adobe Illustrator 24.3.0, SVG Export Plug-In . SVG Version: 6.00 Build 0)  -->
<svg version="1.1" id="Layer_1" xmlns="http://www.w3.org/2000/svg" xmlns:xlink="http://www.w3.org/1999/xlink" x="0px" y="0px"
	 viewBox="0 0 3182.26 3002.51" style="enable-background:new 0 0 3182.26 3002.51;" xml:space="preserve">
<style type="text/css">
	.st0{fill:#FFFFFF;}
	.st1{fill:#390075;}
	.st2{opacity:0.3;}
	.st3{fill:#64CBFF;}
	.st4{fill:#A5A5A5;}
	.st5{fill:#F9744B;}
	.st6{opacity:0.5;}
	.st7{fill:#F7528A;}
	.st8{opacity:0.7;}
	.st9{fill:#F9A528;}
	.st10{fill:none;stroke:#390075;stroke-width:5;stroke-miterlimit:10;}
	.st11{fill:none;stroke:#390075;stroke-width:28.6901;stroke-linecap:round;stroke-miterlimit:10;}
	.st12{fill:#9027F4;}
	.st13{opacity:0.4;}
	.st14{fill:#1DDFFF;}
	.st15{fill:#D25658;}
	.st16{fill:#6BD6F0;}
	.st17{fill:#F2101C;}
	.st18{fill:#A85D0B;}
	.st19{fill:#6B184E;}
	.st20{fill:#FFA73E;}
	.st21{fill:#FEF26B;}
	.st22{fill:#102770;}
	.st23{fill:#FD6CCB;}
	.st24{fill:#39D5FF;}
	.st25{opacity:0.6;}
	.st26{fill:#451661;}
	.st27{fill:#F883A0;}
	.st28{fill:#FDD800;}
	.st29{opacity:0.35;}
	.st30{fill:#FF5722;}
	.st31{fill:#FF4AA1;}
	.st32{fill:#B5E5FB;}
	.st33{fill:#FCCACA;}
	.st34{fill:#FEC2E6;}
	.st35{fill:#FFEBF6;}
	.st36{fill:#FDC1E5;}
	.st37{fill:#FF4F90;}
	.st38{fill:#62A36D;}
	.st39{fill:#41B751;}
	.st40{opacity:0.2;}
	.st41{fill:#FF0062;}
	.st42{fill:#000072;}
	.st43{fill:#111A28;}
	.st44{fill:#BC262F;}
	.st45{fill:#E19A40;}
	.st46{fill:#FFC200;}
	.st47{fill:#F40F1B;}
	.st48{fill:#EBA7A4;}
	.st49{fill:url(#SVGID_1_);stroke:#390075;stroke-width:7.3367;stroke-linecap:round;stroke-linejoin:round;stroke-miterlimit:10;}
	.st50{fill:#FFD553;}
	.st51{fill:#D83C2D;}
	.st52{fill:#4089FF;}
	.st53{fill:#FFCFAE;}
	.st54{fill:#FC277E;}
	.st55{fill:#FFDAA4;}
	.st56{fill:#293856;}
	.st57{fill:#FFCBBD;}
	.st58{fill:none;stroke:#000072;stroke-width:33.6042;stroke-linecap:round;stroke-miterlimit:10;}
	.st59{fill:#17172B;}
	.st60{fill:#94452F;}
	.st61{fill:#925A4D;}
	.st62{fill:#FFFFFF;stroke:#000072;stroke-width:0;stroke-linecap:round;stroke-linejoin:round;stroke-miterlimit:10;}
	.st63{fill:#FFA726;}
	.st64{fill:none;stroke:#000072;stroke-width:29.0651;stroke-linecap:round;stroke-linejoin:round;stroke-miterlimit:10;}
	.st65{fill:#BC6F29;}
	.st66{fill:#666666;}
	.st67{fill:#1A1A5A;}
	.st68{fill:#ADB8CC;}
	.st69{fill:#23A7F1;}
	.st70{fill:none;stroke:#390075;stroke-width:29.1684;stroke-linecap:round;stroke-miterlimit:10;}
	.st71{fill:url(#SVGID_2_);stroke:#390075;stroke-width:8.7667;stroke-linecap:round;stroke-linejoin:round;stroke-miterlimit:10;}
	.st72{fill:#F9A528;stroke:#390075;stroke-width:4.7809;stroke-miterlimit:10;}
	.st73{fill:none;stroke:#390075;stroke-width:28.6133;stroke-linecap:round;stroke-miterlimit:10;}
	.st74{fill:url(#SVGID_3_);stroke:#390075;stroke-width:7.4308;stroke-linecap:round;stroke-linejoin:round;stroke-miterlimit:10;}
	.st75{clip-path:url(#SVGID_5_);}
	.st76{fill:#B8B4B1;}
	.st77{fill:#FFFFFF;stroke:#390075;stroke-width:4.9517;stroke-linecap:round;stroke-linejoin:round;stroke-miterlimit:10;}
</style>
<g>
	<g>
		<g>
			<g>
				<circle class="st0" cx="2786.11" cy="1982.21" r="21.77"/>
			</g>
			<g>
				<circle class="st0" cx="3160.48" cy="1650.11" r="21.77"/>
			</g>
			<g>
				<circle class="st0" cx="3102.25" cy="674.26" r="21.77"/>
			</g>
			<g>
				<circle class="st0" cx="2658.68" cy="413.17" r="21.77"/>
			</g>
			<g>
				<circle class="st0" cx="520.22" cy="2538.91" r="32.56"/>
			</g>
			<g>
				<circle class="st0" cx="208.22" cy="1223.94" r="21.77"/>
			</g>
			<g>
				<circle class="st0" cx="21.78" cy="725.18" r="21.77"/>
			</g>
			<g>
				<circle class="st0" cx="221.68" cy="2006.41" r="21.77"/>
			</g>
			<g>
				<circle class="st0" cx="312.43" cy="365.3" r="21.77"/>
			</g>
			<g>
				<circle class="st0" cx="3141.12" cy="2447.92" r="21.77"/>
			</g>
			<g>
				<circle class="st0" cx="3022.73" cy="2919.59" r="21.77"/>
			</g>
			<g>
				<circle class="st0" cx="2326.45" cy="21.77" r="21.77"/>
			</g>
			<g>
				<circle class="st0" cx="2606.44" cy="2907.22" r="21.77"/>
			</g>
			<g>
				<circle class="st0" cx="695.48" cy="2980.74" r="21.77"/>
			</g>
			<g>
				<circle class="st0" cx="878.37" cy="2333.63" r="21.77"/>
			</g>
			<g>
				<circle class="st0" cx="2872.15" cy="1357.82" r="21.77"/>
			</g>
			<g>
				<circle class="st0" cx="186.71" cy="2834.12" r="21.77"/>
			</g>
		</g>
		<g>
			<g>
				<g>
					<path class="st0" d="M1072.74,2390.94c0,0,144.92,130.36,330.72,123.7c141.07-5.05,184.03-87.76,160.85-166.36
						c-31.21-105.86-261.54-97.38-359.41-224.64L1072.74,2390.94z"/>
				</g>
				<g>
					<path class="st1" d="M1389.85,2517.39c-178.17,0-317.35-123.31-318.78-124.59l3.34-3.72c1.44,1.3,146.34,129.5,328.96,123.06
						c67.85-2.43,117.73-23.17,144.23-59.97c20.47-28.42,25.55-65.07,14.31-103.19c-15.38-52.16-80.07-75.86-154.98-103.32
						c-72.67-26.63-155.04-56.82-204.01-120.51l3.96-3.05c48.09,62.53,129.74,92.46,201.77,118.86
						c76.18,27.92,141.96,52.03,158.05,106.6c11.69,39.64,6.34,77.82-15.05,107.53c-19.13,26.57-60.36,58.9-148.11,62.04
						C1398.96,2517.31,1394.39,2517.39,1389.85,2517.39z"/>
				</g>
			</g>
			<g>
				<g>
					<path class="st0" d="M2139.38,2136.57c74.09-78.67,51.66-357.5-36.52-398.81l-195.59,89.74L2139.38,2136.57z"/>
				</g>
				<g>
					<path class="st1" d="M2139.16,2140.44l-235.75-313.93l199.46-91.52l1.05,0.49c33.13,15.52,59.96,65.46,73.62,137.01
						c17.48,91.58,10.69,215.85-36.34,265.78L2139.16,2140.44z M1911.13,1828.48l228.43,304.17
						c44.06-50.12,50.06-170.18,33.06-259.21c-13.21-69.2-38.61-117.53-69.79-132.92L1911.13,1828.48z"/>
				</g>
			</g>
			<g class="st2">
				<path class="st1" d="M2139.39,2136.55l-232.1-309.06l61.76-28.33l97.44,129.77c34.25,45.61,107.01,25.32,112.21-31.49
					c0.05-0.53,0.1-1.06,0.14-1.59C2191.86,1987.86,2180.45,2092.98,2139.39,2136.55z"/>
			</g>
			<g>
				<path class="st1" d="M2138.14,2158.81l-253.02-336.93l217.81-99.93l6.02,2.82c50.12,23.48,71.78,101.25,80.23,145.52
					c18.48,96.83,10.9,222.77-39.35,276.12L2138.14,2158.81z M1929.43,1833.11l210.01,279.66c29.27-47.66,38.93-146.06,21.55-237.1
					c-11.62-60.85-33.3-105.59-58.7-121.86L1929.43,1833.11z"/>
			</g>
			<g>
				<g>
					
						<ellipse transform="matrix(0.9907 -0.136 0.136 0.9907 -120.9755 206.4267)" class="st3" cx="1449.92" cy="988.38" rx="961.49" ry="863.54"/>
				</g>
				<g>
					<path class="st1" d="M1420.04,1856.52c-203.26,0-398.68-58.02-562.01-168.64c-202.7-137.29-331.66-339.13-363.13-568.36
						c-64.96-473.1,310.61-916.81,837.21-989.12c526.61-72.3,1007.88,253.76,1072.84,726.85
						c64.96,473.1-310.61,916.81-837.22,989.12C1518.29,1853.16,1468.92,1856.52,1420.04,1856.52z M1478.35,125.35
						c-47.96,0-96.52,3.26-145.57,10c-523.87,71.93-897.53,513.12-832.94,983.49c31.28,227.8,159.48,428.42,360.99,564.9
						c201.59,136.54,452.4,192.53,706.22,157.68c523.87-71.93,897.53-513.12,832.94-983.49
						C2341.45,431.6,1942.59,125.35,1478.35,125.35z"/>
				</g>
			</g>
			<g>
				<g>
					<g>
						<path class="st4" d="M2126.48,1283.43c0,0,0.1,9.81,22.83,26.17c8.92-6.39,14.28-13.2,13.99-20.11
							c-0.13-3.28-1.36-6.34-3.49-9.27C2142.12,1282.95,2126.48,1283.43,2126.48,1283.43z"/>
					</g>
					<g>
						<path class="st1" d="M2149.31,1312.68l-1.46-1.05c-23.09-16.62-23.86-27.04-23.87-28.17l-0.02-2.45l2.45-0.08
							c0.16,0,15.7-0.51,33.03-3.18l1.51-0.23l0.9,1.24c2.52,3.48,3.82,6.96,3.96,10.63c0.31,7.38-4.74,14.87-15.03,22.24
							L2149.31,1312.68z M2129.74,1285.79c1.53,3.53,6.08,10.74,19.56,20.72c7.85-5.94,11.72-11.63,11.5-16.91
							c-0.09-2.25-0.81-4.44-2.18-6.66C2146.27,1284.75,2135.03,1285.51,2129.74,1285.79z"/>
					</g>
				</g>
				<g>
					<path class="st5" d="M1624.08,779.38c51.59-48.92,288.74-268.23,348.17-233.38c104.12,61.04,63.32,354.42,52.58,421.05
						L1624.08,779.38z"/>
				</g>
				<g class="st6">
					<path class="st0" d="M1624.07,779.39l42.67,19.98c76.57-70.86,274.01-245.35,327.49-213.98c9.3,5.46,17.47,12.78,24.58,21.64
						c-10.67-27.22-25.72-48.79-46.57-61.02C1912.83,511.17,1675.66,730.46,1624.07,779.39z"/>
				</g>
				<g>
					<path class="st1" d="M2024.85,981.4c-0.76,0-1.53-0.06-2.3-0.19c-7.82-1.26-13.14-8.62-11.88-16.45
						c25.79-160,29.31-362.44-45.67-406.39c-4.95-2.91-35.95-12.46-161,84.25c-74.74,57.81-149.05,127.26-170.05,147.17
						c-5.75,5.45-14.83,5.21-20.28-0.54s-5.21-14.83,0.54-20.28c21.24-20.14,96.43-90.41,172.24-149.04
						c131.51-101.72,173.17-97.97,193.06-86.31c109.97,64.47,73.33,349.79,59.48,435.71C2037.86,976.38,2031.76,981.4,2024.85,981.4
						z"/>
				</g>
				<g>
					<path class="st7" d="M1956.82,634.42c0,0,12.44-7.11,17.32,24.72c8.36,54.54,9.24,194.92-44.71,255.31
						c0,0-117.51-122.13-145.42-133.75c-27.92-11.62,22.99-38.56,34.92-61.11C1830.84,697.03,1945.85,631.28,1956.82,634.42z"/>
				</g>
				<g class="st2">
					<path class="st1" d="M1784.01,780.68c16.27,6.8,62.91,51.02,99.02,86.78c24.9-68.24,22.93-162.68,16.39-205.12
						c-0.07-0.48-0.14-0.95-0.21-1.38c-34.86,20-73.66,46-80.31,58.61C1806.98,742.13,1756.07,769.09,1784.01,780.68z"/>
				</g>
				<g>
					<path class="st1" d="M1910.79,908.07c-5.78-6.14-11.43-12.38-17.29-18.41c-5.98-5.92-11.73-12.07-17.92-17.77
						c-12.05-11.73-24.76-22.72-37.61-33.49c-12.98-10.61-26.38-20.65-40.05-30.21c-13.6-9.41-28.02-18.63-42.05-25.8
						c-5.04-2.57-7.03-8.74-4.46-13.78c0.23-0.46,0.5-0.89,0.78-1.29l0.1-0.14c14.01-19.37,30.2-36.89,47.52-52.99
						c17.45-15.98,36.03-30.54,55.32-43.99c19.37-13.33,39.44-25.56,60.13-36.67c5.2-2.73,10.42-5.43,15.7-8.04
						c0.43-0.24,1.99-0.93,3.02-1.35c1.15-0.46,2.38-0.79,3.58-1.14c2.45-0.55,4.96-0.89,7.47-0.81c5.02,0.09,9.97,1.45,14.27,4.01
						c4.29,2.52,8.03,6.16,10.5,10.54c0.6,1.1,1.22,2.2,1.65,3.36l0.68,1.74l0.37,1.11l1.4,4.28c1.81,5.72,3.47,11.46,4.97,17.25
						c5.94,23.15,9.28,46.88,10.35,70.72c0.79,23.86-0.88,47.85-5.64,71.26c-2.35,11.78-5.23,22.78-8.15,34.16
						c-2.92,11.29-6.27,22.5-10,33.63c-1.86,5.56-3.83,11.11-5.96,16.62c-1.07,2.75-2.17,5.5-3.33,8.24l-0.88,2.05
						c-0.28,0.67-0.82,1.69-1.23,2.51c-0.86,1.73-2.03,3.35-3.29,4.84c-5.06,6.08-12.88,9.33-20.42,9.13
						c-7.62-0.02-14.94-3.95-19.48-9.62L1910.79,908.07z M1919.14,900.9c3.04,2.97,7.03,4.58,11.03,4.15
						c3.93-0.4,7.66-2.28,9.73-5.35c0.52-0.75,1.03-1.53,1.36-2.42c0.18-0.5,0.34-0.74,0.57-1.42l0.68-1.98
						c0.9-2.64,1.75-5.32,2.58-8c1.65-5.38,3.15-10.83,4.55-16.32c5.42-21.91,10.27-44.51,13.76-66.71
						c3.6-21.94,4.2-44.29,2.82-66.46c-1.48-22.18-5.19-44.24-11.07-65.66c-1.43-5.36-3.01-10.68-4.72-15.94l-1.32-3.93l-0.32-0.94
						l-0.13-0.27c-0.04-0.2-0.18-0.34-0.25-0.51c-0.35-0.66-0.93-1.14-1.59-1.53c-0.66-0.41-1.46-0.58-2.19-0.58
						c-0.38-0.03-0.73,0.08-1.09,0.12c-0.17,0.1-0.36,0.1-0.53,0.19c-0.28,0.17-0.08-0.01-0.92,0.43
						c-5.03,2.54-10.03,5.18-15.01,7.84c-19.91,10.71-39.46,22.19-58.15,34.86c-18.8,12.5-36.91,26-53.81,40.78
						c-16.99,14.66-32.81,30.61-46.49,48.13l-3.57-15.21c15.9,8.88,29.75,18.61,43.71,28.99c13.83,10.35,26.96,21.53,39.76,33.01
						c12.62,11.68,25.03,23.55,36.72,36.11c6.01,6.12,11.56,12.66,17.33,18.98c5.66,6.43,11.08,13.05,16.63,19.57L1919.14,900.9z"/>
				</g>
				<g>
					<path class="st0" d="M2221.14,1415.16c1.47,32.52-76.05,6.01-76.05,6.01s-2.55,10.69,16.3,36.99
						c14.01,19.53,25.84,33.61,23.25,45.73c-2.72,12.9-23.07,18.7-47.73,19.81c-17.23,0.76-31.24,5.27-46.79,28.52
						c-3.04,4.5-6.1,9.74-9.28,15.81c-0.03,0.05-0.03,0.05-0.07,0.09l0.01,0.04c-45.71,73.98-114.47,133.8-199.3,180.56
						c0,0-478.92,214.23-786.2,60.99c-47.63-24.8-90.79-57.2-127.09-98.47c-7.44-0.87-14.46,0.27-21.84,2.32
						c-23.73,6.61-44.93,7.46-51.55-3.97c-6.19-10.72-0.99-28.93,5.12-52.28c5.01-18.88,6.34-30.45,6.66-35.53
						c0.09-1.31-1.13-2.19-2.05-1.53c-11.44,8.2-64.23,44.3-71.99,16.34c-1.54-5.54-0.32-15.63,1.97-28.64
						c4.1-23.5,11.61-56.52,12.23-88.89c1.54-81.94,3.9-139.83,5.67-174.86c0.03-0.94,0.05-1.92,0.11-2.86
						c0.03-0.9,0.1-1.84,0.13-2.74c0.03-0.9,0.11-1.76,0.15-2.62c0.59-10.2,1.43-20.35,2.59-30.51
						c5.17-46.89,15.79-94.28,30.32-148.34l151.93-224.89l101.32-149.96c64.95-45.22,141.38-78.86,229.48-96.93
						c17.78-3.68,35.35-6.6,52.64-8.66c0.43-0.1,0.88-0.13,1.32-0.15c32.36-3.97,63.54-3.75,93.86-1.08
						c30.47,2.6,60.08,7.64,89.28,13.19C1832.14,732,1978.2,914.18,1978.2,914.18c35.26,44.22,64.1,84.79,87.52,127.2
						c8.97,16.2,17.16,32.6,24.59,49.59c2.13,4.85,4.21,9.7,6.19,14.66c0,0,0.18,0.38,0.5,1.23c3.79,9.32,29.9,74.12,74.12,201.04
						C2187.68,1355.32,2220.39,1399.06,2221.14,1415.16z"/>
				</g>
				<g>
					<path class="st5" d="M2090.31,1090.97c-88.35,43.5-195.44,66.52-310.3,26.79c-260.3-90.05-274.69-323.68-263.74-442.32
						c30.47,2.6,60.08,7.64,89.28,13.19C1832.14,732,1978.2,914.18,1978.2,914.18c35.26,44.22,64.1,84.79,87.52,127.2
						C2074.7,1057.58,2082.89,1073.98,2090.31,1090.97z"/>
				</g>
				<g class="st2">
					<path class="st1" d="M899.93,1657.31c-6.14,23.36-11.31,41.55-5.12,52.27c6.61,11.43,27.8,10.6,51.54,3.98
						c7.39-2.04,14.39-3.2,21.83-2.33c36.29,41.31,79.47,73.68,127.11,98.48c307.29,153.26,786.18-60.99,786.18-60.99
						c84.85-46.75,153.6-106.57,199.31-180.54l-0.01-0.04c0.03-0.05,0.06-0.05,0.09-0.1c3.16-6.05,6.23-11.3,9.28-15.81
						c15.53-23.25,29.54-27.75,46.79-28.52c24.63-1.09,44.99-6.89,47.72-19.8c2.58-12.11-9.25-26.2-23.25-45.73
						c-1.26-1.73-2.42-3.43-3.48-5.03c-8.43,3.03-19.4,4.7-31.41,5.21c-17.25,0.78-31.26,5.27-46.79,28.52
						c-3.05,4.51-6.12,9.76-9.28,15.81c-0.03,0.05-0.06,0.05-0.09,0.1l0.01,0.04c-45.7,73.97-157.14,150.5-210.85,169.5
						c-81.28,28.76-409.57,154.81-769.63,57.11c-46.95-12.74-87.63-36.21-121.66-72.1c-8.21-8.66-20.54-12.34-32.06-9.18
						c-0.07,0.02-0.15,0.04-0.22,0.06c-13.05,3.64-25.33,5.52-34.86,4.57C900.74,1654.23,900.34,1655.73,899.93,1657.31z"/>
				</g>
				<g>
					<path class="st1" d="M1238.03,1521.49c-5.74-14.18-8.38-28.69-9.46-43.88c-0.84-15.11,0.36-30.82,5.16-46.25
						c4.73-15.34,13.11-30.56,25.42-42.4c12.05-12.03,27.61-20.29,42.89-24.82c15.34-4.86,32.33-7.06,49.12-4.44
						c16.78,2.54,32.66,9.95,45.23,20.31c25.18,21.01,38.76,50.79,41.78,80.22c0.33,3.24-2.02,6.13-5.26,6.46
						c-2.61,0.27-5-1.21-6-3.49l-0.05-0.12c-10.9-24.92-26.97-47.06-47.48-59.69c-10.15-6.31-21.14-10.1-32.4-10.98
						c-11.27-0.96-22.83,0.99-34.21,4.82c-23.14,7.3-40.02,22.4-49.79,44.84c-9.93,22.2-13.15,49.69-13.57,76.86l-0.01,0.44
						c-0.05,3.26-2.73,5.86-5.99,5.81C1240.96,1525.14,1238.89,1523.62,1238.03,1521.49z"/>
				</g>
				<g>
					<path class="st1" d="M1791.45,1372.55c-5.59-13.44-8.19-27.21-9.3-41.66c-0.87-14.37,0.21-29.33,4.75-44.06
						c4.47-14.64,12.46-29.21,24.23-40.53c11.51-11.51,26.4-19.4,40.96-23.73c14.63-4.63,30.87-6.72,46.92-4.19
						c16.04,2.45,31.21,9.56,43.18,19.48c23.98,20.12,36.76,48.53,39.42,76.52c0.31,3.24-2.07,6.12-5.32,6.43
						c-2.58,0.25-4.93-1.21-5.94-3.45l-0.06-0.13c-10.53-23.49-25.82-44.25-45.12-55.99c-9.55-5.87-19.83-9.37-30.35-10.15
						c-10.52-0.87-21.33,0.97-32.01,4.58c-21.7,6.89-37.38,20.86-46.67,41.88c-9.43,20.79-12.64,46.74-13.32,72.44l-0.01,0.45
						c-0.09,3.26-2.8,5.84-6.07,5.75C1794.35,1376.13,1792.32,1374.64,1791.45,1372.55z"/>
				</g>
				<g class="st2">
					<path class="st1" d="M1747.61,1531.98c-29.16,24.34-63.74,14.58-81.27-2.72c0,0-24.41,51.04-77.39,33.85
						c-33.15-10.75-27.08-55.57-27.08-55.57l187.12-30.47C1748.99,1477.07,1770.23,1513.1,1747.61,1531.98z"/>
				</g>
				<g>
					<g>
						<path class="st0" d="M1739.83,1464.69c0,0,19.58,33.22-1.27,50.62c-26.9,22.45-60.01,2.9-76.19-13.06
							c0,0-24.01,55.18-70.12,41.79c-30.86-8.96-24.96-51.24-24.96-51.24L1739.83,1464.69z"/>
					</g>
					<g>
						<path class="st1" d="M1606.36,1548.62c-4.66,0-9.59-0.67-14.8-2.18c-32.56-9.45-26.8-53.54-26.74-53.99l4.95,0.69
							c-0.06,0.4-5.22,40.25,23.18,48.5c43.43,12.61,66.18-38.22,67.13-40.39l1.46-3.34l2.59,2.56
							c4.14,4.09,41.37,39.17,72.83,12.92c19-15.85,0.9-47.12,0.71-47.43l4.31-2.54c0.84,1.43,20.4,35.27-1.82,53.81
							c-26.92,22.47-59.92,4.74-77.05-10.83C1657.75,1516.68,1638.47,1548.62,1606.36,1548.62z"/>
					</g>
				</g>
				<g>
					<path class="st1" d="M1606.28,1555.08c-5.25,0-10.76-0.75-16.52-2.43c-30.31-8.8-33.75-43.81-31.34-61.09
						c0.68-4.9,5.21-8.32,10.12-7.64c4.9,0.68,8.33,5.21,7.64,10.12c-0.19,1.39-4.39,34.72,18.58,41.39
						c37.89,10.99,58.54-34.82,59.4-36.77l5.24-11.91l9.27,9.12c3.71,3.66,37.07,35.15,64.15,12.56
						c14.59-12.18-0.56-38.92-0.72-39.18c-2.51-4.27-1.09-9.76,3.17-12.28c4.27-2.52,9.76-1.09,12.28,3.17
						c0.96,1.63,23.14,40.04-3.24,62.06c-24.59,20.52-55.9,12.58-79.3-5.71C1654.19,1534.25,1633.87,1555.07,1606.28,1555.08z"/>
				</g>
				<g class="st2">
					<path class="st1" d="M1592.27,1544.04c46.08,13.39,70.11-41.79,70.11-41.79c16.16,15.98,49.3,35.51,76.19,13.06
						c13.62-11.38,2.66-36.53-1.48-47.72c-0.82,6.33-1.88,18.44-4.79,24.37c-11.25,22.96-52.1-9.24-68.26-25.19
						c0,0-32.23,75.07-75.29,53.9c-11.98-5.89-14.46-21.38-17.85-30.54C1570.67,1502.39,1569.04,1537.3,1592.27,1544.04z"/>
				</g>
				<g>
					<path class="st1" d="M1663.44,1439.1c2.18,4.89,4,9.61,5.74,14.55c1.7,4.91,3.26,9.91,4.51,15.08
						c1.23,5.18,2.35,10.45,2.83,16.06c0.48,5.61,0.59,11.48-0.65,17.9l-0.07,0.34c-1.14,5.87-6.82,9.71-12.69,8.57
						c-5.87-1.14-9.71-6.82-8.57-12.69c0.13-0.68,0.35-1.39,0.6-2.01c1.33-3.28,2.13-7.46,2.54-11.84c0.44-4.4,0.31-9.09,0.05-13.79
						c-0.27-4.72-0.87-9.51-1.62-14.29c-0.76-4.75-1.71-9.65-2.83-14.2l-0.04-0.17c-0.72-2.91,1.06-5.84,3.97-6.56
						C1659.78,1435.41,1662.39,1436.75,1663.44,1439.1z"/>
				</g>
				<g>
					<path class="st1" d="M1572.14,1442.13c7.17,21.68,53,28.12,84.93,23.31c24.11-3.63,60.23-25.45,56.41-49.58
						c-3.01-19.05-26.67-29.39-83.32-15.86C1583.83,1411.07,1567.36,1427.66,1572.14,1442.13z"/>
				</g>
				<g class="st8">
					<g>
						<path class="st0" d="M1633.85,1412.06c-0.32,4.15,10.92,7.44,19.28,6.19c4.75-0.71,21.76-3.48,22.11-8.03
							c0.35-4.55-5.04-7.89-21.04-6.9C1639.67,1404.21,1634.17,1407.9,1633.85,1412.06z"/>
					</g>
					<g>
						<path class="st1" d="M1649.33,1421.01c-6.28,0-12.96-1.84-15.98-4.65c-1.8-1.67-2.07-3.37-1.99-4.49
							c0.49-6.43,8.13-10.15,22.7-11.05c11.24-0.7,18.31,0.61,21.63,3.98c1.51,1.53,2.22,3.47,2.05,5.61
							c-0.16,2.01-0.52,6.74-24.23,10.31C1652.17,1420.92,1650.76,1421.01,1649.33,1421.01z M1636.35,1412.21
							c0.54,1.63,8.7,4.73,16.41,3.56c15.14-2.28,19.59-5.04,20.03-5.91c0.02-0.54-0.17-1.05-0.67-1.55
							c-1.01-1.02-4.74-3.31-17.76-2.5C1641.45,1406.61,1636.59,1409.63,1636.35,1412.21z M1636.34,1412.25L1636.34,1412.25
							L1636.34,1412.25L1636.34,1412.25z"/>
					</g>
				</g>
				<g>
					<path class="st0" d="M1201.26,840.79c-63.37-32.22-353.12-175.01-400.18-124.69c-82.45,88.13,62.85,396.59,92.1,457.41
						L1201.26,840.79z"/>
				</g>
				<g class="st6">
					<path class="st0" d="M2221.11,1415.17c0.31,6.33-2.39,10.38-6.9,12.9c-11.08-20.36-26.2-46.72-35.81-74.28
						c-44.22-126.91-70.29-191.72-74.12-201.04c-0.28-0.81-0.46-1.19-0.46-1.19c-9.01-22.33-19.23-43.51-30.78-64.29
						c-23.46-42.41-42.75-90.49-78.01-134.72c0,0-155.62-174.66-382.17-218.03c-58.26-11.03-118.22-20.11-183.18-12.1
						c-0.4,0.02-0.85,0.04-1.31,0.19c-17.29,2.02-34.82,4.94-52.6,8.61c-88.11,18.08-159.93,44.55-225.68,97.96l-21.44,19.04
						c-93.58-46.15-295.1-133.4-337.42-88.1c-7.39,7.86-13.14,17.22-17.42,27.71c2.47-29.11,10.79-54.08,27.27-71.75
						c40.29-43.05,230.95,37.86,324.8,82.26l-3.28-4.15c72-56.84,157.76-90.78,245.83-108.85c17.82-3.68,35.35-6.6,52.64-8.62
						c0.47-0.15,0.91-0.17,1.31-0.19c64.92-8.01,124.92,1.07,183.18,12.1c226.55,43.37,372.66,225.54,372.66,225.54
						c35.22,44.23,64.06,84.8,87.48,127.21c11.59,20.78,21.77,41.96,30.82,64.28c0,0,0.14,0.39,0.46,1.19
						c3.83,9.31,29.9,74.12,74.12,201.04C2187.65,1355.34,2220.4,1399.07,2221.11,1415.17z"/>
				</g>
				<g>
					<path class="st7" d="M841.03,796.48c0,0-13.95-3.27-9.57,28.62c7.51,54.67,46.59,189.49,115.5,232.04
						c0,0,77.91-150.51,101.37-169.6c23.46-19.09-33.01-30.43-50.86-48.65C979.61,820.67,850.65,790.35,841.03,796.48z"/>
				</g>
				<g class="st2">
					<path class="st1" d="M1048.31,887.54c-13.66,11.14-45.8,66.81-70.24,111.37c-43.29-58.34-68.26-149.44-74.07-191.98
						c-0.07-0.48-0.14-0.95-0.19-1.38c39.11,9.26,83.7,23.14,93.66,33.34C1015.32,857.12,1071.8,868.47,1048.31,887.54z"/>
				</g>
				<g>
					<path class="st1" d="M842.96,784.4c20.64,2.22,40.73,5.73,60.87,10c20.08,4.31,40.02,9.5,59.69,15.79
						c19.67,6.26,39.09,13.61,58.01,22.36c18.93,8.74,37.32,19,54.74,31.14l0,0l0.26,0.2c5.44,4.16,6.49,11.94,2.33,17.38
						c-0.44,0.57-0.97,1.15-1.48,1.62c-6.31,5.77-13.03,12.86-19.24,19.75c-6.29,6.99-12.4,14.21-18.28,21.63
						c-11.82,14.8-22.9,30.27-33.39,46.17c-10.25,16.05-20.26,32.33-29.17,49.25c-4.72,8.33-8.74,17-13.12,25.52
						c-4.21,8.6-8.06,17.37-12.12,26.06l-0.11,0.23c-1.27,2.73-4.52,3.91-7.25,2.64c-2.62-1.22-3.81-4.28-2.77-6.94
						c3.56-9.05,6.94-18.19,10.67-27.19c3.91-8.92,7.48-18.01,11.76-26.78c8.03-17.8,17.23-35.06,26.74-52.17
						c9.76-16.98,20.2-33.61,31.52-49.72c5.64-8.07,11.54-15.98,17.71-23.75c6.27-7.83,12.37-15.21,19.85-22.96l1.11,19.2h0
						c-30.56-24.09-66.48-42.21-103.73-56.55c-18.67-7.17-37.79-13.34-57.17-18.69c-19.34-5.29-39.12-9.91-58.74-13.17l-0.17-0.03
						c-3.02-0.5-5.07-3.36-4.56-6.38C837.38,786.09,840.07,784.09,842.96,784.4z"/>
				</g>
				<g>
					<path class="st1" d="M1831.34,1762.55c35.37-18.45,70.01-38.09,102.69-60.33c32.69-22.2,63.14-47.4,89.9-76.02
						c6.56-7.27,13.07-14.58,19.17-22.24c3.18-3.73,6.03-7.7,9-11.58l4.19-5.54l4.06-6.15c2.67-4.12,5.33-8.29,7.69-12.32l1.65-2.92
						c0.22-0.42,0.52-0.96,0.64-1.25l0.77-1.64c1.29-2.7,2.61-5.09,4.03-7.51c5.66-9.54,12.56-18.42,21.36-26
						c8.77-7.47,19.74-13.65,32.05-15.75l4.62-0.51c1.44-0.14,3.33-0.36,4.32-0.38c2.34-0.09,4.66-0.25,6.96-0.45
						c4.59-0.43,9.1-1.09,13.33-2.07c4.21-0.97,8.19-2.33,11.19-3.97c3.02-1.69,4.47-3.46,4.48-4.18c0.44-1.07,0.26-4.17-1.09-7.75
						c-1.27-3.6-3.32-7.62-5.64-11.65c-4.71-8.17-10.3-16.3-15.85-25.12c-5.51-8.89-10.7-17.84-15.11-28.18l-0.21-0.5l-0.3-0.78
						c-0.18-0.53-0.34-1.06-0.45-1.64c-0.48-2.27-0.38-4.8,0.52-7.25c0.89-2.42,2.62-4.92,5.51-6.66c2.85-1.81,7-2.21,9.89-1.3
						l3.79,1.15l6.93,1.95c4.64,1.24,9.3,2.32,13.93,3.24c9.18,1.8,18.72,3.01,26.51,2.27c3.79-0.28,7.03-1.58,7.3-2.1
						c0.2-0.23,0.07-0.02,0.21-0.38c0.18-0.32,0.03-1.64-0.11-2.41c-0.62-2.78-2.57-7.25-4.5-11.33c-2.11-4.24-4.35-8.54-6.72-12.89
						c-9.51-17.4-19.64-35.26-28.19-54.14c-2.17-4.7-4.18-9.52-6.16-14.37c-1.87-4.86-3.77-9.95-5.38-14.58l-10.02-28.35
						l-20.38-56.57c-13.8-37.56-27.84-75.29-42.74-112.08l22.72-9.17l0.48,1.2l-22.86,8.82c-12.8-31.87-29.29-63.27-47.81-92.9
						c-18.58-29.73-39.43-58.2-61.31-86.01c-21.11-27.31-46.49-51.95-72.63-75.26c-26.36-23.12-54.06-44.82-83.4-64
						c-7.18-5.03-14.85-9.28-22.25-13.96l-11.19-6.87c-3.77-2.21-7.67-4.2-11.5-6.32c-7.7-4.14-15.34-8.4-23.09-12.45l-23.73-11.12
						c-3.98-1.79-7.85-3.85-11.91-5.43l-12.18-4.78c-8.14-3.12-16.19-6.52-24.4-9.42l-24.94-7.8c-4.16-1.27-8.29-2.67-12.48-3.85
						l-12.71-2.93l-25.41-5.88c-8.61-1.75-17.38-3.26-26.05-4.77c-17.39-2.97-34.75-5.54-52.1-7.38
						c-17.36-1.79-34.71-2.83-52.01-2.85c-8.65-0.05-17.28,0.27-25.89,0.74l-12.89,0.99l-6.65,0.73l-3.32,0.36l-1.66,0.18
						c-0.09,0.01-0.39,0.04-0.31,0.04l0.26-0.03c0.17-0.03,0.34-0.08,0.5-0.16l-1.74,0.32c-26.25,3.18-52.52,8.17-77.94,14.91
						c-25.51,6.77-50.56,15.59-74.95,26c-48.75,20.79-95.32,47.5-136.39,80.34l-7.24,5.79l-8.25-4.18
						c-29.65-15.02-59.79-29.26-90.26-42.48c-30.48-13.18-61.35-25.41-92.63-35.51c-15.64-5.02-31.39-9.5-47.14-12.9
						c-15.69-3.31-31.64-5.84-46.48-5.47c-7.44,0.08-14.4,1.25-20.17,3.22c-2.93,0.97-5.24,2.35-7.3,3.76
						c-0.87,0.93-1.72,1.36-2.77,2.52l-3.22,4.02c-8.52,10.81-13.81,24.79-16.61,39.73c-2.82,14.98-3.34,30.85-2.65,46.79
						c0.65,15.96,2.69,32.08,5.56,48.12c2.79,16.05,6.37,32.07,10.59,47.97c4.11,15.92,8.84,31.75,13.97,47.46
						c10.21,31.44,22.04,62.47,34.95,93.04c12.93,30.49,26.9,60.9,42.37,89.67l2.86,5.32l-1.74,5.79
						c-4.57,15.18-8.4,30.73-11.77,46.45c-3.22,15.77-6.05,31.68-8.48,47.68c-2.37,16.02-4.43,32.11-6.16,48.25
						c-0.86,8.07-1.66,16.15-2.35,24.23l-0.97,12.11l-0.77,11.59l-0.06,1.04c-0.5,6.36-0.87,13.94-1.2,21l-0.88,21.61l-1.33,43.37
						l-1.86,86.91c-0.51,30.73-6.52,60.42-11.67,88.52c-1.21,6.93-2.41,13.96-2.84,19.91c-0.1,1.46-0.19,2.93-0.1,3.89
						c-0.04,1.43,0.19,1.39,0.11,1.8c0.17,0.4,0.24,0.57,0.09,0.29c-0.18-0.18-0.59-0.7-0.96-0.82c-0.75-0.32,0.24,0.12,2.19-0.1
						c1.93-0.16,4.56-0.77,7.27-1.66c5.49-1.79,11.45-4.58,17.28-7.76c5.85-3.18,11.68-6.78,17.36-10.6l4.21-2.9l1.03-0.73
						c0.46-0.22-0.74,0.27,2.83-1.72c2.72-1.35,6.31-1.9,9.4-1.38c6.33,1.09,10.19,5.02,12.17,9c1,2.03,1.54,4.19,1.67,6.28
						c0.03,0.52,0.04,1.02,0.03,1.53l-0.04,0.82l-0.03,0.4c-0.33,4.27-0.86,8.19-1.49,12.08c-1.26,7.75-2.92,15.21-4.77,22.58
						c-1.87,7.3-3.78,14.14-5.36,20.85c-1.56,6.6-2.88,13.23-2.89,18.11c-0.03,2.41,0.33,4.19,0.62,4.88
						c0.11,0.07,0.15,0.33,0.18,0.31c0.08-0.07-0.13-0.03-0.01-0.04c0.03,0.01,0.15,0.21,0.69,0.48c2,1.34,8.18,2.58,14.36,2.89
						c6.36,0.38,13.23,0.3,20.27,0.03c2.84-0.12,8.9-0.34,13.22,0.35c4.63,0.55,8.88,1.6,13,2.77c8.16,2.44,15.51,5.69,22.51,9.23
						c13.95,7.13,26.6,15.41,38.78,24.06c12.16,8.66,23.82,17.73,35.24,26.86l16.96,13.57c2.79,2.21,5.58,4.4,8.3,6.45
						c2.66,2.01,5.58,4.09,7.3,5.1l-3.43-1.28c1.49,0.32,3.39,1.19,4.35,1.82l0.18,0.11l0.36,0.22l0.71,0.45l1.42,0.9l2.85,1.78
						l5.76,3.48c3.86,2.29,7.75,4.53,11.69,6.68c7.87,4.34,15.9,8.38,24,12.32c8.12,3.9,16.37,7.56,24.73,10.97
						c8.45,3.45,16.56,6.58,25.23,9.36c17.19,5.58,34.73,10.37,52.56,14.15c17.82,3.89,35.92,6.81,54.17,9.36l0.04,0
						c2.91,0.41,4.94,3.1,4.54,6.01c-0.37,2.63-2.6,4.54-5.17,4.59c-37.52,0.73-75.43-3.37-112.33-12.77
						c-9.18-2.27-18.66-5.07-27.51-8.28c-8.98-3.15-17.88-6.57-26.67-10.28c-8.81-3.66-17.43-7.81-25.94-12.16
						c-4.26-2.17-8.47-4.44-12.66-6.75l-6.25-3.54l-3.1-1.82l-1.55-0.91l-0.77-0.46l-0.39-0.23l-0.19-0.11
						c0.83,0.55,2.61,1.35,3.98,1.59l-3.43-1.28c-4.62-2.52-7.59-4.72-10.76-7.02c-3.11-2.27-6.06-4.53-8.98-6.78l-17.21-13.41
						c-11.37-8.85-22.74-17.45-34.33-25.48c-11.57-8.01-23.41-15.46-35.38-21.38c-5.97-2.93-12.01-5.45-17.79-7.08
						c-2.86-0.76-5.7-1.42-8.28-1.67c-2.88-0.33-4.1-0.23-8.5-0.03c-7.45,0.37-15.1,0.61-23.24,0.23
						c-8.18-0.68-16.91-1.03-27.68-6.85c-2.62-1.48-5.38-3.58-7.8-6.24c-1.25-1.23-2.26-2.87-3.29-4.37
						c-0.97-1.53-1.59-2.98-2.32-4.51c-2.45-6.07-2.9-11.64-2.9-16.46c0.14-9.67,1.98-17.33,3.67-24.83
						c1.75-7.41,3.73-14.56,5.45-21.31c1.69-6.7,3.16-13.43,4.22-20c0.53-3.27,0.95-6.55,1.17-9.51l0.02-0.28
						c0.01-0.15,0-0.08-0.02,0.47c-0.01,0.4,0,0.79,0.03,1.19c0.1,1.63,0.53,3.35,1.33,4.98c1.59,3.17,4.68,6.45,10.11,7.39
						c2.65,0.45,5.76-0.04,8.07-1.18c3.17-1.78,1.62-1,1.71-0.96l-1.18,0.84l-4.75,3.28c-6.36,4.28-12.88,8.33-19.77,12.09
						c-6.91,3.74-14.09,7.26-22.41,9.96c-4.18,1.33-8.64,2.49-13.94,2.96c-5.21,0.36-11.8,0.33-18.99-3.46
						c-3.49-1.94-6.8-4.78-9.01-7.99c-1.27-1.61-1.93-3.17-2.81-4.82c-0.74-1.6-1.2-3.1-1.73-4.68c-0.76-3.14-1.29-6.76-1.23-8.97
						c-0.13-2.67,0.02-4.83,0.17-6.98c0.67-8.53,2.03-15.8,3.31-23.16c5.43-28.88,10.97-56.4,11.52-83.83l2.18-87.17l1.5-43.64
						l0.97-21.88c0.38-7.44,0.71-14.35,1.38-22.45l-0.06,1.04l0.89-12.99l1.04-12.43c0.72-8.28,1.52-16.54,2.41-24.8
						c1.77-16.51,3.88-33,6.32-49.46c5.02-32.92,11.36-65.76,21.2-98.32l1.12,11.11c-16.31-30.34-30.34-60.99-43.62-92.26
						c-13.2-31.24-25.3-62.97-35.81-95.34c-5.28-16.18-10.17-32.52-14.45-49.08c-4.38-16.52-8.13-33.28-11.09-50.28
						c-3.03-16.97-5.23-34.22-5.96-51.78c-0.75-17.54-0.25-35.42,3.13-53.45c3.38-17.9,9.93-36.37,22.19-52.02l4.69-5.76
						c1.75-1.96,4.32-4.03,6.52-5.94c4.73-3.45,9.83-6.16,14.86-7.89c10.06-3.5,19.92-4.78,29.24-4.94
						c18.75-0.41,36.18,2.55,53.26,6.1c17.04,3.68,33.6,8.41,49.9,13.64c32.58,10.53,64.16,23.06,95.26,36.5
						c31.08,13.5,61.65,27.92,91.84,43.25l-15.49,1.61c43.84-34.77,92.37-62.29,143.43-83.88c25.53-10.8,51.81-19.94,78.75-27
						c27.04-7.05,54.21-12.1,81.82-15.36l-1.74,0.32c0.71-0.14,1.43-0.27,2.16-0.37l1.61-0.19l1.66-0.18l3.33-0.35l6.65-0.71
						l13.79-1.01c9.2-0.48,18.41-0.78,27.6-0.7c18.38,0.09,36.68,1.26,54.81,3.2c18.12,1.98,36.06,4.71,53.83,7.81
						c8.89,1.58,17.71,3.13,26.57,4.96l26.71,6.27l13.35,3.14c4.39,1.25,8.72,2.72,13.08,4.07l26.11,8.28
						c8.59,3.07,16.99,6.63,25.48,9.93l12.71,5.04c4.24,1.67,8.27,3.81,12.41,5.7l24.69,11.68c8.05,4.24,15.98,8.69,23.97,13.03
						c3.97,2.21,8.01,4.3,11.93,6.61l11.59,7.17c7.66,4.88,15.6,9.34,23.02,14.57c30.33,19.99,58.88,42.51,86.05,66.51
						c26.96,24.23,52.99,49.61,75.49,78.85c44.33,56.59,85.05,117.33,112.17,185.86l-22.86,8.82l-0.47-1.2l22.72-9.17
						c15.11,37.71,28.95,75.32,42.71,113.19l20.25,56.84l9.95,28.48c1.67,4.87,3.28,9.18,4.99,13.7c1.8,4.46,3.63,8.92,5.66,13.33
						c7.95,17.75,17.59,34.91,27.27,52.77c2.42,4.47,4.81,9.08,7.15,13.84c2.26,5.02,4.64,9.7,6.28,16.72
						c0.73,4.14,1.05,7.93-0.04,12.52c-1.01,4.52-3.76,9.25-7.32,12.35c-3.53,3.15-7.39,4.94-10.79,5.98
						c-3.44,1.06-6.73,1.67-9.78,1.92c-12.26,1.02-22.84-0.71-33.32-2.71c-5.21-1.05-10.32-2.27-15.38-3.64l-7.56-2.16l-3.41-1.05
						c2.28,0.74,5.76,0.4,8.08-1.07c2.36-1.41,3.68-3.39,4.35-5.21c0.68-1.85,0.75-3.74,0.4-5.4c-0.66-2.38-0.41-1.26-0.3-1.15
						c3.42,8.16,8.24,16.7,13.29,24.87c5.1,8.2,10.88,16.64,16.18,25.89c2.65,4.68,5.26,9.61,7.33,15.48
						c1.94,5.77,3.84,13.1,1.36,21.74c-1.25,4.41-3.82,8.27-6.59,11.01c-2.78,2.92-5.76,4.82-8.67,6.49
						c-5.83,3.14-11.51,4.87-17.06,6.17c-5.56,1.27-11.01,2.02-16.42,2.51c-2.7,0.22-5.39,0.4-8.07,0.5
						c-1.53,0.03-2.12,0.21-3.18,0.29l-2.87,0.27c-7.58,1.27-14.8,5.14-21.29,10.59c-6.46,5.49-12.15,12.62-16.73,20.32
						c-1.14,1.9-2.24,3.91-3.12,5.74l-0.84,1.76c-0.4,0.85-0.72,1.4-1.08,2.09l-2.06,3.64c-2.73,4.62-5.49,8.9-8.3,13.2l-4.26,6.4
						l-4.89,6.47c-3.14,4.08-6.17,8.25-9.52,12.16c-6.45,8.03-13.31,15.7-20.24,23.31c-28.13,30.07-60.23,56.06-94.27,78.51
						c-17,11.28-34.6,21.52-52.35,31.35c-17.82,9.72-36.03,18.6-54.29,27.27c-4.37,2.08-9.6,0.21-11.68-4.16
						c-2.03-4.27-0.3-9.35,3.85-11.52L1831.34,1762.55z"/>
				</g>
			</g>
			<g>
				<path class="st1" d="M1420.04,1868.36c-205.61,0-403.35-58.72-568.65-170.68c-205.52-139.19-336.29-343.95-368.23-576.56
					C417.31,641.56,797.42,191.85,1330.5,118.66c533.09-73.21,1020.34,257.41,1086.19,736.98s-314.27,929.27-847.34,1002.47
					C1519.35,1864.97,1469.46,1868.36,1420.04,1868.36z M1478.36,137.2c-47.42,0-95.46,3.22-143.97,9.88
					C817,218.13,447.88,653.33,511.58,1117.23c30.82,224.43,157.21,422.13,355.89,556.7c199.17,134.89,447.04,190.2,697.97,155.75
					c517.4-71.04,886.52-506.25,822.82-970.14C2330.53,439.13,1936.77,137.2,1478.36,137.2z"/>
			</g>
			<g class="st6">
				<g>
					<path class="st0" d="M838.43,565.53c-3.37,5.76-6.9,11.33-10.38,16.9c-3.45,5.6-6.97,11.11-10.54,16.54
						c-6.62,11.29-13.23,22.46-20,33.41c-6.19,11.37-12.49,22.55-18.77,33.66c-5.91,11.35-11.51,22.82-17.49,33.96
						c-22.38,45.53-41.04,92.08-55.3,139.58c-14.29,47.49-23.89,95.87-29.61,144.68c-1.28,12.21-3.24,24.39-5.34,36.65
						c-1.5,12.28-3.59,24.62-6.12,37.12c-1.73,12.48-4.25,25.12-7.31,38.03c-2.38,12.86-5.35,25.96-10.05,39.64l-1.05,3.07
						c-6.57,19.12-27.41,29.3-46.53,22.72c-8.76-3.01-15.67-9.06-19.92-16.52c-7.59-13.34-13.45-27.25-18.71-41.39
						c-4.56-14.21-8.17-28.72-11.22-43.37c-2.56-14.66-4.01-29.49-5.24-44.37c-0.58-14.85-0.25-29.75,0.33-44.64
						c5.01-59.33,18.97-117.78,39.93-173.08c20.98-55.33,49.26-107.5,83.52-154.69c8.78-11.65,17.78-23.1,26.79-34.45
						c9.65-10.89,19.12-21.83,28.98-32.38c10.25-10.23,20.57-20.31,31.03-30.13c5.45-4.72,10.96-9.37,16.52-13.92
						c5.54-4.58,11.03-9.16,16.68-13.56c15.03-11.68,36.68-8.97,48.36,6.05c8.89,11.43,9.45,26.69,2.59,38.49L838.43,565.53z"/>
				</g>
			</g>
			<g class="st6">
				<g>
					<path class="st0" d="M1355.83,303.14c-3.98,1.92-7.97,3.6-11.95,5.31c-3.97,1.76-7.94,3.4-11.91,4.96
						c-7.91,3.34-15.77,6.63-23.63,9.66l-46.54,18.84c-30.73,12.5-60.9,25.12-90.61,38.29c-29.77,13.07-58.81,27.2-88.03,41.02
						c-7.43,3.23-14.91,6.35-22.75,8.91c-7.77,2.68-15.68,5.18-24,7.11c-8.27,2.02-16.74,3.84-25.79,4.91
						c-8.94,1.26-18.22,2.16-28.66,1.63l-2.66-0.14c-22.38-1.14-39.61-20.2-38.47-42.59c0.25-4.88,1.42-9.65,3.22-13.9
						c8.5-19.88,20.75-35.22,34.15-49.02c6.85-6.65,13.97-12.99,21.47-18.7c7.57-5.58,15.34-10.91,23.46-15.57
						c32.86-17.92,67.73-31.94,103.26-43.32c35.58-11.28,72.09-19.41,108.98-23.91c9.23-1.09,18.48-1.97,27.72-2.69
						c9.3-0.44,18.52-1.1,27.81-1.17c9.29-0.04,18.57,0.04,27.84,0.42c4.65,0.26,9.29,0.59,13.94,1.04
						c4.64,0.41,9.26,0.77,13.9,1.39c19.33,2.56,32.93,20.3,30.38,39.63c-1.61,12.15-9.21,22.04-19.44,27.08L1355.83,303.14z"/>
				</g>
			</g>
			<g>
				<g>
					<path class="st0" d="M2239.35,2336.26c0,0-64.85-77.89-105.1-218.32c-40.25-140.43-33.21-289.49-84.46-323.71
						c-51.24-34.22-972.8,161.02-972.8,161.02s0.52,314.35,34.96,391.95c34.44,77.6,247.27,380.72,458.69,395.06
						c211.42,14.34,430.04,31.99,525.66-28.81C2191.93,2652.66,2239.35,2336.26,2239.35,2336.26z"/>
				</g>
				<g>
					<path class="st1" d="M1854.12,2758.61c-80.77,0-170.59-6.14-259.1-12.19l-24.54-1.67c-114.45-7.76-224.87-99.22-297.35-174.57
						c-83.18-86.48-145.66-181.86-163.46-221.97c-34.26-77.19-35.16-380.1-35.18-392.96l0-2.03l1.99-0.42
						c37.67-7.98,923.18-195.03,974.7-160.65c32.12,21.45,41.64,84.39,53.7,164.08c7.54,49.8,16.08,106.26,31.77,161.02
						c39.62,138.24,103.97,216.63,104.62,217.41l0.72,0.86l-0.17,1.11c-1.94,12.96-48.68,318.22-144.17,378.93
						C2045.7,2748.59,1957.3,2758.61,1854.12,2758.61z M1079.5,1957.27c0.13,27.16,2.34,315.92,34.74,388.91
						c29.29,65.99,241.64,379,456.58,393.58l24.54,1.67c200.77,13.72,408.37,27.91,499.6-30.1
						c90.79-57.73,138.55-353.96,141.74-374.37c-7.24-9.08-67.2-86.93-104.87-218.34c-15.78-55.08-24.35-111.7-31.91-161.65
						c-11.87-78.47-21.25-140.45-51.53-160.67C2008.64,1769.74,1398.45,1889.74,1079.5,1957.27z"/>
				</g>
			</g>
			<g>
				<g>
					<path class="st0" d="M1288.93,2824.29c-283.26,148.87-430.42-127.34-183.01-233.9L1288.93,2824.29z"/>
				</g>
				<g>
					<path class="st1" d="M1134.02,2870.17c-37.97,0-72.12-9.37-100.36-28.24c-38.84-25.95-59.63-67.6-55.63-111.4
						c5.31-58.07,51.56-109.98,126.89-142.43l1.98,4.59c-73.6,31.7-118.76,82.11-123.89,138.3c-3.84,41.96,16.14,81.88,53.43,106.79
						c61.05,40.8,155.01,34.93,251.33-15.69l2.33,4.42C1234.86,2855.53,1181.47,2870.17,1134.02,2870.17z"/>
				</g>
			</g>
			<g class="st2">
				<path class="st1" d="M1288.95,2824.29l-63.67-81.36c-114.67,43.1-201.17,13.88-238.76-40.11
					C948.5,2815.63,1082.59,2932.76,1288.95,2824.29z"/>
			</g>
			<g>
				<path class="st1" d="M1133.97,2885.58c-41.01,0-78.07-10.23-108.88-30.82c-43.61-29.14-66.95-76.11-62.42-125.64
					c5.84-63.87,55.47-120.44,136.16-155.2c9.1-3.91,19.64,0.28,23.56,9.38c3.92,9.1-0.28,19.65-9.38,23.56
					c-68.24,29.39-110.02,75.15-114.63,125.53c-3.31,36.23,14.12,70.83,46.63,92.55c56.28,37.6,144.34,31.42,235.57-16.52
					c8.76-4.61,19.61-1.24,24.22,7.53c4.61,8.77,1.24,19.61-7.53,24.21C1239.81,2870.36,1183.96,2885.58,1133.97,2885.58z"/>
			</g>
			<g>
				<g>
					<path class="st0" d="M1101.8,2641.52c0,0-196.71,32.35-259.95-83.75c-88.64-162.73-115.69-576.5-29.82-648.61
						c80.48-67.58,222.65-30.57,222.65-30.57L1101.8,2641.52z"/>
				</g>
				<g>
					<path class="st1" d="M1042.59,2647.96c-63.91,0-161.73-13.35-202.93-88.99c-41.37-75.96-73.03-217.01-80.65-359.35
						c-7.99-149.33,11.23-258.62,51.41-292.37c80.53-67.62,223.46-31.45,224.89-31.08l-1.26,4.84
						c-1.41-0.37-141.87-35.89-220.41,30.07c-38.41,32.25-57.43,142.71-49.64,288.27c7.58,141.66,39,281.87,80.05,357.22
						c61.67,113.23,255.39,82.8,257.34,82.48l0.81,4.93C1101.51,2644.1,1076.94,2647.96,1042.59,2647.96z"/>
				</g>
			</g>
			<g class="st2">
				<path class="st1" d="M841.86,2557.76c63.23,116.11,259.93,83.75,259.93,83.75l-10.54-119.75
					c-54.16,7.76-185.54,16.2-240.72-71.53c-38.83-61.7-70.51-162.72-89.81-267.37C766.23,2320.09,795.67,2472.99,841.86,2557.76z"
					/>
			</g>
			<g>
				<path class="st1" d="M1040.65,2660.17c-66.56,0-167.27-14.53-211.39-95.54c-42.8-78.58-74.25-218.2-82.07-364.38
					c-3.07-57.33-8.13-248.54,55.63-302.07c85.17-71.51,229.39-35.05,235.49-33.47c7.67,1.99,12.26,9.83,10.27,17.5
					c-2,7.67-9.83,12.25-17.5,10.27c-1.34-0.34-136.05-34.27-209.81,27.68c-35.08,29.46-52.91,138.8-45.43,278.57
					c7.5,140.03,38.36,278.27,78.62,352.19c57.69,105.92,243.15,76.76,245.02,76.46c7.83-1.27,15.2,4.01,16.48,11.83
					c1.29,7.82-4.01,15.2-11.83,16.48C1101.22,2656.15,1075.66,2660.17,1040.65,2660.17z"/>
			</g>
			<g>
				<g>
					<path class="st0" d="M1041.47,1928c61.72,70.4,286.08,98.83,545.26,63.25c259.28-35.6,467.73-123.51,508.08-207.98
						l-19.01-138.43c-1-7.26-10.17-9.46-14.6-3.63c-59.65,78.46-256.27,156.37-496.53,189.36
						c-240.2,32.98-450.49,10.98-529.13-48.47c-5.84-4.41-14.07,0.18-13.07,7.44L1041.47,1928z"/>
				</g>
				<g>
					<path class="st1" d="M1372.91,2008.89c-160.82,0-288.73-28.38-333.32-79.24l-0.49-0.56l-19.12-139.21
						c-0.59-4.31,1.35-8.34,5.07-10.52c3.82-2.23,8.41-1.95,11.98,0.75c80.62,60.94,292.52,80.22,527.28,47.99
						c234.85-32.25,433.73-107.96,494.88-188.39c2.71-3.57,7.06-5.08,11.34-3.96c4.17,1.1,7.13,4.46,7.73,8.77l19.11,139.17
						l-0.32,0.67c-41.27,86.41-255.76,174.47-509.99,209.38C1512.42,2003.97,1439.81,2008.89,1372.91,2008.89z M1043.84,1926.91
						c62.81,70.42,290.66,96.45,542.54,61.86c252.03-34.61,464.44-121.12,505.84-205.91l-18.91-137.69
						c-0.32-2.31-1.83-4.03-4.04-4.61c-1.8-0.47-4.34-0.15-6.09,2.16c-61.9,81.42-262.11,157.9-498.18,190.32
						c-235.99,32.4-449.37,12.73-530.98-48.95c-2.31-1.75-4.84-1.37-6.44-0.43c-1.97,1.16-2.96,3.23-2.65,5.53L1043.84,1926.91z"/>
				</g>
			</g>
			<g>
				<path class="st12" d="M1041.47,1928c61.72,70.4,286.08,98.83,545.26,63.25c259.28-35.6,467.73-123.51,508.08-207.98
					l-19.01-138.43c-1-7.26-10.17-9.46-14.6-3.63c-59.65,78.46-256.27,156.37-496.53,189.36c-240.2,32.98-450.49,10.98-529.13-48.47
					c-5.84-4.41-14.07,0.18-13.07,7.44L1041.47,1928z"/>
			</g>
			<g class="st13">
				<path class="st0" d="M1024.37,1803.53l5.91,43.03c-0.81-5.92,7.5-9.87,13.23-6.43c76.83,46.51,285.84,59.14,526.05,26.16
					c240.25-32.99,438.17-101.53,499.62-167.03c4.55-4.86,13.62-3.29,14.43,2.59l-5.9-42.99c-0.81-5.88-9.89-7.48-14.43-2.59
					c-61.45,65.5-259.37,134-499.62,166.99c-240.21,32.98-449.22,20.36-526.05-26.12
					C1031.88,1793.7,1023.56,1797.65,1024.37,1803.53z"/>
			</g>
			<g class="st2">
				<path class="st1" d="M1031.3,1854.03l8.94,65.11c62.45,75.46,287.3,107.68,546.48,72.1c259.27-35.6,467.2-127.3,506.85-216.83
					l-8.94-65.11c-39.65,89.53-247.58,181.23-506.85,216.83C1318.6,1961.72,1093.75,1929.49,1031.3,1854.03z"/>
			</g>
			<g>
				<path class="st1" d="M1370.89,2021c-164.21,0-293.02-29.73-340.2-83.55l-2.84-3.24l-19.6-142.73
					c-1.24-9.04,3.06-17.87,10.96-22.49c7.83-4.57,17.53-4,24.73,1.47c76.85,58.41,290.18,77.28,518.78,45.88
					c228.68-31.4,429.04-107.09,487.25-184.07c5.45-7.21,14.64-10.39,23.42-8.1c8.86,2.31,15.38,9.65,16.63,18.7l12.59,91.7
					c5.89,42.87-11.36,86.07-45.01,112.72c-88.31,69.96-267.98,130.55-468.91,158.14C1512.25,2015.95,1438.55,2021,1370.89,2021z
					 M1055.07,1921.59c29.34,30.16,95.32,52.65,186.68,63.54c98.1,11.69,219.92,8.82,343.02-8.09
					c196.13-26.93,370.48-85.26,455-152.21c25.73-20.38,38.92-53.46,34.4-86.33l-10.67-77.69
					c-72.36,79.59-268.24,152.58-496.89,183.97c-228.59,31.38-436.86,13.92-528.02-43.19L1055.07,1921.59z"/>
			</g>
			<g>
				<path class="st1" d="M2234.07,2341.75c-3.65,0-7.3-1.38-10.1-4.16c-109.36-108.36-135.51-387.65-136.57-399.48
					c-7.14-62.55-28.38-117.52-28.59-118.07c-2.88-7.38,0.77-15.7,8.15-18.58c7.38-2.87,15.69,0.76,18.58,8.14
					c0.93,2.37,22.79,58.85,30.41,125.61c0.29,3.14,26.31,281.02,128.22,382.01c5.63,5.58,5.67,14.66,0.09,20.29
					C2241.46,2340.33,2237.77,2341.75,2234.07,2341.75z"/>
			</g>
			<g>
				<g>
					<path class="st0" d="M1038.99,1928.34c-39.1,234.98-24.94,421.87,10.04,565.61c54.54,224.08,253.7,382.9,484.3,386.17
						c1.03,0.01,2.05,0.03,3.07,0.04c120.93,1.8,207.27,53.36,306.09,24.45c227.05-66.43,168.92-302.19,17.82-335.76
						c-162.15-36.03-303.17,41.63-303.17,41.63L1038.99,1928.34z"/>
				</g>
				<g>
					<path class="st1" d="M1779.17,2915.84c-36.45,0-72.45-7.42-109.78-15.11c-41.35-8.52-84.11-17.34-133.03-18.07l-3.06-0.05
						c-231.74-3.29-431.88-162.87-486.69-388.08c-41.13-168.99-44.52-359.62-10.08-566.61l4.93,0.82
						c-34.33,206.32-30.96,396.28,10.01,564.61c54.27,222.99,252.44,381,481.9,384.26l3.07,0.05c49.39,0.74,92.39,9.6,133.96,18.17
						c58.28,12.01,113.33,23.36,171.38,6.38c96.07-28.1,151.85-92.29,149.23-171.69c-2.5-75.92-57.71-142.89-131.25-159.23
						c-159.32-35.42-300.02,40.61-301.42,41.38l-2.41-4.38c1.42-0.78,143.71-77.71,304.92-41.88
						c75.74,16.83,132.59,85.78,135.17,163.95c2.7,81.83-54.43,147.86-152.83,176.65
						C1821.49,2913.36,1800.25,2915.84,1779.17,2915.84z"/>
				</g>
			</g>
			<g class="st2">
				<path class="st1" d="M1039.2,2449.47c3.07,15.26,6.35,30.08,9.84,44.46c54.53,224.1,253.67,382.91,484.28,386.16
					c1.02,0.04,2.04,0.04,3.06,0.09c120.93,1.8,207.31,53.33,306.13,24.44c156.2-45.71,177.4-171.57,126.29-256.54
					c-2.72,65.84-46.84,131.96-150.98,162.41c-98.82,28.89-185.15-22.65-306.08-24.45c-1.02-0.04-2.04-0.04-3.1-0.04
					C1295.45,2782.94,1109.19,2647.05,1039.2,2449.47z"/>
			</g>
			<g>
				<g>
					<path class="st0" d="M2157.27,2392.78c0,0,134.49-217.4,329-181.7c118.21,21.69,198.49,216.43,45.18,311.2
						c-84.97,52.53-161.46,14.57-315.6,114.61c-80.45,52.21-135.2,97.44-198.66,101.92L2157.27,2392.78z"/>
				</g>
				<g>
					<path class="st1" d="M2017.36,2741.29l-0.35-4.99c51.32-3.62,97.57-34.7,156.12-74.06c13.17-8.85,26.79-18.01,41.36-27.46
						c90.16-58.52,152.86-69.85,208.17-79.85c38.84-7.02,72.38-13.09,107.47-34.79c63.96-39.54,93.21-101.66,80.26-170.44
						c-12.81-68.01-65.2-125.28-124.58-136.18c-190.61-34.98-325.08,178.4-326.42,180.56l-4.25-2.63
						c1.35-2.19,137.65-218.44,331.57-182.85c61.34,11.26,115.42,70.21,128.59,140.17c13.35,70.92-16.73,134.93-82.54,175.62
						c-35.9,22.2-69.88,28.34-109.21,35.45c-54.85,9.92-117.02,21.16-206.34,79.13c-14.53,9.43-28.13,18.57-41.29,27.42
						C2116.75,2706.17,2070.02,2737.58,2017.36,2741.29z"/>
				</g>
			</g>
			<g class="st2">
				<path class="st1" d="M1996.67,2746.99c63.47-4.47,138.72-57.88,219.16-110.08c154.14-100.05,230.63-62.12,315.64-114.62
					c95.67-59.18,100.34-157.25,61.62-227.92c-2.26,49.07-26.89,98.45-84.17,133.86c-84.97,52.49-161.45,14.56-315.59,114.61
					c-50.66,32.88-159.04,86.04-240.6,82.72L1996.67,2746.99z"/>
			</g>
			<g>
				<path class="st1" d="M2017.17,2753.15c-7.46,0-13.76-5.78-14.29-13.34c-0.56-7.9,5.4-14.76,13.3-15.32
					c48.17-3.4,93.26-33.7,150.35-72.07c13.21-8.88,26.87-18.06,41.52-27.57c92.16-59.81,158.89-71.88,212.52-81.57
					c37.65-6.81,70.16-12.69,103.35-33.2c59.56-36.82,86.84-94.47,74.85-158.17c-11.93-63.38-60.33-116.67-115.08-126.72
					c-105.82-19.41-193.7,41.35-248.78,95.74c-5.64,5.57-14.72,5.51-20.29-0.13c-5.57-5.64-5.51-14.72,0.13-20.29
					c59.94-59.18,156.17-125.19,274.12-103.54c65.97,12.11,124.05,75.04,138.09,149.63c14.31,76-17.75,144.48-87.96,187.88
					c-37.81,23.38-74.5,30.01-113.33,37.03c-53.75,9.72-114.68,20.73-202,77.41c-14.45,9.38-28.01,18.49-41.13,27.31
					c-60.63,40.75-108.53,72.94-164.33,76.88C2017.85,2753.13,2017.51,2753.15,2017.17,2753.15z"/>
			</g>
			<g>
				<path class="st1" d="M2155.53,2391.7c2.2-8.54,5.42-16.48,8.94-24.32c3.61-7.76,7.59-15.34,12.01-22.62
					c4.44-7.27,9.01-14.51,14.47-21.02c5.44-6.5,11.29-12.7,18.28-17.71c6.53-4.69,15.62-3.2,20.31,3.33
					c3.61,5.03,3.56,11.58,0.35,16.47l-0.21,0.31c-4.49,6.82-10.01,12.56-15.5,18.39c-5.59,5.73-11.64,11.1-17.66,16.57
					c-12.05,10.94-24.27,21.96-37.51,32.76l-0.05,0.04c-0.92,0.75-2.27,0.61-3.02-0.31
					C2155.5,2393.04,2155.37,2392.33,2155.53,2391.7z"/>
			</g>
			<g>
				<path class="st1" d="M1939.22,2428.49c-4.16,0-8.28-1.8-11.12-5.27c-164.41-201.34-193.93-449.92-195.1-460.4
					c-0.88-7.87,4.78-14.97,12.65-15.85c7.89-0.87,14.97,4.78,15.86,12.65c0.28,2.49,29.91,250.86,188.82,445.46
					c5.01,6.14,4.1,15.17-2.04,20.18C1945.62,2427.43,1942.41,2428.49,1939.22,2428.49z"/>
			</g>
			<g>
				<g>
					<path class="st0" d="M1060.41,2533.61c213.02-27.39,275.38-134.66,295.75-175.53s69.8-151,2.05-287.29
						c-80.17-161.26-322.95-188.03-322.95-188.03c6.84,49.84-3.62,111.44-3.62,111.44c136.85-42.99,200.68,97.59,200.68,97.59
						s73.78,128.6,8.7,250.38c0,0-62.68,111.27-204.76,95.84L1060.41,2533.61z"/>
				</g>
				<g>
					<path class="st1" d="M1060.73,2536.09l-0.64-4.96c146.77-18.87,245.63-77.47,293.83-174.16
						c47.76-95.81,48.45-191.72,2.05-285.06c-73.69-148.23-289.07-182.33-317.82-186.25c5.07,41.73-1.35,90.89-3.44,105
						c134.77-39.37,199.23,98.69,199.87,100.11c0.64,1.09,73.61,131,8.63,252.59c-0.62,1.1-57.08,98.61-180.62,98.61
						c-8.55,0-17.42-0.47-26.62-1.46l0.54-4.97c138.72,15.06,201.69-93.49,202.31-94.58c63.63-119.06-7.96-246.63-8.69-247.91
						c-0.74-1.59-64.65-138.26-197.76-96.45l-3.9,1.23l0.68-4.03c0.1-0.61,10.32-61.81,3.61-110.68l-0.44-3.18l3.19,0.35
						c2.44,0.27,245.07,28.77,324.92,189.4c47.14,94.82,46.45,192.23-2.05,289.52C1309.41,2457.48,1209.26,2516.99,1060.73,2536.09z
						"/>
				</g>
			</g>
			<g class="st2">
				<path class="st1" d="M1036.25,2438.02l24.15,95.59c213.02-27.4,275.38-134.65,295.74-175.55
					c15.56-31.15,47.93-102.49,32.51-194.99c-7.29,44.69-23.1,78.69-32.58,97.71c-16.54,33.09-60.57,109.86-190.1,152.32
					C1133.84,2431.13,1090.94,2443.94,1036.25,2438.02z"/>
			</g>
			<g>
				<path class="st1" d="M1060.39,2547.95c-7.11,0-13.28-5.28-14.21-12.52c-1.01-7.86,4.54-15.05,12.4-16.06
					c142.61-18.33,238.41-74.76,284.74-167.7c46.01-92.31,46.7-184.67,2.04-274.51c-63.45-127.63-237.91-167.7-294.05-177.47
					c1.73,27.99-0.48,56.53-2.6,75.33c127.69-25.24,191.14,99.41,196.32,110.11c5.83,10.37,75.3,139.05,8.63,263.79
					c-2.71,4.81-60.71,104.91-190.3,104.92c-9.2,0-18.73-0.5-28.66-1.58c-7.88-0.85-13.57-7.93-12.71-15.81
					c0.86-7.88,7.93-13.6,15.81-12.71c130.53,14.15,188.33-84.45,190.73-88.65c60.27-112.77-7.97-234.96-8.67-236.18l-0.61-1.19
					c-2.4-5.24-60.46-128.45-183.31-89.84l-22.35,7.02l3.91-23.11c0.1-0.59,10.01-60.09,3.55-107.09l-2.5-18.23l18.29,2.02
					c10.23,1.13,251.52,29.54,334.22,195.9c48.88,98.33,48.19,199.28-2.06,300.08c-63.35,127.09-201.78,169.86-306.76,183.35
					C1061.62,2547.91,1061,2547.95,1060.39,2547.95z"/>
			</g>
			<g>
				<g>
					<path class="st0" d="M1963.64,2010.93l-439.23,114.61l2.37,17.24c15.43,112.35,57.83,219.29,123.59,311.68l0,0l432.14-116.41
						l0,0c-60.02-99.58-100.25-209.82-118.47-324.65L1963.64,2010.93z"/>
				</g>
				<g>
					<path class="st1" d="M1649.33,2457.33l-1.01-1.42c-65.72-92.34-108.61-200.5-124.03-312.79l-2.67-19.44l444.05-115.87
						l0.83,5.19c18.26,115.05,58.01,223.98,118.15,323.76l1.71,2.84L1649.33,2457.33z M1527.18,2127.4l2.07,15.04
						c15.23,110.92,57.45,217.78,122.14,309.15l427.26-115.1c-59.47-99.48-98.85-207.95-117.06-322.45L1527.18,2127.4z"/>
				</g>
			</g>
			<g>
				<path class="st1" d="M1642.98,2475.02l-7.23-10.16c-67.16-94.36-110.99-204.89-126.75-319.64l-4.53-33.01l473.77-123.62l3.49,22
					c17.95,113.08,57.02,220.14,116.12,318.21l12.28,20.38L1642.98,2475.02z M1544.33,2138.88l0.2,1.47
					c14.41,104.93,53.52,206.14,113.32,293.53l397.31-107.03c-51.98-91.41-87.57-190-105.98-293.61L1544.33,2138.88z"/>
			</g>
			<g>
				<path class="st1" d="M2363.85,2584.12c-1.1,0-2.22-0.13-3.34-0.39c-6.81-1.62-42.78-14.71-82.06-113.27
					c-41.26-103.54-17.18-202.97-16.14-207.15c1.92-7.69,9.72-12.36,17.4-10.44c7.68,1.92,12.35,9.7,10.44,17.38
					c-0.25,1.03-22.76,94.96,14.95,189.58c33.65,84.44,61.79,95.91,62.06,95.98c7.71,1.84,12.47,9.57,10.63,17.28
					C2376.23,2579.69,2370.34,2584.12,2363.85,2584.12z"/>
			</g>
			<g>
				<path class="st1" d="M1669.78,2912.6c-6.22,0-11.96-4.08-13.77-10.36c-77.06-266.33,68.05-350.65,74.26-354.11
					c6.92-3.86,15.66-1.37,19.51,5.56c3.84,6.9,1.38,15.61-5.5,19.48c-5.44,3.1-131.05,77.98-60.71,321.1
					c2.2,7.61-2.18,15.56-9.79,17.77C1672.45,2912.42,1671.1,2912.6,1669.78,2912.6z"/>
			</g>
			<g>
				<path class="st1" d="M1779.16,2927.73c-37.45,0-74.14-7.56-112.16-15.4c-40.81-8.41-83.01-17.11-130.82-17.82l-3.06-0.05
					c-237.14-3.36-441.94-166.67-498.03-397.12c-31.74-130.42-55.4-285.45-13.94-534.63c1.3-7.81,8.7-13.06,16.51-11.79
					c7.81,1.3,13.1,8.69,11.8,16.51c-40.62,244.08-17.51,395.68,13.51,523.13c53,217.74,246.5,372.04,470.56,375.22l3.1,0.05
					c50.49,0.75,94.04,9.73,136.15,18.41c59.27,12.22,110.45,22.77,165.67,6.61c91.9-26.88,143.19-85.18,140.72-159.93
					c-2.33-70.6-53.63-132.87-121.98-148.06c-154.67-34.38-291.79,39.45-293.15,40.2c-6.94,3.81-15.66,1.27-19.48-5.66
					c-3.81-6.94-1.29-15.65,5.65-19.47c5.95-3.27,147.67-79.85,313.2-43.07c80.94,17.99,141.68,91.64,144.43,175.12
					c2.89,87.58-57.43,158.01-161.34,188.41C1823.52,2925.1,1801.21,2927.73,1779.16,2927.73z"/>
			</g>
			<g>
				
					<ellipse transform="matrix(0.9544 -0.2986 0.2986 0.9544 -573.1323 671.8243)" class="st14" cx="1912.16" cy="2211.64" rx="36.68" ry="54.48"/>
				<path class="st1" d="M1920.78,2267.27c-7.77,0-15.84-3.13-23.41-9.19c-10.06-8.06-18.08-20.4-22.57-34.75
					c-4.49-14.35-4.94-29.06-1.26-41.42c3.78-12.71,11.46-21.45,21.62-24.63c10.16-3.18,21.46-0.37,31.8,7.91
					c10.06,8.06,18.08,20.4,22.57,34.75c4.49,14.35,4.94,29.06,1.26,41.42c-3.78,12.71-11.46,21.45-21.62,24.63
					C1926.44,2266.85,1923.63,2267.27,1920.78,2267.27z M1903.53,2160.98c-2.35,0-4.66,0.34-6.89,1.04
					c-8.54,2.67-15.06,10.24-18.36,21.31c-3.4,11.42-2.96,25.1,1.24,38.53s11.63,24.91,20.94,32.36c9.02,7.22,18.69,9.73,27.23,7.05
					c8.54-2.67,15.06-10.24,18.36-21.31c3.4-11.42,2.96-25.1-1.24-38.53c-4.2-13.42-11.63-24.91-20.94-32.36
					C1917.2,2163.74,1910.18,2160.98,1903.53,2160.98z"/>
			</g>
			<g>
				<g>
					
						<ellipse transform="matrix(0.9544 -0.2986 0.2986 0.9544 -588.0854 637.8567)" class="st15" cx="1793.52" cy="2243.6" rx="36.68" ry="54.48"/>
				</g>
				<g>
					<path class="st1" d="M1802.28,2299.23c-18.5,0-38-17.87-46.15-43.93c-9.38-29.98-0.24-59.62,20.38-66.07
						c20.63-6.44,45.03,12.7,54.41,42.68c9.38,29.98,0.24,59.62-20.38,66.07C1807.83,2298.82,1805.07,2299.23,1802.28,2299.23z
						 M1784.9,2192.95c-2.34,0-4.64,0.34-6.9,1.04c-17.99,5.63-25.66,32.46-17.1,59.81l0,0c8.56,27.35,30.14,45.04,48.14,39.4
						c17.99-5.63,25.66-32.46,17.1-59.81C1818.66,2209.47,1801.19,2192.95,1784.9,2192.95z"/>
				</g>
			</g>
			<g>
				<g>
					
						<ellipse transform="matrix(0.9544 -0.2986 0.2986 0.9544 -604.0392 602.7546)" class="st16" cx="1670.66" cy="2278.26" rx="36.68" ry="54.48"/>
				</g>
				<g>
					<path class="st1" d="M1679.42,2333.89c-18.5,0-38-17.87-46.15-43.93c-4.49-14.36-4.94-29.07-1.26-41.43
						c3.78-12.71,11.47-21.46,21.64-24.64c10.16-3.18,21.47-0.37,31.83,7.92c10.07,8.06,18.09,20.41,22.58,34.76
						c9.38,29.98,0.24,59.63-20.38,66.08C1684.97,2333.48,1682.21,2333.89,1679.42,2333.89z M1662.02,2227.62
						c-2.35,0-4.65,0.34-6.88,1.04c-8.53,2.67-15.05,10.23-18.34,21.3c-3.4,11.42-2.96,25.09,1.24,38.51
						c8.56,27.35,30.15,45.01,48.14,39.4c17.99-5.63,25.66-32.46,17.1-59.81c-4.2-13.42-11.63-24.91-20.93-32.35
						C1675.69,2230.38,1668.67,2227.62,1662.02,2227.62z"/>
				</g>
			</g>
			<g>
				<path class="st1" d="M1920.92,2279.11c-10.49,0-21.32-4.04-30.97-11.76c-11.89-9.51-21.29-23.89-26.48-40.47
					c-5.19-16.58-5.65-33.75-1.31-48.35c4.87-16.37,15.61-28.24,29.46-32.57c13.84-4.33,29.43-0.7,42.76,9.98
					c11.89,9.51,21.29,23.89,26.48,40.47c5.19,16.58,5.65,33.75,1.31,48.35c-4.87,16.37-15.61,28.24-29.46,32.57
					C1928.89,2278.52,1924.93,2279.11,1920.92,2279.11z M1903.54,2172.84c-1.12,0-2.24,0.15-3.36,0.5
					c-6.28,1.96-9.29,9.22-10.52,13.37c-2.69,9.05-2.26,20.56,1.19,31.59c3.45,11.03,9.66,20.74,17.03,26.64
					c3.38,2.71,9.99,6.96,16.27,4.99c6.28-1.96,9.29-9.22,10.52-13.37c2.69-9.05,2.26-20.56-1.19-31.59
					c-3.45-11.03-9.66-20.74-17.03-26.64C1913.67,2176.11,1908.71,2172.84,1903.54,2172.84z"/>
			</g>
			<g>
				<path class="st1" d="M1802.09,2311.11c-23.74,0-47.42-20.77-57.27-52.28c-11.52-36.83,0.84-72.37,28.15-80.92
					c27.3-8.54,57.72,13.62,69.25,50.45c11.52,36.83-0.84,72.37-28.15,80.92C1810.12,2310.51,1806.11,2311.11,1802.09,2311.11z
					 M1784.75,2204.83c-1.12,0-2.2,0.15-3.21,0.47c-10.06,3.15-16.19,23.05-9.33,44.97h0c6.86,21.92,23.24,34.79,33.3,31.63
					c10.06-3.15,16.19-23.05,9.33-44.97C1808.67,2217.21,1794.79,2204.83,1784.75,2204.83z"/>
			</g>
			<g>
				<path class="st1" d="M1679.24,2345.77c-23.74,0-47.42-20.77-57.28-52.28c-5.19-16.58-5.65-33.75-1.31-48.35
					c4.87-16.37,15.61-28.24,29.46-32.57c13.84-4.33,29.43-0.7,42.76,9.98c11.89,9.51,21.29,23.89,26.48,40.47
					c11.52,36.83-0.84,72.37-28.15,80.92C1687.26,2345.18,1683.25,2345.77,1679.24,2345.77z M1662.04,2239.46
					c-1.12,0-2.24,0.15-3.36,0.5c-6.28,1.96-9.29,9.22-10.52,13.37c-2.69,9.05-2.26,20.56,1.19,31.59
					c6.86,21.92,23.23,34.8,33.3,31.63c10.06-3.15,16.19-23.05,9.33-44.97c-3.45-11.03-9.66-20.74-17.03-26.64
					C1672.17,2242.73,1667.2,2239.46,1662.04,2239.46z"/>
			</g>
			<g>
				<path class="st1" d="M1031.34,1992.78c-3.13,0-6.28-1.02-8.91-3.12c-78.98-62.75-220.19-52.54-221.6-52.44
					c-7.91,0.62-14.8-5.29-15.42-13.19c-0.62-7.9,5.29-14.8,13.19-15.42c6.25-0.48,153.96-11.12,241.68,58.58
					c6.2,4.93,7.24,13.95,2.31,20.15C1039.75,1990.92,1035.57,1992.78,1031.34,1992.78z"/>
			</g>
			<g>
				<g>
					<path class="st0" d="M964.96,2329.5c0,0-73.19-1.43-136.92-17.36c0,0,14.7,144.49,28.86,185.69
						c17.15,49.88,89.65,63.55,111.44,42.57C998.59,2511.26,964.96,2329.5,964.96,2329.5z"/>
				</g>
				<g>
					<path class="st1" d="M937.71,2552.37c-6.84,0-14.16-0.87-21.62-2.68c-30.04-7.24-53.06-26.33-61.56-51.06
						c-14.09-41-28.38-180.34-28.98-186.25l-0.36-3.54l3.45,0.86c62.71,15.68,135.63,17.28,136.36,17.29l2.04,0.04l0.37,2
						c1.38,7.48,33.52,183.43,2.66,213.15C963.16,2548.85,951.43,2552.37,937.71,2552.37z M830.89,2315.41
						c2.36,22.4,15.69,144.72,28.37,181.6c7.94,23.11,29.63,40.99,58,47.82c20.82,5.02,40.19,2.57,49.34-6.24
						c27.29-26.28-0.23-186.86-3.75-206.65C950.75,2331.57,887.4,2329,830.89,2315.41z"/>
				</g>
			</g>
			<g class="st2">
				<path class="st1" d="M856.88,2497.85c17.18,49.86,89.64,63.53,111.44,42.55c9.62-9.26,12.78-33.96,12.61-63.37
					c-25.03,16.95-91.67,2.3-108.03-45.23c-7.44-21.63-15.01-71.66-20.54-114.31c-8.15-1.56-16.33-3.34-24.35-5.33
					C828.02,2312.16,842.73,2456.61,856.88,2497.85z"/>
			</g>
			<g>
				<path class="st1" d="M937.71,2564.23c-7.75,0-15.98-0.99-24.4-3.02c-34-8.2-60.16-30.15-69.98-58.73
					c-14.53-42.28-28.96-182.93-29.57-188.9c-0.47-4.65,1.35-9.24,4.88-12.3c3.53-3.06,8.34-4.2,12.87-3.07
					c61.34,15.33,133.01,16.93,133.72,16.94c6.81,0.14,12.58,5.04,13.82,11.73c8.22,44.42,32.46,191.84-0.77,223.84
					C969.12,2559.56,954.55,2564.23,937.71,2564.23z M844.45,2330.55c4.55,40.72,15.6,132.34,26.01,162.62
					c6.62,19.26,25.15,34.27,49.58,40.16c18.36,4.43,33.19,1.71,38.35-3.26c14.1-13.58,8.58-105.14-5.51-186.65
					C932.38,2342.47,888.41,2339.5,844.45,2330.55z"/>
			</g>
			<g>
				<g>
					<g>
						<path class="st17" d="M1813.02,1782.64c-22.72,40.26-64.7,86.04-58.45,147.76c4.7,46.29,58.11,108.68,120.81,97.25
							c0.47-0.08,0.94-0.15,1.39-0.24l76.73,60.26c0,0-108.32,93.93-30.47,174.73c77.87,80.78,144.07,22.86,158.08,7.16
							c26.35-29.54,74.9-18.9,68.15,23.7c-8.93,56.23-85.11,107.85-131.88,122.93c-41.63,13.42-113.42,64.42-136.91,154.31
							c-18.04,69-46.08,253.28-103.09,318.55c-2.08,3.09-4.29,6.12-6.6,9.06c-1.36,1.74-2.75,3.46-4.14,5.14
							c-84.56,101.43-243.68,111.16-457.2-56.53c-217.07-170.48-242.67-329.81-159.25-436.02c0,0,0.53-0.68,1.6-2
							c0.5-0.6,1.09-1.3,1.79-2.15c0.49-0.58,1.03-1.18,1.6-1.86c0.29-0.32,0.59-0.67,0.91-1.03c0.27-0.3,0.56-0.62,0.86-0.97
							c0.46-0.5,0.91-1.03,1.4-1.57c19.37-21.39,74.12-75.06,173.66-123.98c127.88-62.86,231.3-137.91,258.56-252.57
							c27.25-114.7,60.16-245.89,157.7-292.78C1845.84,1684.88,1835.76,1742.4,1813.02,1782.64z"/>
					</g>
					<g>
						<path class="st1" d="M1606.32,2979.17c-6.61,0-13.31-0.26-20.11-0.77c-83.12-6.31-176.76-49.95-278.31-129.71
							c-195.53-153.57-255.22-317.88-159.68-439.53l8.29-9.71c19.04-21.03,74.16-75.27,174.41-124.54
							c104.16-51.2,227.53-125.98,257.23-250.9c26.05-109.65,58.47-246.1,159.05-294.46c40.11-19.28,66.21-22.91,77.59-10.76
							c12.5,13.36,3.25,42.38-9.58,65.09l0,0c-4.84,8.58-10.47,17.29-16.43,26.51c-21.82,33.74-46.55,71.98-41.71,119.77
							c2.69,26.51,21.56,57.15,46.94,76.23c15.5,11.65,40.38,24.36,70.93,18.81c0.49-0.08,0.92-0.15,1.33-0.23l1.14-0.23
							l80.03,62.85l-2.29,1.98c-0.55,0.48-55.19,48.52-57.67,104.07c-1.09,24.51,8.11,47.06,27.36,67.04
							c26.87,27.87,54.95,41.66,83.35,41.17c40.33-0.78,68.04-30.55,71.07-33.95c14.42-16.16,37.29-22.02,54.38-13.92
							c14.21,6.74,20.98,21.57,18.12,39.67c-8.94,56.29-83.32,108.71-133.58,124.92c-41.88,13.5-112.45,65.27-135.26,152.56
							c-3.84,14.69-8.12,34.58-13.09,57.61c-18.03,83.68-45.28,210.14-90.54,261.96c-1.91,2.87-4.17,5.96-6.52,8.96
							c-1.38,1.75-2.77,3.49-4.18,5.19C1727.83,2953.71,1672.04,2979.17,1606.32,2979.17z M1804.99,1716.72
							c-11.2,0-28.61,4.34-55.62,17.33c-98.43,47.32-130.55,182.5-156.35,291.11c-30.18,126.95-154.74,202.56-259.89,254.24
							c-99.47,48.89-154.06,102.59-172.91,123.41l-8.06,9.44c-93.61,119.19-34.23,280.87,158.83,432.5
							c100.76,79.14,193.49,122.42,275.6,128.66c72.78,5.52,134.38-19.29,178.13-71.77c1.37-1.66,2.74-3.36,4.09-5.09
							c2.28-2.9,4.46-5.9,6.49-8.91c44.6-51.09,71.69-176.79,89.61-259.97c4.98-23.09,9.27-43.03,13.14-57.82
							c25.13-96.21,101.63-144.15,138.56-156.06c47.8-15.41,121.67-67.35,130.18-120.94c2.54-16.02-3.04-28.55-15.32-34.37
							c-12.97-6.15-33.79-3.75-48.49,12.72c-3.18,3.56-32.25,34.8-74.7,35.62c-29.92,0.51-59.18-13.79-87.05-42.71
							c-20.25-21.01-29.92-44.82-28.76-70.76c2.32-51.8,46.46-95.68,57.15-105.58l-73.51-57.73c-0.1,0.02-0.21,0.03-0.31,0.05
							c-32.29,5.89-58.5-7.49-74.8-19.74c-26.43-19.87-46.09-51.91-48.92-79.73c-5.01-49.54,20.22-88.56,42.49-122.99
							c5.92-9.16,11.51-17.8,16.28-26.25l0,0c11.41-20.2,20.95-47.82,10.29-59.21C1818.28,1719.15,1813.37,1716.72,1804.99,1716.72z
							"/>
					</g>
				</g>
				<g class="st6">
					<path class="st0" d="M1827.62,1744.25c-11.21,2.37-25.36,7.44-43.11,15.99c-97.57,46.9-130.46,178.07-157.72,292.79
						c-27.26,114.66-130.67,189.72-258.56,252.57c-99.53,48.92-154.3,102.58-173.67,123.99c-0.47,0.54-0.92,1.06-1.4,1.55
						c-0.29,0.37-0.58,0.68-0.85,0.97c-0.34,0.37-0.6,0.71-0.9,1.03c-0.58,0.68-1.12,1.31-1.61,1.88c-0.72,0.85-1.3,1.54-1.78,2.16
						c-1.07,1.3-1.6,1.98-1.6,1.98c-81.05,103.2-59.2,256.48,141.18,421.47c-6.03-4.46-12.05-9.1-18.14-13.89
						c-217.09-170.5-242.67-329.81-159.25-436.03c0,0,0.53-0.68,1.57-2c0.52-0.6,1.1-1.28,1.81-2.13c0.47-0.59,1.03-1.2,1.61-1.88
						c0.27-0.34,0.56-0.65,0.9-1.03c0.27-0.29,0.54-0.63,0.85-0.97c0.48-0.49,0.9-1.03,1.4-1.55
						c19.37-21.41,74.14-75.06,173.67-123.99c127.89-62.85,231.3-137.91,258.56-252.57c27.26-114.71,60.14-245.89,157.72-292.79
						C1815.93,1699.28,1831.83,1716.95,1827.62,1744.25z"/>
				</g>
				<g>
					<path class="st0" d="M1923.03,2262.4c77.87,80.78,144.07,22.86,158.08,7.16c26.35-29.54,74.9-18.9,68.15,23.7
						c-8.93,56.23-85.11,107.85-131.88,122.93c-41.63,13.42-113.42,64.42-136.91,154.31c-18.04,69-46.08,253.28-103.09,318.55
						c-2.08,3.09-4.29,6.12-6.6,9.06c-1.36,1.74-2.75,3.46-4.14,5.14c-20.19,11.4-41.83,16.25-58.81,1.72
						c-43.81-37.56-13.94-113.57-80.22-221.09c-66.3-107.54-138.56-123.48-192.98-210.18c-54.4-86.69,89.48-142.22,137.78-164.75
						c48.31-22.53,139.09-127.09,160.22-200c21.14-72.91,23.99-82.03,66.31-73.93c32.11,6.15,57.64,2.81,76.42-7.36
						c0.47-0.08,0.94-0.15,1.39-0.24l76.73,60.26C1953.5,2087.67,1845.18,2181.6,1923.03,2262.4z"/>
				</g>
				<g>
					<path class="st1" d="M1607.92,2991.08c-88.97,0-194.81-44.7-307.34-133.08c-201.36-158.15-261.8-328.67-161.68-456.16
						l8.84-10.37c19.48-21.52,75.86-77.03,177.94-127.2c151.26-74.35,228.65-149.3,250.93-243.02
						c26.63-112.09,59.78-251.59,165.44-302.4c29.31-14.1,70.68-30.29,91.37-8.18c20.67,22.08,1.35,62.6-7.92,79.01h0
						c-5.02,8.89-10.74,17.74-16.81,27.12c-21.77,33.67-44.29,68.49-39.87,112.14c2.38,23.37,20.05,51.54,42.97,68.48
						c13.75,10.16,35.69,21.17,62.16,15.9l6.47-1.29l95.58,75.07l-13.13,11.38c-0.5,0.44-51.41,45.38-53.6,95.73
						c-0.93,21.4,6.94,40.44,24.06,58.21c24.48,25.4,49.59,38.07,74.59,37.55c35.31-0.68,59.78-26.99,62.46-29.99
						c18.12-20.32,46.21-27.19,68.28-16.73c19.23,9.12,28.48,28.64,24.74,52.23c-9.68,60.98-88.48,117.19-141.65,134.33
						c-39.39,12.7-105.83,61.6-127.43,144.28c-3.77,14.44-8.03,34.21-12.97,57.11c-19.3,89.58-45.7,212.11-92.61,266.57
						c-2.12,3.1-4.37,6.18-6.72,9.17C1737.89,2963.21,1678.16,2991.08,1607.92,2991.08z M1805.19,1728.56
						c-8.24,0-23.92,3.28-50.69,16.16c-93.34,44.88-124.74,177.01-149.96,283.17c-31.32,131.77-158.71,209.3-266.19,262.13
						c-97.64,47.99-150.96,100.42-169.35,120.73l-7.53,8.81c-89.02,113.35-30.39,268.82,156.84,415.87
						c187.24,147.05,352.17,167.17,441.2,53.81c2.1-2.68,4.12-5.44,5.99-8.22l1.09-1.42c42.4-48.54,69.09-172.44,86.76-254.43
						c5-23.22,9.32-43.28,13.26-58.32c26.43-101.18,107.31-151.74,146.39-164.33c45.95-14.81,114.63-64.41,122.11-111.52
						c1.19-7.5,0.65-17.38-8.7-21.81c-8.99-4.27-23.76-2.23-34.58,9.9c-5.76,6.45-36.82,38.68-83.31,39.58
						c-33.31,0.75-65.55-14.94-95.8-46.32c-22.59-23.44-33.38-50.2-32.06-79.51c2.04-45.54,33.26-84.97,51.16-103.98l-58.95-46.3
						c-26.62,3.39-54.1-4.33-78.09-22.06c-29.85-22.07-51.23-56.87-54.46-88.66c-5.43-53.68,22.15-96.34,44.32-130.62
						c5.82-9,11.32-17.5,15.91-25.64l0,0c14.46-25.59,14.92-42.13,11.95-45.29C1811.67,1729.42,1809.4,1728.56,1805.19,1728.56z"/>
				</g>
				<g>
					<g>
						<path class="st18" d="M2928.21,905.55c-1.48,9.38-1.48,18.19,0.92,25.34c3.04,8.99,1.77,18.89-4.1,26.36l-88.92,113.22
							c-22.72,28.93-41.09,61-54.56,95.24c-1.13,2.92-2.68,5.6-4.56,7.99c-5.46,6.95-13.68,11.41-22.74,12
							c-25.71,1.65-68.77,6.69-80.67,21.84l-796.84,1014.58l-6.18-1.5c-41.82-10.14-76.72-38.82-94.83-77.84l796.84-1014.58
							l-3.27-11.71c-4.81-17.33,2.22-35.79,17.39-45.51l299.78-192.26C2906.12,866.11,2931.81,882.48,2928.21,905.55z"/>
					</g>
					<g>
						<path class="st1" d="M1877.72,2224.91l-7.75-1.88c-42.78-10.38-77.96-39.25-96.51-79.21l-0.65-1.39l0.95-1.21l796.06-1013.58
							l-2.93-10.49c-5.14-18.52,2.28-37.92,18.45-48.29l299.77-192.26c10.03-6.42,22.48-6.36,32.5,0.17
							c9.87,6.43,14.88,17.6,13.08,29.15l0,0c-1.54,9.79-1.27,17.92,0.82,24.16c3.4,10.06,1.71,20.79-4.5,28.7l-88.92,113.22
							c-22.58,28.75-40.82,60.58-54.2,94.61c-1.18,3.06-2.84,5.97-4.92,8.62c-5.97,7.6-14.92,12.32-24.55,12.95
							c-41.8,2.69-70.55,10.3-78.86,20.89L1877.72,2224.91z M1778.64,2143.1c18.08,37.86,51.71,65.18,92.5,75.08l4.62,1.12
							l795.84-1013.31c11.96-15.22,51.45-20.8,82.47-22.79c8.21-0.53,15.84-4.56,20.94-11.04c1.78-2.26,3.19-4.73,4.2-7.35
							c13.57-34.5,32.05-66.75,54.93-95.88l88.92-113.22c5.17-6.58,6.55-15.56,3.7-24.02c-2.35-7.01-2.69-15.94-1.02-26.53h0
							c1.49-9.58-2.67-18.85-10.87-24.19c-8.35-5.44-18.72-5.5-27.07-0.15l-299.77,192.26c-14.31,9.17-20.88,26.35-16.33,42.74
							l3.61,12.92L1778.64,2143.1z"/>
					</g>
				</g>
				<g class="st2">
					<g>
						<path class="st0" d="M2926.65,891.45c-6.19-0.94-12.77,0.18-18.82,4.05l-299.76,192.27c-5.45,3.49-5.96,8.2-4.38,12.81
							c4.8,13.97,1.98,29.43-7.14,41.05l-799.46,1017.92c7.57,16.25,18.02,30.71,30.69,42.8c-22.41-14.32-40.56-34.87-52.04-59.56
							l796.84-1014.58l-3.3-11.71c-4.79-17.35,2.24-35.77,17.41-45.51l299.76-192.27C2901.77,868.89,2920.71,876.66,2926.65,891.45z
							"/>
					</g>
				</g>
				<g class="st2">
					<path class="st1" d="M2928.22,905.54c-1.5,9.4-1.47,18.18,0.93,25.35c3.02,8.98,1.76,18.89-4.11,26.37l-88.91,113.21
						c-22.73,28.94-41.1,60.98-54.55,95.24c-1.16,2.92-2.7,5.59-4.58,7.98c-5.45,6.94-13.67,11.43-22.75,12.01
						c-25.7,1.66-68.77,6.68-80.67,21.83L1876.74,2222.1l-6.18-1.48c-27.79-6.77-52.54-21.7-71.33-42.43
						c10.63,5.8,22.08,10.27,34.13,13.21l6.21,1.5l796.84-1014.58c11.9-15.15,54.94-20.19,80.64-21.85
						c9.07-0.58,17.32-5.05,22.77-11.98c1.88-2.4,3.43-5.06,4.56-8.01c13.48-34.24,31.82-66.3,54.55-95.24l88.91-113.21
						c5.87-7.47,7.16-17.36,4.11-26.37c-2.39-7.17-2.4-15.93-0.9-25.33C2909.86,868.64,2931.53,884.24,2928.22,905.54z"/>
				</g>
				<g>
					
						<rect x="2607.86" y="1111.72" transform="matrix(0.6177 -0.7864 0.7864 0.6177 75.6525 2507.509)" class="st0" width="17.72" height="128.45"/>
				</g>
				<g>
					
						<rect x="2501.46" y="1247.21" transform="matrix(0.6177 -0.7864 0.7864 0.6177 -71.5816 2475.6262)" class="st0" width="17.69" height="128.45"/>
				</g>
				<g>
					
						<rect x="2395.04" y="1382.69" transform="matrix(0.6177 -0.7864 0.7864 0.6177 -218.816 2443.7434)" class="st0" width="17.72" height="128.45"/>
				</g>
				<g>
					
						<rect x="2288.65" y="1518.18" transform="matrix(0.6177 -0.7864 0.7864 0.6177 -366.05 2411.8606)" class="st0" width="17.69" height="128.45"/>
				</g>
				<g>
					
						<rect x="2182.25" y="1653.65" transform="matrix(0.6177 -0.7864 0.7864 0.6177 -513.2728 2379.9802)" class="st0" width="17.69" height="128.45"/>
				</g>
				<g>
					
						<rect x="2075.83" y="1789.14" transform="matrix(0.6177 -0.7864 0.7864 0.6177 -660.5184 2348.095)" class="st0" width="17.69" height="128.45"/>
				</g>
				<g>
					
						<rect x="1969.43" y="1924.62" transform="matrix(0.6177 -0.7864 0.7864 0.6177 -807.741 2316.2146)" class="st0" width="17.69" height="128.45"/>
				</g>
				<g>
					
						<rect x="1863.01" y="2060.1" transform="matrix(0.6177 -0.7864 0.7864 0.6177 -954.975 2284.332)" class="st0" width="17.72" height="128.45"/>
				</g>
				<g>
					<path class="st1" d="M1882.44,2238.54l-15.34-3.72c-46.41-11.27-84.55-42.58-104.65-85.9l-3.78-8.14l797.8-1015.81l-1.27-4.57
						c-6.57-23.7,2.91-48.51,23.59-61.76l299.77-192.26c14.09-9.04,31.6-8.96,45.67,0.22c13.92,9.07,20.99,24.86,18.44,41.19l0,0.01
						c-1.53,9.82-0.66,15.44,0.34,18.42c4.69,13.95,2.27,28.93-6.47,40.06l-88.92,113.22c-21.85,27.82-39.5,58.63-52.45,91.56
						c-1.59,4.12-3.85,8.07-6.67,11.67c-8.1,10.31-20.24,16.71-33.3,17.56c-47.66,3.06-66.49,11.67-70.11,16.27L1882.44,2238.54z
						 M1792.98,2144.49c16.62,30.22,44.57,52.18,78.09,61.15l791-1007.15c4.41-5.61,17.81-22.68,91.24-27.4
						c4.77-0.31,9.21-2.65,12.17-6.43c1.03-1.31,1.84-2.73,2.42-4.22c14.03-35.67,33.1-68.95,56.71-99.01l88.92-113.22
						c2.63-3.35,3.28-8.09,1.75-12.66c-3.01-8.96-3.51-19.51-1.51-32.26l0,0c1.09-7.02-3.48-10.84-5.5-12.16
						c-1.64-1.07-7.47-4.22-13.9-0.1l-299.77,192.26c-9.81,6.29-14.3,18.05-11.19,29.28l5.25,18.83L1792.98,2144.49z
						 M2928.21,905.55h0.05H2928.21z"/>
				</g>
				<g>
					<g>
						<path class="st18" d="M2641.09,1002.17l-11,6.81c-7.41,4.59-17.14,2.3-21.73-5.11l-16.9-27.28
							c-4.59-7.41-2.3-17.14,5.11-21.73l11-6.81c7.41-4.59,17.14-2.3,21.73,5.11l16.9,27.28
							C2650.8,987.85,2648.51,997.58,2641.09,1002.17z"/>
					</g>
					<g>
						<path class="st1" d="M2621.81,1013.85c-1.41,0-2.82-0.16-4.22-0.49c-4.75-1.12-8.79-4.02-11.36-8.18l-16.9-27.28
							c-5.31-8.57-2.65-19.87,5.92-25.18l11-6.81c4.15-2.57,9.06-3.36,13.81-2.26c4.76,1.12,8.79,4.02,11.36,8.18l16.9,27.28
							c5.31,8.57,2.65,19.87-5.92,25.18l-11,6.81C2628.48,1012.92,2625.18,1013.85,2621.81,1013.85z M2615.86,948.17
							c-2.44,0-4.84,0.68-6.97,2l-11,6.81c-6.23,3.86-8.16,12.06-4.3,18.29l16.9,27.28c1.87,3.02,4.8,5.13,8.26,5.94
							c3.46,0.81,7.02,0.23,10.04-1.64l11-6.81c6.23-3.86,8.16-12.06,4.3-18.29l-16.9-27.28c-1.87-3.02-4.8-5.13-8.26-5.94
							C2617.91,948.29,2616.88,948.17,2615.86,948.17z"/>
					</g>
				</g>
				<g>
					<path class="st1" d="M2621.83,1023.97c-2.18,0-4.38-0.25-6.55-0.76c-7.39-1.74-13.65-6.25-17.65-12.7l-16.89-27.28
						c-8.24-13.32-4.12-30.86,9.19-39.1l11.01-6.81c6.45-3.99,14.07-5.23,21.45-3.5c7.39,1.74,13.65,6.25,17.65,12.7l16.9,27.28
						c8.24,13.32,4.12,30.86-9.19,39.1l0,0l-11,6.81C2632.19,1022.53,2627.05,1023.97,2621.83,1023.97z M2641.09,1002.17h0.05
						H2641.09z M2615.87,958.29c-0.49,0-1.06,0.11-1.65,0.48l-11.01,6.81c-1.48,0.92-1.94,2.88-1.02,4.37l16.89,27.28
						c0.57,0.93,1.39,1.28,1.97,1.42c0.58,0.14,1.47,0.18,2.4-0.39l11-6.81c1.49-0.92,1.95-2.88,1.03-4.37l-16.89-27.28
						c-0.57-0.93-1.39-1.28-1.97-1.42C2616.4,958.32,2616.15,958.29,2615.87,958.29z"/>
				</g>
				<g>
					<path class="st1" d="M2650.64,1042.47c-4.22,0-8.35-2.12-10.74-5.97l-15.04-24.28c-3.67-5.93-1.84-13.7,4.08-17.37
						c5.92-3.67,13.7-1.84,17.37,4.08l15.04,24.28c3.67,5.93,1.84,13.7-4.08,17.37C2655.21,1041.86,2652.91,1042.47,2650.64,1042.47
						z"/>
				</g>
				<g>
					<g>
						<path class="st18" d="M2708.69,960.37l-11,6.81c-7.41,4.59-17.14,2.3-21.73-5.11l-16.9-27.28c-4.59-7.41-2.3-17.14,5.11-21.73
							l11-6.81c7.41-4.59,17.14-2.3,21.73,5.11l16.9,27.28C2718.39,946.05,2716.1,955.78,2708.69,960.37z"/>
					</g>
					<g>
						<path class="st1" d="M2689.4,972.04c-6.13,0-12.12-3.07-15.58-8.65l-16.9-27.29c-2.57-4.15-3.37-9.06-2.25-13.81
							s4.02-8.79,8.17-11.36l11-6.81c8.58-5.31,19.87-2.65,25.18,5.92l16.9,27.29c2.57,4.15,3.37,9.06,2.25,13.81
							c-1.12,4.76-4.02,8.79-8.17,11.36l-11,6.81C2696.01,971.16,2692.69,972.04,2689.4,972.04z M2683.46,906.38
							c-2.39,0-4.8,0.64-6.97,1.99l-11,6.81c-3.02,1.87-5.13,4.8-5.94,8.25c-0.81,3.45-0.23,7.02,1.64,10.04l16.9,27.29
							c3.86,6.23,12.06,8.17,18.29,4.3l11-6.81c3.02-1.87,5.13-4.8,5.94-8.25c0.81-3.45,0.23-7.02-1.64-10.04l-16.9-27.29
							C2692.26,908.61,2687.91,906.38,2683.46,906.38z"/>
					</g>
				</g>
				<g>
					<path class="st1" d="M2689.43,982.18c-2.18,0-4.38-0.25-6.55-0.77c-7.39-1.74-13.65-6.25-17.65-12.69l-16.9-27.29
						c-3.99-6.45-5.24-14.07-3.5-21.46s6.25-13.65,12.7-17.65l11-6.81c13.32-8.24,30.86-4.12,39.1,9.19l16.9,27.29
						c3.99,6.45,5.24,14.07,3.5,21.46c-1.74,7.39-6.24,13.65-12.69,17.65l-11,6.81C2699.78,980.73,2694.65,982.18,2689.43,982.18z
						 M2683.47,916.49c-0.57,0-1.15,0.15-1.67,0.48l-11,6.81c-0.92,0.57-1.28,1.39-1.42,1.97c-0.14,0.58-0.18,1.47,0.39,2.4
						l16.9,27.29c0.92,1.49,2.88,1.95,4.37,1.03l11-6.82c0.92-0.57,1.28-1.38,1.42-1.97s0.18-1.47-0.39-2.4l-16.9-27.29
						C2685.58,917.03,2684.54,916.49,2683.47,916.49z"/>
				</g>
				<g>
					<path class="st1" d="M2718.24,1000.68c-4.22,0-8.35-2.12-10.74-5.97l-15.04-24.28c-3.67-5.93-1.84-13.7,4.08-17.37
						c5.92-3.67,13.7-1.84,17.37,4.08l15.04,24.28c3.67,5.93,1.84,13.7-4.08,17.37C2722.8,1000.07,2720.5,1000.68,2718.24,1000.68z"
						/>
				</g>
				<g>
					<g>
						<path class="st18" d="M2774.34,917.05l-11,6.81c-7.41,4.59-17.14,2.3-21.73-5.11l-16.9-27.28c-4.59-7.41-2.3-17.14,5.11-21.73
							l11-6.81c7.41-4.59,17.14-2.3,21.73,5.11l16.9,27.28C2784.04,902.73,2781.75,912.46,2774.34,917.05z"/>
					</g>
					<g>
						<path class="st1" d="M2755.05,928.72c-6.13,0-12.12-3.07-15.58-8.65l-16.9-27.29c-2.57-4.15-3.37-9.06-2.25-13.81
							c1.12-4.76,4.02-8.79,8.17-11.36l11-6.81c8.57-5.31,19.87-2.65,25.17,5.92l16.9,27.29c2.57,4.15,3.37,9.06,2.25,13.81
							s-4.02,8.79-8.17,11.36l-11,6.81C2761.66,927.84,2758.34,928.72,2755.05,928.72z M2749.11,863.06c-2.39,0-4.8,0.64-6.97,1.99
							l-11,6.81c-3.02,1.87-5.13,4.8-5.94,8.25c-0.81,3.45-0.23,7.02,1.64,10.04l16.9,27.29c3.86,6.23,12.06,8.16,18.29,4.3l11-6.81
							c3.02-1.87,5.13-4.8,5.94-8.25c0.81-3.45,0.23-7.02-1.64-10.04l-16.9-27.29C2757.91,865.29,2753.56,863.06,2749.11,863.06z"/>
					</g>
				</g>
				<g>
					<path class="st1" d="M2755.07,938.83c-9.52,0-18.83-4.77-24.19-13.44l-16.9-27.29c-3.99-6.45-5.24-14.07-3.5-21.46
						c1.74-7.39,6.25-13.65,12.7-17.65l11-6.81c6.45-3.99,14.07-5.25,21.46-3.5c7.39,1.74,13.65,6.25,17.65,12.69l16.9,27.29
						c3.99,6.45,5.24,14.07,3.5,21.46s-6.25,13.65-12.7,17.65l-11,6.81C2765.33,937.46,2760.17,938.83,2755.07,938.83z
						 M2749.12,873.17c-0.57,0-1.15,0.15-1.67,0.47l-11,6.81c-0.92,0.57-1.28,1.39-1.42,1.97s-0.18,1.47,0.39,2.4l16.9,27.29
						c0.92,1.49,2.88,1.95,4.37,1.03l11-6.81c0.92-0.57,1.28-1.39,1.42-1.97c0.14-0.58,0.18-1.47-0.39-2.4l-16.9-27.29
						C2751.23,873.7,2750.19,873.17,2749.12,873.17z"/>
				</g>
				<g>
					<path class="st1" d="M2783.89,957.35c-4.22,0-8.35-2.12-10.74-5.97l-15.04-24.28c-3.67-5.93-1.84-13.7,4.08-17.37
						c5.92-3.67,13.7-1.84,17.37,4.08l15.04,24.28c3.67,5.93,1.84,13.7-4.08,17.37C2788.45,956.74,2786.15,957.35,2783.89,957.35z"
						/>
				</g>
				<g>
					<g>
						<path class="st18" d="M2840.34,876.53l-11,6.81c-7.41,4.59-17.14,2.3-21.73-5.11l-16.9-27.28c-4.59-7.41-2.3-17.14,5.11-21.73
							l11-6.81c7.41-4.59,17.14-2.3,21.73,5.11l16.9,27.28C2850.04,862.2,2847.75,871.94,2840.34,876.53z"/>
					</g>
					<g>
						<path class="st1" d="M2821.05,888.2c-6.13,0-12.12-3.07-15.58-8.65l-16.9-27.29c-2.57-4.15-3.37-9.06-2.25-13.81
							c1.12-4.76,4.02-8.79,8.17-11.36l11-6.81c8.57-5.31,19.87-2.65,25.17,5.92l16.9,27.29c2.57,4.15,3.37,9.06,2.25,13.81
							s-4.02,8.79-8.17,11.36l-11,6.81C2827.66,887.32,2824.34,888.2,2821.05,888.2z M2815.11,822.54c-2.39,0-4.8,0.64-6.97,1.99
							l-11,6.81c-3.02,1.87-5.13,4.8-5.94,8.25c-0.81,3.45-0.23,7.02,1.64,10.04l16.9,27.29c3.86,6.23,12.06,8.16,18.29,4.3l11-6.81
							c3.02-1.87,5.13-4.8,5.94-8.25c0.81-3.45,0.23-7.02-1.64-10.04l-16.9-27.29C2823.91,824.77,2819.56,822.54,2815.11,822.54z"/>
					</g>
				</g>
				<g>
					<path class="st1" d="M2821.07,898.31c-9.52,0-18.83-4.77-24.19-13.44l-16.9-27.29c-3.99-6.45-5.24-14.07-3.5-21.46
						c1.74-7.39,6.25-13.65,12.7-17.65l11-6.81c6.45-4,14.07-5.25,21.46-3.5c7.39,1.74,13.65,6.25,17.65,12.69l16.9,27.29
						c3.99,6.45,5.24,14.07,3.5,21.46s-6.25,13.65-12.7,17.65l-11,6.81C2831.33,896.94,2826.17,898.31,2821.07,898.31z
						 M2815.12,832.65c-0.57,0-1.15,0.15-1.67,0.47l-11,6.81c-0.92,0.57-1.28,1.39-1.42,1.97s-0.18,1.47,0.39,2.4l16.9,27.29
						c0.92,1.49,2.88,1.95,4.37,1.03l11-6.81c0.92-0.57,1.28-1.39,1.42-1.97c0.14-0.58,0.18-1.47-0.39-2.4l-16.9-27.29
						C2817.22,833.18,2816.18,832.65,2815.12,832.65z"/>
				</g>
				<g>
					<path class="st1" d="M2849.88,916.83c-4.22,0-8.35-2.12-10.74-5.97l-15.04-24.28c-3.67-5.93-1.84-13.7,4.08-17.37
						c5.92-3.67,13.7-1.84,17.37,4.08l15.04,24.28c3.67,5.93,1.84,13.7-4.08,17.37C2854.45,916.22,2852.15,916.83,2849.88,916.83z"
						/>
				</g>
				<g>
					<g>
						<path class="st0" d="M1582.04,2597.33l-21.33,27.16c-9.7,12.35-27.57,14.49-39.91,4.8l-56.31-44.22
							c-12.35-9.7-14.49-27.57-4.8-39.91l21.33-27.16c9.7-12.35,27.57-14.49,39.91-4.8l56.31,44.22
							C1589.59,2567.12,1591.74,2584.99,1582.04,2597.33z"/>
					</g>
					<g>
						<path class="st1" d="M1538.3,2637.87c-6.89,0-13.54-2.29-19.04-6.61l-56.31-44.22c-6.5-5.1-10.62-12.43-11.6-20.63
							c-0.99-8.2,1.28-16.3,6.38-22.79l21.33-27.16c10.54-13.41,30.01-15.75,43.42-5.22l56.31,44.22
							c13.41,10.53,15.75,30.01,5.22,43.43l-21.33,27.16c-5.1,6.5-12.43,10.62-20.63,11.6
							C1540.79,2637.79,1539.54,2637.87,1538.3,2637.87z M1503.41,2509.64c-7.69,0-15.31,3.4-20.42,9.9l-21.33,27.16
							c-4.28,5.45-6.18,12.23-5.35,19.11s4.28,13.02,9.73,17.29l56.31,44.22c5.45,4.28,12.23,6.19,19.11,5.35
							c6.88-0.83,13.02-4.28,17.29-9.73l21.33-27.16c8.83-11.24,6.87-27.57-4.38-36.4l-56.31-44.22
							C1514.66,2511.44,1509.01,2509.64,1503.41,2509.64z"/>
					</g>
				</g>
				<g class="st2">
					<path class="st1" d="M1549.63,2535.76l27.61,21.69c12.32,9.68,14.5,27.53,4.79,39.88l-21.33,27.16
						c-9.7,12.35-27.58,14.5-39.9,4.82l-27.61-21.69c12.35,9.7,30.23,7.55,39.93-4.8l21.33-27.16
						C1564.16,2563.31,1561.99,2545.46,1549.63,2535.76z"/>
				</g>
				<g>
					<path class="st1" d="M1538.27,2649.71c-9.53,0-18.72-3.16-26.33-9.14l-56.31-44.22c-8.98-7.06-14.68-17.19-16.05-28.53
						c-1.36-11.34,1.77-22.54,8.83-31.52l21.33-27.16c14.57-18.55,41.51-21.78,60.06-7.22l56.31,44.22
						c18.55,14.57,21.79,41.51,7.22,60.06l-21.33,27.16c-7.06,8.98-17.19,14.69-28.53,16.05
						C1541.73,2649.61,1539.99,2649.71,1538.27,2649.71z M1503.4,2521.48c-4.18,0-8.31,1.85-11.09,5.38l-21.33,27.16
						c-2.32,2.96-3.36,6.64-2.91,10.38c0.45,3.73,2.32,7.07,5.28,9.39l56.31,44.22c2.96,2.32,6.64,3.36,10.38,2.91
						c3.73-0.45,7.07-2.33,9.39-5.28l21.33-27.16c4.8-6.11,3.73-14.98-2.38-19.77l-56.31-44.22
						C1509.5,2522.46,1506.44,2521.48,1503.4,2521.48z"/>
				</g>
				<g>
					<g>
						<path class="st19" d="M1790.8,2331.53L1790.8,2331.53c-4.21,5.36-11.98,6.3-17.34,2.08l-81.59-64.08
							c-5.36-4.21-6.3-11.98-2.08-17.34l0,0c4.21-5.36,11.98-6.3,17.34-2.08l81.59,64.08
							C1794.08,2318.4,1795.01,2326.17,1790.8,2331.53z"/>
					</g>
					<g>
						<path class="st1" d="M1781.06,2338.75c-3.31,0-6.5-1.1-9.14-3.17l-81.59-64.08c-6.44-5.06-7.56-14.41-2.51-20.85
							c2.45-3.12,5.97-5.1,9.91-5.57c3.94-0.46,7.82,0.61,10.94,3.07l81.59,64.08c6.44,5.06,7.56,14.41,2.51,20.85
							c-2.45,3.12-5.97,5.1-9.91,5.57C1782.26,2338.72,1781.66,2338.75,1781.06,2338.75z M1699.52,2249.97c-0.4,0-0.8,0.02-1.2,0.07
							c-2.61,0.31-4.95,1.63-6.57,3.69c-3.35,4.27-2.61,10.48,1.66,13.83l81.59,64.08c2.07,1.62,4.64,2.35,7.26,2.03
							c2.61-0.31,4.95-1.63,6.57-3.69c3.35-4.27,2.61-10.48-1.66-13.83l-81.59-64.08
							C1703.83,2250.7,1701.71,2249.97,1699.52,2249.97z"/>
					</g>
				</g>
				<g>
					<path class="st1" d="M1781.04,2350.6c-5.95,0-11.69-1.98-16.44-5.71l-81.59-64.08c-11.58-9.09-13.6-25.91-4.51-37.48
						c4.4-5.61,10.73-9.17,17.81-10.02c7.09-0.84,14.07,1.11,19.68,5.51l81.59,64.08c11.58,9.09,13.6,25.91,4.51,37.48
						c-4.4,5.61-10.73,9.17-17.81,10.02C1783.19,2350.54,1782.11,2350.6,1781.04,2350.6z M1779.86,2325.47h0.05H1779.86z"/>
				</g>
				<g>
					<g>
						<path class="st19" d="M1691.39,2458.11L1691.39,2458.11c-4.21,5.36-11.98,6.3-17.34,2.08l-81.59-64.08
							c-5.36-4.21-6.3-11.98-2.08-17.34h0c4.21-5.36,11.98-6.3,17.34-2.08l81.59,64.08
							C1694.67,2444.98,1695.6,2452.75,1691.39,2458.11z"/>
					</g>
					<g>
						<path class="st1" d="M1681.66,2465.33c-3.21,0-6.44-1.03-9.16-3.16l-81.59-64.08c-3.12-2.45-5.1-5.97-5.57-9.9
							s0.61-7.82,3.06-10.94c5.06-6.44,14.41-7.56,20.85-2.51l81.59,64.08c6.44,5.06,7.56,14.41,2.51,20.85
							C1690.43,2463.38,1686.06,2465.33,1681.66,2465.33z M1600.09,2376.56c-2.92,0-5.82,1.29-7.76,3.76
							c-1.63,2.07-2.35,4.65-2.03,7.26c0.31,2.61,1.63,4.94,3.7,6.57l81.59,64.08c4.27,3.35,10.48,2.61,13.83-1.66
							c3.35-4.27,2.61-10.48-1.66-13.83l-81.59-64.08C1604.36,2377.24,1602.22,2376.56,1600.09,2376.56z"/>
					</g>
				</g>
				<g>
					<path class="st1" d="M1681.65,2477.17c-5.77,0-11.58-1.86-16.46-5.69l-81.6-64.08c-5.61-4.4-9.16-10.73-10.01-17.81
						c-0.85-7.08,1.1-14.07,5.51-19.68c9.09-11.57,25.91-13.6,37.48-4.51l81.6,64.08c11.58,9.09,13.6,25.91,4.51,37.48
						C1697.41,2473.67,1689.56,2477.17,1681.65,2477.17z M1682.91,2448.92h0.05H1682.91z"/>
				</g>
				<g>
					
						<rect x="1173.86" y="1787.26" transform="matrix(0.6192 -0.7852 0.7852 0.6192 -609.2727 2321.7341)" class="st1" width="1830.59" height="3.59"/>
				</g>
				<g>
					
						<rect x="1182.36" y="1779.94" transform="matrix(0.6192 -0.7852 0.7852 0.6192 -589.3303 2348.2207)" class="st1" width="1888.15" height="3.59"/>
				</g>
				<g>
					
						<rect x="1192.66" y="1775.74" transform="matrix(0.618 -0.7862 0.7862 0.618 -571.5948 2378.6252)" class="st1" width="1938.69" height="3.59"/>
				</g>
				<g>
					
						<rect x="1202.95" y="1771.54" transform="matrix(0.6169 -0.7871 0.7871 0.6169 -553.762 2409.0862)" class="st1" width="1989.24" height="3.59"/>
				</g>
				<g>
					<path class="st1" d="M1571.36,2625.26c-6.96,0-13.06-5.07-14.16-12.16c-1.21-7.83,4.16-15.16,11.99-16.37l63.02-9.73
						c35.35-5.46,68.76-20.2,96.61-42.64l110.39-88.9c6.17-4.97,15.2-4,20.17,2.18c4.97,6.17,4,15.2-2.17,20.17l-110.39,88.9
						c-31.78,25.6-69.9,42.42-110.23,48.65l-63.02,9.73C1572.83,2625.21,1572.09,2625.26,1571.36,2625.26z"/>
				</g>
				<g>
					<path class="st1" d="M1887.13,2459.62l-31.44,40.03c-6.76,8.61-19.23,10.11-27.84,3.35l-10.15-7.97
						c-8.61-6.76-10.11-19.23-3.35-27.84l31.44-40.03c6.76-8.61,19.23-10.11,27.84-3.35l10.15,7.97
						C1892.4,2438.54,1893.9,2451.01,1887.13,2459.62z"/>
				</g>
				<g class="st2">
					<path class="st1" d="M2149.26,2293.27c-8.92,56.24-85.11,107.85-131.88,122.92c-41.63,13.41-113.43,64.41-136.92,154.31
						c-18.04,69.01-46.08,253.29-103.08,318.55c-2.06,3.08-4.3,6.11-6.6,9.04c-1.37,1.75-2.72,3.47-4.13,5.15
						c-84.56,101.45-243.68,111.18-457.19-56.51c-13.14-10.32-25.59-20.6-37.34-30.83c194,137.18,339.05,122.73,418.38,27.53
						c1.41-1.68,2.79-3.37,4.16-5.12c2.3-2.93,4.52-5.98,6.57-9.06c57-65.27,85.04-249.54,103.11-318.53
						c23.47-89.92,95.26-140.92,136.89-154.33c26.85-8.64,63.37-29.3,91.3-55.98c24.65-7.46,42.14-23.63,48.58-30.84
						C2107.46,2240.01,2156.01,2250.65,2149.26,2293.27z"/>
				</g>
				<g>
					<circle class="st0" cx="2660.19" cy="1064.6" r="11.27"/>
				</g>
				<g>
					<circle class="st0" cx="2713.01" cy="1032.61" r="11.27"/>
				</g>
				<g>
					<circle class="st0" cx="2762.41" cy="1006.85" r="11.27"/>
				</g>
				<g>
					<circle class="st0" cx="2816.82" cy="981.1" r="11.27"/>
				</g>
			</g>
			<g>
				<g>
					<path class="st0" d="M1072.74,2390.94c0,0,144.92,130.36,330.72,123.7c141.07-5.05,184.03-87.76,160.85-166.36
						c-31.21-105.86-261.54-97.38-359.41-224.64L1072.74,2390.94z"/>
				</g>
				<g>
					<path class="st1" d="M1389.85,2517.39c-178.17,0-317.35-123.31-318.78-124.59l3.34-3.72c1.44,1.3,146.34,129.5,328.96,123.06
						c67.85-2.43,117.73-23.17,144.23-59.97c20.47-28.42,25.55-65.07,14.31-103.19c-15.38-52.16-80.07-75.86-154.98-103.32
						c-72.67-26.63-155.04-56.82-204.01-120.51l3.96-3.05c48.09,62.53,129.74,92.46,201.77,118.86
						c76.18,27.92,141.96,52.03,158.05,106.6c11.69,39.64,6.34,77.82-15.05,107.53c-19.13,26.57-60.36,58.9-148.11,62.04
						C1398.96,2517.31,1394.39,2517.39,1389.85,2517.39z"/>
				</g>
			</g>
			<g class="st2">
				<path class="st1" d="M1403.45,2514.65c-185.8,6.63-330.73-123.73-330.73-123.73l0,0c21.02-20.24,52.3-25.26,78.71-12.85
					c58.77,27.62,147.31,49.09,252.01,45.34c89.58-3.19,139.61-37.69,158.26-82.59c0.97,2.4,1.83,4.91,2.58,7.46
					C1587.5,2426.9,1544.54,2509.59,1403.45,2514.65z"/>
			</g>
			<g>
				<path class="st1" d="M1076.74,2386.5c22.37,6.94,41.12,17.58,59.82,28.41l14.06,8c2.36,1.3,4.6,2.79,6.94,4.13l7.05,3.94
					l13.96,8.14l14.2,7.71l7.12,3.83l7.3,3.45l14.68,6.75c9.94,4.09,20.01,7.87,30.08,11.61c10.26,3.11,20.37,6.79,30.73,9.47
					l15.58,3.86c5.19,1.31,10.37,2.67,15.65,3.42c20.97,4.05,42.18,6.56,63.41,7.26c21.2,0.37,42.6,0.21,63.03-3.61
					c20.38-3.5,40.49-8.83,57.74-18.38c17.22-9.38,32.16-22.08,41.37-38.24c9.35-16.02,13.49-34.86,12.55-54.04
					c0.08-2.39-0.26-4.79-0.62-7.19l-0.95-7.21c-0.84-4.79-2.25-9.53-3.28-14.31c-2.59-8.33-6.73-16-12.37-23.11
					c-5.52-7.17-12.94-13.46-20.93-19.28c-7.95-5.9-17.03-10.97-26.28-15.82c-18.74-9.53-38.9-17.64-59.52-25.37
					c-41.24-15.51-84.13-29.89-125.59-50.06c-10.34-5.1-20.61-10.47-30.67-16.38c-5.03-2.97-10.16-5.75-15.17-8.87
					c-5.08-2.97-10.15-6.01-14.99-9.47c-9.83-6.63-18.79-14.79-26.35-24.19c-3.86-4.59-6.9-10.04-9.68-15.46
					c-2.54-5.66-4.54-11.68-5.43-18.21c-0.51-3.76,2.12-7.22,5.87-7.73c1.03-0.14,2.03-0.05,2.96,0.24l0.65,0.21
					c6.29,1.98,11.13,4.76,16.04,7.36c5.03,2.5,9.21,5.58,13.66,8.41c4.4,2.87,8.33,6.12,12.63,9.06c2.09,1.52,4.12,3.11,6.11,4.75
					l6.19,4.72l6.11,4.87l6.35,4.66c4.18,3.18,8.7,5.96,13.22,8.71c9.1,5.43,18.6,10.33,28.21,15.1
					c38.7,18.86,80.44,32.95,122.52,48.74c21.06,7.91,42.32,16.39,63.28,27.05c10.44,5.48,20.88,11.29,30.86,18.63
					c9.94,7.25,19.74,15.47,27.92,25.92c8.23,10.28,14.89,22.45,18.81,35.45c1.42,6.07,3.12,12.06,4.2,18.22l1.26,9.35
					c0.45,3.11,0.84,6.23,0.81,9.42c1.31,25.21-4.26,51.64-17.49,74.1c-13.03,22.68-33.5,39.8-55.24,51.57
					c-21.91,12.02-45.55,18.15-68.87,22.18c-23.45,4.3-46.82,4.49-70.08,4.07c-23.25-0.77-46.38-3.52-69.13-7.91
					c-5.75-0.84-11.35-2.29-16.96-3.7l-16.84-4.18c-5.66-1.23-11.06-3.28-16.59-4.94l-16.49-5.25c-10.8-3.98-21.57-8.1-32.23-12.4
					l-15.82-6.87l-7.95-3.35l-7.79-3.68c-21.01-9.37-41.24-20.51-59.98-33.85c-4.59-3.48-9.28-6.8-13.75-10.42
					c-4.42-3.71-8.69-7.62-12.78-11.71c-8.04-8.47-15.55-17.34-21.09-28.68c-1.56-3.2-0.24-7.05,2.96-8.62
					c1.53-0.75,3.21-0.83,4.72-0.37L1076.74,2386.5z"/>
			</g>
			<g>
				<g>
					<path class="st0" d="M2166.97,2087.28v-0.04c22.31-64.59,22.02-161.88,2.83-238.24l56.66-72.19
						c-28.08-98.12-36.47-172.03,15.06-227.12c40.45-43.25,135.63-41.29,176.41,109.35
						C2493.57,1938.45,2166.97,2087.28,2166.97,2087.28z"/>
				</g>
				<g>
					<path class="st1" d="M2164.47,2091.16l0.14-4.74c21.56-62.43,22.68-157.6,2.77-236.81l-0.3-1.19l56.63-72.15
						c-28.5-99.97-35.65-173.08,15.99-228.29c19.76-21.12,49.87-29.81,78.57-22.68c26.45,6.58,74.89,32.62,102.08,133.07
						c39.38,145.49-31.43,255.04-97.77,321.32c-71.69,71.62-153.76,109.47-154.58,109.84L2164.47,2091.16z M2172.53,1849.59
						c19.23,77.5,18.61,169.94-1.34,232.87c19.16-9.54,87.32-45.76,147.96-106.39c65.35-65.33,135.12-173.25,96.38-316.38
						c-26.52-97.99-73.07-123.21-98.46-129.53c-26.95-6.72-55.19,1.43-73.71,21.24c-50.25,53.71-42.79,125.8-14.48,224.72l0.35,1.23
						L2172.53,1849.59z"/>
				</g>
			</g>
			<g class="st2">
				<path class="st1" d="M2166.97,2087.28v-0.04c22.31-64.59,22.02-161.88,2.83-238.24l12.37-15.78
					c10.47,28.1,19.05,59.59,24.63,90.25c6.78,37.28,52.44,51.96,79.85,25.79c58.73-56.07,132.74-142.01,142.04-226
					C2443.65,1961.18,2166.97,2087.28,2166.97,2087.28z"/>
			</g>
			<g>
				<path class="st1" d="M2152.62,2109.58v-24.74l0.79-2.28c20.55-59.49,21.57-154.1,2.48-230.06l-1.71-6.82l56.5-71.98
					c-28.23-100.99-34.04-175.64,20.38-233.8c22.69-24.26,57.21-34.26,90.08-26.08c28.97,7.21,81.88,35.17,110.65,141.47
					c32.34,119.49-2.52,234.57-100.83,332.8c-73.19,73.12-154.61,110.68-158.04,112.24L2152.62,2109.58z M2185.38,1852.39
					c15.86,67.79,17.11,145.93,4.12,206.8c29.64-16.91,77.77-47.89,121.73-91.96c91.47-91.69,122.71-194.12,92.85-304.44
					c-24.94-92.14-67.02-115.44-89.89-121.13c-22.78-5.66-46.61,1.16-62.2,17.84c-46.43,49.63-38.92,118.44-11.75,213.37l2.02,7.04
					L2185.38,1852.39z"/>
			</g>
			<g>
				<path class="st1" d="M2238.19,1772.47c2.08,3.78,3.34,7.05,4.47,10.71c0.58,1.78,1.09,3.59,1.46,5.43
					c0.43,1.82,0.85,3.65,1.08,5.52c1.22,7.42,1.36,15.04,0.69,22.7c-0.7,7.64-2.17,15.31-4.99,22.6
					c-2.95,7.24-7.15,14.09-12.91,19.04c-0.78,0.67-1.96,0.58-2.63-0.2c-0.39-0.45-0.52-1.03-0.42-1.57l0.03-0.13
					c1.36-6.98,1.66-13.4,1.27-19.76c-0.37-6.36-1.56-12.62-2.85-18.8c-1.28-6.19-3.28-12.29-4.75-18.45
					c-1.51-6.05-3.21-12.56-3.88-18.4l-0.13-1.18c-0.79-6.92,4.18-13.17,11.1-13.96
					C2230.94,1765.43,2235.79,1768.13,2238.19,1772.47z"/>
			</g>
		</g>
	</g>
</g>
</svg>
