<svg xmlns="http://www.w3.org/2000/svg" viewBox="0 0 30 30"><defs><style>.cls-1{fill:#60b3c6;}.cls-2{fill:#ed9494;}.cls-3{fill:#f7a7a6;}.cls-4{fill:#7ec6dc;}.cls-5{fill:#348b99;}</style></defs><g id="Layer_2" data-name="Layer 2"><path class="cls-1" d="M21.01813,15.88645a4.08075,4.08075,0,0,0,1.00574.1445,1.2895,1.2895,0,0,0,.81158-.27167,1.44449,1.44449,0,0,0,.40207-.81434,8.45218,8.45218,0,0,1,.25216-1.13142.23918.23918,0,0,1,.30612-.14383.24288.24288,0,0,1,.14926.28911,8.47238,8.47238,0,0,0-.13431,1.083A2.06345,2.06345,0,0,1,23.314,16.249a2.007,2.007,0,0,1-1.22837.56761A4.82431,4.82431,0,0,1,20.8561,16.763a.44622.44622,0,0,1,.11984-.88435C20.98986,15.88053,21.00472,15.88335,21.01813,15.88645Z"/><rect class="cls-2" x="15.36223" y="10.23991" width="1.23014" height="2.23738"/><rect class="cls-3" x="15.36223" y="10.2577" width="0.97165" height="2.21959"/><circle class="cls-1" cx="10.04073" cy="13.099" r="2.31285"/><path class="cls-1" d="M21.46838,16.43512a5.05334,5.05334,0,0,1-4.8136,5.03645h-.87356l-5.4019-.01785c-2.175-.19608-4.33226-.5081-4.33226-2.594,0-2.30875,1.98787-4.84031,4.983-5.82975.05348-.01785.11588-.03569.16937-.05349a1.15961,1.15961,0,0,1,.55266-.01784,7.63062,7.63062,0,0,1,.7666.2407,4.98917,4.98917,0,0,1,3.35168-1.79173,3.59113,3.59113,0,0,1,.53488-.0357A5.05977,5.05977,0,0,1,21.46838,16.43512Z"/><path class="cls-4" d="M20.47,16.43512a5.05236,5.05236,0,0,1-4.68879,5.03645.58825.58825,0,0,1-.12481.00892l-5.27709-.02677c-2.175-.19608-4.33226-.5081-4.33226-2.594,0-2.30875,1.98787-4.84031,4.983-5.82975.16937.05348.33874.12475.49918.16937.07133-.08026.14266-.16051.22285-.2407a5.0097,5.0097,0,0,1,3.66366-1.5778,3.88234,3.88234,0,0,1,.45462.02677A5.045,5.045,0,0,1,20.47,16.43512Z"/><path class="cls-1" d="M13.61512,13.29742a2.30112,2.30112,0,0,1-2.18395,2.29978.67443.67443,0,0,1-.13373.00892,2.30875,2.30875,0,1,1,2.31768-2.3087Z"/><path class="cls-4" d="M13.107,13.38654a2.28074,2.28074,0,0,1-1.51539,2.14831,1.18982,1.18982,0,0,1-.16045.06235.67443.67443,0,0,1-.13373.00892,2.30915,2.30915,0,0,1-.60615-4.53721h.098A2.32448,2.32448,0,0,1,13.107,13.38654Z"/><circle class="cls-5" cx="8.10301" cy="16.80595" r="0.37513"/><path class="cls-3" d="M16.87763,8.51951a1.10108,1.10108,0,0,0-.8914.46349,1.1011,1.1011,0,0,0-.89141-.46349,1.13207,1.13207,0,1,0,0,2.26414,1.10115,1.10115,0,0,0,.89141-.46354,1.10113,1.10113,0,0,0,.8914.46354,1.13207,1.13207,0,1,0,0-2.26414ZM15.10375,9.94573a.29321.29321,0,0,1-.3031-.29418.29867.29867,0,0,1,.59728,0A.2911.2911,0,0,1,15.10375,9.94573Zm1.74717,0a.29106.29106,0,0,1-.29418-.29418.29678.29678,0,0,1,.29418-.29418.291.291,0,0,1,.29412.29418A.28573.28573,0,0,1,16.85092,9.94573Z"/><path class="cls-2" d="M17.99736,9.65323a1.1337,1.1337,0,0,1-1.1321,1.1321.26325.26325,0,0,1-.11589-.01784,1.12213,1.12213,0,0,0,0-2.22851.26312.26312,0,0,1,.11589-.01785A1.128,1.128,0,0,1,17.99736,9.65323Z"/><path class="cls-3" d="M12.26909,14.3225a1.39657,1.39657,0,0,1-.67747,1.21235,1.18982,1.18982,0,0,1-.16045.06235.67443.67443,0,0,1-.13373.00892A2.32091,2.32091,0,0,1,9.479,14.72364a1.18308,1.18308,0,0,1-.0624-.40114,1.42625,1.42625,0,0,1,2.8525,0Z"/></g></svg>