<svg xmlns="http://www.w3.org/2000/svg" viewBox="0 0 30 30"><defs><style>.cls-1{fill:#97ccb4;}.cls-2{fill:#acdbc7;}.cls-3{fill:#525d7c;}.cls-4{fill:#5f698c;}</style></defs><g id="Layer_2" data-name="Layer 2"><path class="cls-1" d="M16.71022,15.23679l-.51866-.10465L14.59443,14.802,14.84774,8.794a1.48715,1.48715,0,0,1,.93264-1.29757.01047.01047,0,0,1,.01418-.00565,1.55736,1.55736,0,0,1,.7363-.1132.42479.42479,0,0,1,.15188.03777.50143.50143,0,0,1,.33308.48171Z"/><path class="cls-2" d="M16.19156,15.13214,14.59443,14.802,14.84774,8.794a1.48715,1.48715,0,0,1,.93264-1.29757.01047.01047,0,0,1,.01418-.00565,1.61474,1.61474,0,0,1,.21621-.00422.42517.42517,0,0,1,.15188.03778.50133.50133,0,0,1,.33307.4817Z"/><path class="cls-3" d="M20.91846,20.53457A2.93471,2.93471,0,0,0,19.022,17.17768l-.01031-.0041a2.907,2.907,0,0,1-1.75583-1.79082c-.045-.09678-.07971-.1894-.1247-.28618l-.00257-.02358-.06551-.19511A7.91626,7.91626,0,0,1,16.769,13.758c-.02951-.13575-.03716-.20641-.03716-.20641l-.48156.28209-.74553.43636-.91286.52776c-.00128.03327-.01289.0625-.01037.086a12.76982,12.76982,0,0,0-.07143,3.2401,5.93029,5.93029,0,0,0,.92111,2.90179l.01417-.00565a3.04342,3.04342,0,0,0,1.9375,1.51355,2.987,2.987,0,0,0,2.41357-.40483A2.63993,2.63993,0,0,0,20.91846,20.53457Zm-3.23621.76556a1.63306,1.63306,0,0,1-.93412-.61908,1.50565,1.50565,0,0,1-.27722-1.28225,1.55242,1.55242,0,0,1,1.9352-1.09085,1.28269,1.28269,0,0,1,.51341.23782,1.52149,1.52149,0,0,1-1.23727,2.75436Z"/><path class="cls-4" d="M18.65887,17.46169l.00387-.00975A2.83787,2.83787,0,0,1,16.9416,15.7538c-.09-.19355-.16583-.3927-.23521-.57807a.80082.80082,0,0,1-.03978-.13976,6.53339,6.53339,0,0,1-.2876-1.19625l-.13909.08-.667.38874-.8807.50669-.11073.06868a12.76982,12.76982,0,0,0-.07143,3.2401,5.93029,5.93029,0,0,0,.92111,2.90179l.01417-.00565a3.04342,3.04342,0,0,0,1.9375,1.51355,2.987,2.987,0,0,0,2.41357-.40483,2.65361,2.65361,0,0,0,.75891-1.31017A2.90066,2.90066,0,0,0,18.65887,17.46169Zm-.97662,3.83844a1.63306,1.63306,0,0,1-.93412-.61908,1.50565,1.50565,0,0,1-.27722-1.28225,1.55242,1.55242,0,0,1,1.9352-1.09085,1.28269,1.28269,0,0,1,.51341.23782,1.52149,1.52149,0,0,1-1.23727,2.75436Z"/><path class="cls-1" d="M21.32315,11.00587,17.22238,15.4177l-.404-.27323-1.396-.92649,5.02429-5.38612a.50454.50454,0,0,1,.3051-.13806.53825.53825,0,0,1,.26.03568.453.453,0,0,1,.14664.08082A1.52183,1.52183,0,0,1,21.32315,11.00587Z"/><path class="cls-2" d="M20.83934,10.81367l-4.02093,4.3308-1.396-.92649,5.02429-5.38612a.50454.50454,0,0,1,.3051-.13806A1.51039,1.51039,0,0,1,20.83934,10.81367Z"/><path class="cls-4" d="M17.13119,15.09658l-.00257-.02358-.04749-.21045-.30564-1.18085-.04363-.13008-.13229-.53718s-.06823.05179-.18283.13022c-.0464.0267-.09658.0631-.14683.09948a7.247,7.247,0,0,1-1.64152.80173,2.77,2.77,0,0,1-2.2125-.10131,2.93021,2.93021,0,0,0-3.73065,1.02,2.82474,2.82474,0,0,0,1.06985,3.90757,3.03411,3.03411,0,0,0,2.42731.31068l.00637.01381a5.50763,5.50763,0,0,0,2.32134-1.07268A11.80282,11.80282,0,0,0,16.9416,15.7538c.10173-.1061.18292-.22037.2782-.34025ZM12.625,17.31866a1.53454,1.53454,0,0,1-1.11121.69688,1.64049,1.64049,0,0,1-1.1029-.22409A1.51947,1.51947,0,0,1,11.5143,14.984a1.28051,1.28051,0,0,1,.53277.18909A1.54463,1.54463,0,0,1,12.625,17.31866Z"/><path class="cls-1" d="M16.24289,15.3329a.50453.50453,0,0,1-.63086.35795.42891.42891,0,0,1-.18142-.08335.51689.51689,0,0,1-.21589-.53662.49956.49956,0,0,1,.57166-.35891.12068.12068,0,0,1,.0592.001A.52465.52465,0,0,1,16.24289,15.3329Z"/><path class="cls-2" d="M16.03705,15.25112a.50531.50531,0,0,1-.60644.35638.51689.51689,0,0,1-.21589-.53662.42426.42426,0,1,1,.82233.18024Z"/></g></svg>